G04 #@! TF.FileFunction,Soldermask,Top*
%FSLAX46Y46*%
G04 Gerber Fmt 4.6, Leading zero omitted, Abs format (unit mm)*
G04 Created by KiCad (PCBNEW 4.0.2-stable) date 2016. 09. 14. 22:41:56*
%MOMM*%
G01*
G04 APERTURE LIST*
%ADD10C,0.100000*%
%ADD11R,1.150000X1.600000*%
%ADD12R,1.600000X1.150000*%
%ADD13R,1.310000X1.620000*%
%ADD14R,1.900000X1.700000*%
%ADD15R,2.432000X2.432000*%
%ADD16O,2.432000X2.432000*%
%ADD17R,0.900380X2.701240*%
%ADD18R,2.398980X2.899360*%
%ADD19C,1.299160*%
%ADD20O,2.400000X1.900000*%
%ADD21R,2.200860X1.200100*%
%ADD22R,1.600000X1.300000*%
%ADD23R,1.300000X1.600000*%
%ADD24C,2.900000*%
%ADD25C,2.150000*%
%ADD26R,1.960000X1.050000*%
%ADD27R,1.460000X1.050000*%
%ADD28R,1.050000X2.100000*%
%ADD29R,2.000000X1.400000*%
%ADD30C,5.400000*%
%ADD31R,1.197560X1.197560*%
G04 APERTURE END LIST*
D10*
D11*
X42000000Y-34700000D03*
X42000000Y-32800000D03*
X66500000Y-31300000D03*
X66500000Y-33200000D03*
D12*
X48550000Y-74750000D03*
X50450000Y-74750000D03*
X23450000Y-60000000D03*
X21550000Y-60000000D03*
X23200000Y-48250000D03*
X21300000Y-48250000D03*
X76800000Y-51750000D03*
X78700000Y-51750000D03*
X36200000Y-48250000D03*
X34300000Y-48250000D03*
X63800000Y-51750000D03*
X65700000Y-51750000D03*
X49200000Y-48250000D03*
X47300000Y-48250000D03*
X50800000Y-51750000D03*
X52700000Y-51750000D03*
X62200000Y-48250000D03*
X60300000Y-48250000D03*
X37800000Y-51750000D03*
X39700000Y-51750000D03*
X75200000Y-48250000D03*
X73300000Y-48250000D03*
X24800000Y-51500000D03*
X26700000Y-51500000D03*
D13*
X37385000Y-37000000D03*
X34115000Y-37000000D03*
D14*
X71600000Y-31250000D03*
X68900000Y-31250000D03*
D15*
X23000000Y-64000000D03*
D16*
X25540000Y-64000000D03*
D17*
X48399800Y-77550680D03*
X49199900Y-77550680D03*
X50000000Y-77550680D03*
X50800100Y-77550680D03*
X51600200Y-77550680D03*
D18*
X45549920Y-77649740D03*
X45549920Y-83148840D03*
X54450080Y-77649740D03*
X54450080Y-83148840D03*
D19*
X47800360Y-80149100D03*
X52199640Y-80149100D03*
D20*
X31500000Y-37000000D03*
X31500000Y-34460000D03*
X31500000Y-31920000D03*
X31500000Y-29380000D03*
X31500000Y-26840000D03*
X31500000Y-24300000D03*
D21*
X58001140Y-29200000D03*
X58001140Y-27300000D03*
X54998860Y-28250000D03*
D22*
X39400000Y-37000000D03*
X41600000Y-37000000D03*
X80600000Y-37500000D03*
X78400000Y-37500000D03*
D23*
X61000000Y-28850000D03*
X61000000Y-26650000D03*
D22*
X55400000Y-25250000D03*
X57600000Y-25250000D03*
X51100000Y-25250000D03*
X48900000Y-25250000D03*
X36900000Y-24750000D03*
X39100000Y-24750000D03*
D23*
X74000000Y-35900000D03*
X74000000Y-38100000D03*
D22*
X71350000Y-38250000D03*
X69150000Y-38250000D03*
X28350000Y-37750000D03*
X26150000Y-37750000D03*
D23*
X21750000Y-38850000D03*
X21750000Y-36650000D03*
D24*
X46760000Y-21490000D03*
D25*
X45500000Y-19000000D03*
X41000000Y-19000000D03*
D24*
X39750000Y-21490000D03*
X59760000Y-21490000D03*
D25*
X58500000Y-19000000D03*
X54000000Y-19000000D03*
D24*
X52750000Y-21490000D03*
D26*
X43100000Y-70700000D03*
X43100000Y-69750000D03*
X43100000Y-68800000D03*
X40400000Y-68800000D03*
X40400000Y-70700000D03*
D27*
X69150000Y-33300000D03*
X69150000Y-34250000D03*
X69150000Y-35200000D03*
X71350000Y-35200000D03*
X71350000Y-33300000D03*
X71350000Y-34250000D03*
D28*
X39405000Y-27100000D03*
X38135000Y-27100000D03*
X36865000Y-27100000D03*
X35595000Y-27100000D03*
X35595000Y-34400000D03*
X36865000Y-34400000D03*
X38135000Y-34400000D03*
X39405000Y-34400000D03*
D29*
X26500000Y-45600000D03*
X26500000Y-44000000D03*
X26500000Y-42400000D03*
X21500000Y-45600000D03*
X21500000Y-44000000D03*
X21500000Y-42400000D03*
X73500000Y-54400000D03*
X73500000Y-56000000D03*
X73500000Y-57600000D03*
X78500000Y-54400000D03*
X78500000Y-56000000D03*
X78500000Y-57600000D03*
X39500000Y-45600000D03*
X39500000Y-44000000D03*
X39500000Y-42400000D03*
X34500000Y-45600000D03*
X34500000Y-44000000D03*
X34500000Y-42400000D03*
X60500000Y-54400000D03*
X60500000Y-56000000D03*
X60500000Y-57600000D03*
X65500000Y-54400000D03*
X65500000Y-56000000D03*
X65500000Y-57600000D03*
X52500000Y-45600000D03*
X52500000Y-44000000D03*
X52500000Y-42400000D03*
X47500000Y-45600000D03*
X47500000Y-44000000D03*
X47500000Y-42400000D03*
X47500000Y-54400000D03*
X47500000Y-56000000D03*
X47500000Y-57600000D03*
X52500000Y-54400000D03*
X52500000Y-56000000D03*
X52500000Y-57600000D03*
X65500000Y-45600000D03*
X65500000Y-44000000D03*
X65500000Y-42400000D03*
X60500000Y-45600000D03*
X60500000Y-44000000D03*
X60500000Y-42400000D03*
X34500000Y-54400000D03*
X34500000Y-56000000D03*
X34500000Y-57600000D03*
X39500000Y-54400000D03*
X39500000Y-56000000D03*
X39500000Y-57600000D03*
X78500000Y-45600000D03*
X78500000Y-44000000D03*
X78500000Y-42400000D03*
X73500000Y-45600000D03*
X73500000Y-44000000D03*
X73500000Y-42400000D03*
X21500000Y-54400000D03*
X21500000Y-56000000D03*
X21500000Y-57600000D03*
X26500000Y-54400000D03*
X26500000Y-56000000D03*
X26500000Y-57600000D03*
D30*
X74000000Y-68000000D03*
X26000000Y-32000000D03*
D31*
X50000000Y-72749300D03*
X50000000Y-71250700D03*
D22*
X45400000Y-71250000D03*
X47600000Y-71250000D03*
X40650000Y-72750000D03*
X42850000Y-72750000D03*
M02*
