G04 #@! TF.FileFunction,Copper,L1,Top,Signal*
%FSLAX46Y46*%
G04 Gerber Fmt 4.6, Leading zero omitted, Abs format (unit mm)*
G04 Created by KiCad (PCBNEW 4.0.2-stable) date 2016. 09. 14. 22:41:56*
%MOMM*%
G01*
G04 APERTURE LIST*
%ADD10C,0.100000*%
%ADD11R,0.750000X1.200000*%
%ADD12R,1.200000X0.750000*%
%ADD13R,0.910000X1.220000*%
%ADD14R,1.500000X1.300000*%
%ADD15R,2.032000X2.032000*%
%ADD16O,2.032000X2.032000*%
%ADD17R,0.500380X2.301240*%
%ADD18R,1.998980X2.499360*%
%ADD19O,2.000000X1.500000*%
%ADD20R,1.800860X0.800100*%
%ADD21R,1.200000X0.900000*%
%ADD22R,0.900000X1.200000*%
%ADD23C,2.500000*%
%ADD24C,1.750000*%
%ADD25R,1.560000X0.650000*%
%ADD26R,1.060000X0.650000*%
%ADD27R,0.650000X1.700000*%
%ADD28R,1.600000X1.000000*%
%ADD29C,5.000000*%
%ADD30R,0.797560X0.797560*%
%ADD31C,1.500000*%
%ADD32C,0.500000*%
%ADD33C,1.000000*%
%ADD34C,1.500000*%
%ADD35C,0.350000*%
%ADD36C,0.254000*%
G04 APERTURE END LIST*
D10*
D11*
X42000000Y-34700000D03*
X42000000Y-32800000D03*
X66500000Y-31300000D03*
X66500000Y-33200000D03*
D12*
X48550000Y-74750000D03*
X50450000Y-74750000D03*
X23450000Y-60000000D03*
X21550000Y-60000000D03*
X23200000Y-48250000D03*
X21300000Y-48250000D03*
X76800000Y-51750000D03*
X78700000Y-51750000D03*
X36200000Y-48250000D03*
X34300000Y-48250000D03*
X63800000Y-51750000D03*
X65700000Y-51750000D03*
X49200000Y-48250000D03*
X47300000Y-48250000D03*
X50800000Y-51750000D03*
X52700000Y-51750000D03*
X62200000Y-48250000D03*
X60300000Y-48250000D03*
X37800000Y-51750000D03*
X39700000Y-51750000D03*
X75200000Y-48250000D03*
X73300000Y-48250000D03*
X24800000Y-51500000D03*
X26700000Y-51500000D03*
D13*
X37385000Y-37000000D03*
X34115000Y-37000000D03*
D14*
X71600000Y-31250000D03*
X68900000Y-31250000D03*
D15*
X23000000Y-64000000D03*
D16*
X25540000Y-64000000D03*
D17*
X48399800Y-77550680D03*
X49199900Y-77550680D03*
X50000000Y-77550680D03*
X50800100Y-77550680D03*
X51600200Y-77550680D03*
D18*
X45549920Y-77649740D03*
X45549920Y-83148840D03*
X54450080Y-77649740D03*
X54450080Y-83148840D03*
D19*
X31500000Y-37000000D03*
X31500000Y-34460000D03*
X31500000Y-31920000D03*
X31500000Y-29380000D03*
X31500000Y-26840000D03*
X31500000Y-24300000D03*
D20*
X58001140Y-29200000D03*
X58001140Y-27300000D03*
X54998860Y-28250000D03*
D21*
X39400000Y-37000000D03*
X41600000Y-37000000D03*
X80600000Y-37500000D03*
X78400000Y-37500000D03*
D22*
X61000000Y-28850000D03*
X61000000Y-26650000D03*
D21*
X55400000Y-25250000D03*
X57600000Y-25250000D03*
X51100000Y-25250000D03*
X48900000Y-25250000D03*
X36900000Y-24750000D03*
X39100000Y-24750000D03*
D22*
X74000000Y-35900000D03*
X74000000Y-38100000D03*
D21*
X71350000Y-38250000D03*
X69150000Y-38250000D03*
X28350000Y-37750000D03*
X26150000Y-37750000D03*
D22*
X21750000Y-38850000D03*
X21750000Y-36650000D03*
D23*
X46760000Y-21490000D03*
D24*
X45500000Y-19000000D03*
X41000000Y-19000000D03*
D23*
X39750000Y-21490000D03*
X59760000Y-21490000D03*
D24*
X58500000Y-19000000D03*
X54000000Y-19000000D03*
D23*
X52750000Y-21490000D03*
D25*
X43100000Y-70700000D03*
X43100000Y-69750000D03*
X43100000Y-68800000D03*
X40400000Y-68800000D03*
X40400000Y-70700000D03*
D26*
X69150000Y-33300000D03*
X69150000Y-34250000D03*
X69150000Y-35200000D03*
X71350000Y-35200000D03*
X71350000Y-33300000D03*
X71350000Y-34250000D03*
D27*
X39405000Y-27100000D03*
X38135000Y-27100000D03*
X36865000Y-27100000D03*
X35595000Y-27100000D03*
X35595000Y-34400000D03*
X36865000Y-34400000D03*
X38135000Y-34400000D03*
X39405000Y-34400000D03*
D28*
X26500000Y-45600000D03*
X26500000Y-44000000D03*
X26500000Y-42400000D03*
X21500000Y-45600000D03*
X21500000Y-44000000D03*
X21500000Y-42400000D03*
X73500000Y-54400000D03*
X73500000Y-56000000D03*
X73500000Y-57600000D03*
X78500000Y-54400000D03*
X78500000Y-56000000D03*
X78500000Y-57600000D03*
X39500000Y-45600000D03*
X39500000Y-44000000D03*
X39500000Y-42400000D03*
X34500000Y-45600000D03*
X34500000Y-44000000D03*
X34500000Y-42400000D03*
X60500000Y-54400000D03*
X60500000Y-56000000D03*
X60500000Y-57600000D03*
X65500000Y-54400000D03*
X65500000Y-56000000D03*
X65500000Y-57600000D03*
X52500000Y-45600000D03*
X52500000Y-44000000D03*
X52500000Y-42400000D03*
X47500000Y-45600000D03*
X47500000Y-44000000D03*
X47500000Y-42400000D03*
X47500000Y-54400000D03*
X47500000Y-56000000D03*
X47500000Y-57600000D03*
X52500000Y-54400000D03*
X52500000Y-56000000D03*
X52500000Y-57600000D03*
X65500000Y-45600000D03*
X65500000Y-44000000D03*
X65500000Y-42400000D03*
X60500000Y-45600000D03*
X60500000Y-44000000D03*
X60500000Y-42400000D03*
X34500000Y-54400000D03*
X34500000Y-56000000D03*
X34500000Y-57600000D03*
X39500000Y-54400000D03*
X39500000Y-56000000D03*
X39500000Y-57600000D03*
X78500000Y-45600000D03*
X78500000Y-44000000D03*
X78500000Y-42400000D03*
X73500000Y-45600000D03*
X73500000Y-44000000D03*
X73500000Y-42400000D03*
X21500000Y-54400000D03*
X21500000Y-56000000D03*
X21500000Y-57600000D03*
X26500000Y-54400000D03*
X26500000Y-56000000D03*
X26500000Y-57600000D03*
D29*
X74000000Y-68000000D03*
X26000000Y-32000000D03*
D30*
X50000000Y-72749300D03*
X50000000Y-71250700D03*
D21*
X45400000Y-71250000D03*
X47600000Y-71250000D03*
X40650000Y-72750000D03*
X42850000Y-72750000D03*
D31*
X44500000Y-37000000D03*
X21250000Y-50000000D03*
X68250000Y-22250000D03*
X62500000Y-22250000D03*
D32*
X31500000Y-26840000D02*
X31590000Y-26840000D01*
X31590000Y-26840000D02*
X34750000Y-30000000D01*
X34750000Y-30000000D02*
X39400000Y-30000000D01*
X39400000Y-28700000D02*
X39400000Y-30000000D01*
X39405000Y-27100000D02*
X39405000Y-28700000D01*
X39400000Y-28700000D02*
X39405000Y-28700000D01*
X39400000Y-30000000D02*
X39400000Y-32100000D01*
X39400000Y-32100000D02*
X42000000Y-34700000D01*
X42000000Y-34700000D02*
X42000000Y-36600000D01*
X42000000Y-36600000D02*
X41600000Y-37000000D01*
X43100000Y-69750000D02*
X42000000Y-69750000D01*
X41750000Y-71650000D02*
X42850000Y-72750000D01*
X41750000Y-70000000D02*
X41750000Y-71650000D01*
X42000000Y-69750000D02*
X41750000Y-70000000D01*
D33*
X42750000Y-62000000D02*
X43000000Y-62000000D01*
X23000000Y-62000000D02*
X42750000Y-62000000D01*
X43000000Y-62000000D02*
X50750000Y-69750000D01*
D32*
X50450000Y-74750000D02*
X51600200Y-74750000D01*
X51600200Y-74750000D02*
X51500000Y-74750000D01*
X51500000Y-74750000D02*
X51600200Y-74750000D01*
X43100000Y-69750000D02*
X50750000Y-69750000D01*
X51600200Y-70600200D02*
X51600200Y-74750000D01*
X50750000Y-69750000D02*
X51600200Y-70600200D01*
X51600200Y-74750000D02*
X51600200Y-77550680D01*
D33*
X23000000Y-62000000D02*
X23000000Y-64000000D01*
D32*
X57600000Y-25250000D02*
X57600000Y-19900000D01*
X57600000Y-19900000D02*
X58500000Y-19000000D01*
X69150000Y-34250000D02*
X70250000Y-34250000D01*
X69150000Y-37600000D02*
X69150000Y-38250000D01*
X70250000Y-36500000D02*
X69150000Y-37600000D01*
X70250000Y-34250000D02*
X70250000Y-36500000D01*
X39700000Y-51750000D02*
X39700000Y-50000000D01*
X39750000Y-50250000D02*
X39750000Y-50000000D01*
X39700000Y-50200000D02*
X39750000Y-50250000D01*
X39700000Y-50000000D02*
X39700000Y-50200000D01*
X39500000Y-54400000D02*
X39500000Y-51950000D01*
X39500000Y-51950000D02*
X39700000Y-51750000D01*
X42000000Y-32800000D02*
X44500000Y-35300000D01*
X44500000Y-35300000D02*
X44500000Y-37000000D01*
X44500000Y-37000000D02*
X44850000Y-36650000D01*
X67550000Y-36650000D02*
X69150000Y-38250000D01*
X44850000Y-36650000D02*
X67550000Y-36650000D01*
X61000000Y-26650000D02*
X60850000Y-26500000D01*
X60850000Y-26500000D02*
X58001140Y-26500000D01*
X57600000Y-25250000D02*
X58001140Y-25651140D01*
X58001140Y-25651140D02*
X58001140Y-26500000D01*
X58001140Y-26500000D02*
X58001140Y-27300000D01*
X21550000Y-60000000D02*
X21550000Y-60200000D01*
X21550000Y-60200000D02*
X21250000Y-60500000D01*
X69150000Y-34250000D02*
X67550000Y-34250000D01*
X67550000Y-34250000D02*
X66500000Y-33200000D01*
D33*
X21250000Y-50000000D02*
X19250000Y-52000000D01*
X23000000Y-62250000D02*
X23000000Y-62000000D01*
X19250000Y-58500000D02*
X21250000Y-60500000D01*
X21250000Y-60500000D02*
X23000000Y-62250000D01*
X19250000Y-52000000D02*
X19250000Y-58500000D01*
D32*
X31500000Y-24300000D02*
X34300000Y-27100000D01*
X34300000Y-27100000D02*
X35595000Y-27100000D01*
X26500000Y-54400000D02*
X26700000Y-54200000D01*
X26700000Y-54200000D02*
X26700000Y-50000000D01*
X26700000Y-50000000D02*
X26750000Y-50000000D01*
X39500000Y-54400000D02*
X39700000Y-54200000D01*
X52500000Y-54400000D02*
X52700000Y-54200000D01*
X52700000Y-54200000D02*
X52700000Y-51750000D01*
X52700000Y-51750000D02*
X52700000Y-50000000D01*
X52700000Y-50000000D02*
X52750000Y-50000000D01*
X65500000Y-54400000D02*
X65700000Y-54200000D01*
X65700000Y-54200000D02*
X65700000Y-51750000D01*
X65700000Y-51750000D02*
X65700000Y-50000000D01*
X65700000Y-50000000D02*
X65700000Y-50200000D01*
X65700000Y-50200000D02*
X65750000Y-50250000D01*
X65750000Y-50250000D02*
X65750000Y-50000000D01*
X78700000Y-51750000D02*
X78750000Y-51700000D01*
X78750000Y-51700000D02*
X78750000Y-50000000D01*
X78500000Y-54400000D02*
X78700000Y-54200000D01*
X78700000Y-54200000D02*
X78700000Y-51750000D01*
X73300000Y-48250000D02*
X73250000Y-48300000D01*
X73250000Y-48300000D02*
X73250000Y-50000000D01*
X73500000Y-45600000D02*
X73300000Y-45800000D01*
X73300000Y-45800000D02*
X73300000Y-48250000D01*
X60300000Y-48250000D02*
X60250000Y-48300000D01*
X60250000Y-48300000D02*
X60250000Y-50000000D01*
X60500000Y-45600000D02*
X60300000Y-45800000D01*
X60300000Y-45800000D02*
X60300000Y-48250000D01*
X47300000Y-48250000D02*
X47250000Y-48300000D01*
X47250000Y-48300000D02*
X47250000Y-50000000D01*
X47500000Y-45600000D02*
X47300000Y-45800000D01*
X47300000Y-45800000D02*
X47300000Y-48250000D01*
X34300000Y-48250000D02*
X34250000Y-48300000D01*
X34250000Y-48300000D02*
X34250000Y-50000000D01*
X34500000Y-45600000D02*
X34300000Y-45800000D01*
X34300000Y-45800000D02*
X34300000Y-48250000D01*
D34*
X78750000Y-50000000D02*
X73250000Y-50000000D01*
X73250000Y-50000000D02*
X65750000Y-50000000D01*
X65750000Y-50000000D02*
X60250000Y-50000000D01*
X60250000Y-50000000D02*
X52750000Y-50000000D01*
X52750000Y-50000000D02*
X47250000Y-50000000D01*
X47250000Y-50000000D02*
X39750000Y-50000000D01*
X39750000Y-50000000D02*
X34250000Y-50000000D01*
X34250000Y-50000000D02*
X26750000Y-50000000D01*
X26750000Y-50000000D02*
X21250000Y-50000000D01*
D32*
X21250000Y-50000000D02*
X21250000Y-48300000D01*
X21300000Y-48250000D02*
X21250000Y-48300000D01*
X21500000Y-45600000D02*
X21300000Y-45800000D01*
X21300000Y-45800000D02*
X21300000Y-48250000D01*
X43100000Y-68800000D02*
X43250000Y-68650000D01*
X43250000Y-68650000D02*
X43250000Y-68250000D01*
D33*
X42249403Y-66500001D02*
X43250000Y-67500598D01*
X43250000Y-67500598D02*
X43250000Y-68250000D01*
X25500000Y-66540000D02*
X42249403Y-66500001D01*
X42249403Y-66500001D02*
X42250000Y-66500000D01*
X57500000Y-16750000D02*
X61375000Y-18125000D01*
X70125000Y-26875000D02*
X61375000Y-18125000D01*
X57500000Y-16750000D02*
X45500000Y-16750000D01*
X41750000Y-16750000D02*
X30750000Y-21750000D01*
X23250000Y-29250000D02*
X17250000Y-40750000D01*
X23000000Y-66540000D02*
X25500000Y-66540000D01*
X21290000Y-66540000D02*
X19250000Y-64500000D01*
X19250000Y-64500000D02*
X19250000Y-61000000D01*
X19250000Y-61000000D02*
X17250000Y-59000000D01*
X17250000Y-59000000D02*
X17250000Y-40750000D01*
X23250000Y-29250000D02*
X30750000Y-21750000D01*
X21290000Y-66540000D02*
X23000000Y-66540000D01*
X45500000Y-16750000D02*
X41750000Y-16750000D01*
X25540000Y-64000000D02*
X25540000Y-66540000D01*
X25540000Y-66540000D02*
X25500000Y-66500000D01*
X25500000Y-66500000D02*
X25500000Y-66250000D01*
X25500000Y-66250000D02*
X25500000Y-66540000D01*
D32*
X45500000Y-19000000D02*
X45500000Y-16750000D01*
D33*
X66500000Y-31300000D02*
X66500000Y-30500000D01*
X66500000Y-30500000D02*
X70125000Y-26875000D01*
X71600000Y-28350000D02*
X71600000Y-31250000D01*
X70125000Y-26875000D02*
X71600000Y-28350000D01*
D32*
X71600000Y-31250000D02*
X71600000Y-33050000D01*
X71600000Y-33050000D02*
X71350000Y-33300000D01*
X48550000Y-74750000D02*
X48550000Y-74199300D01*
X48550000Y-74199300D02*
X50000000Y-72749300D01*
D33*
X48550000Y-74750000D02*
X39250000Y-74750000D01*
X39250000Y-74750000D02*
X38000000Y-73500000D01*
X38000000Y-73500000D02*
X38000000Y-69750000D01*
X38000000Y-69750000D02*
X38950000Y-68800000D01*
X38950000Y-68800000D02*
X40400000Y-68800000D01*
D32*
X78250000Y-62750000D02*
X78250000Y-68750000D01*
X50250000Y-81250000D02*
X48399800Y-79399800D01*
X48399800Y-77550680D02*
X48399800Y-79399800D01*
X80600000Y-39600000D02*
X80600000Y-37500000D01*
X84000000Y-43000000D02*
X80600000Y-39600000D01*
X84000000Y-57000000D02*
X84000000Y-43000000D01*
X84000000Y-57000000D02*
X78250000Y-62750000D01*
X62750000Y-81250000D02*
X50250000Y-81250000D01*
X65500000Y-78500000D02*
X62750000Y-81250000D01*
X68500000Y-78500000D02*
X65500000Y-78500000D01*
X78250000Y-68750000D02*
X68500000Y-78500000D01*
X48550000Y-74750000D02*
X48550000Y-74450000D01*
X48399800Y-77550680D02*
X48399800Y-74900200D01*
X48399800Y-74900200D02*
X48550000Y-74750000D01*
X39400000Y-37000000D02*
X39400000Y-39900000D01*
X39400000Y-39900000D02*
X39500000Y-40000000D01*
X39405000Y-34400000D02*
X39405000Y-36995000D01*
X39405000Y-36995000D02*
X39400000Y-37000000D01*
D33*
X74000000Y-35900000D02*
X75400000Y-35900000D01*
X76000000Y-36500000D02*
X76000000Y-40000000D01*
X75400000Y-35900000D02*
X76000000Y-36500000D01*
D32*
X23450000Y-60000000D02*
X24000000Y-60000000D01*
X71350000Y-34250000D02*
X72350000Y-34250000D01*
X72350000Y-34250000D02*
X74000000Y-35900000D01*
X26500000Y-45600000D02*
X24750000Y-45600000D01*
X24750000Y-45600000D02*
X24750000Y-45750000D01*
X24750000Y-40000000D02*
X24750000Y-45750000D01*
D34*
X37000000Y-40000000D02*
X24750000Y-40000000D01*
D32*
X24750000Y-45750000D02*
X24750000Y-46700000D01*
X24750000Y-46700000D02*
X23200000Y-48250000D01*
D33*
X37385000Y-37000000D02*
X37385000Y-39615000D01*
X37385000Y-39615000D02*
X37000000Y-40000000D01*
D32*
X21500000Y-54400000D02*
X21650000Y-54250000D01*
X21650000Y-54250000D02*
X24000000Y-54250000D01*
X34500000Y-54400000D02*
X34650000Y-54250000D01*
X34650000Y-54250000D02*
X37000000Y-54250000D01*
X47500000Y-54400000D02*
X47650000Y-54250000D01*
X47650000Y-54250000D02*
X50000000Y-54250000D01*
X60500000Y-54400000D02*
X60650000Y-54250000D01*
X60650000Y-54250000D02*
X63000000Y-54250000D01*
X73500000Y-54400000D02*
X73650000Y-54250000D01*
X73650000Y-54250000D02*
X76000000Y-54250000D01*
X78500000Y-45600000D02*
X78350000Y-45750000D01*
X78350000Y-45750000D02*
X76000000Y-45750000D01*
X65500000Y-45600000D02*
X65350000Y-45750000D01*
X65350000Y-45750000D02*
X63000000Y-45750000D01*
X52500000Y-45600000D02*
X52350000Y-45750000D01*
X52350000Y-45750000D02*
X50000000Y-45750000D01*
X39500000Y-45600000D02*
X39350000Y-45750000D01*
X39350000Y-45750000D02*
X37000000Y-45750000D01*
X76800000Y-51750000D02*
X76000000Y-52550000D01*
X76000000Y-52550000D02*
X76000000Y-54250000D01*
X76000000Y-54250000D02*
X76000000Y-60000000D01*
X63800000Y-51750000D02*
X63000000Y-52550000D01*
X63000000Y-52550000D02*
X63000000Y-54250000D01*
X63000000Y-54250000D02*
X63000000Y-60000000D01*
X50800000Y-51750000D02*
X50000000Y-52550000D01*
X50000000Y-52550000D02*
X50000000Y-54250000D01*
X50000000Y-54250000D02*
X50000000Y-60000000D01*
X37800000Y-51750000D02*
X37000000Y-52550000D01*
X37000000Y-52550000D02*
X37000000Y-54250000D01*
X37000000Y-54250000D02*
X37000000Y-60000000D01*
X24000000Y-60000000D02*
X24000000Y-54250000D01*
X24000000Y-54250000D02*
X24000000Y-52300000D01*
D34*
X76000000Y-40000000D02*
X79000000Y-40000000D01*
X82750000Y-43750000D02*
X79000000Y-40000000D01*
X82750000Y-43750000D02*
X82750000Y-56250000D01*
X82750000Y-56250000D02*
X79000000Y-60000000D01*
X76000000Y-60000000D02*
X79000000Y-60000000D01*
X24000000Y-60000000D02*
X37000000Y-60000000D01*
X37000000Y-60000000D02*
X50000000Y-60000000D01*
X50000000Y-60000000D02*
X63000000Y-60000000D01*
X63000000Y-60000000D02*
X76000000Y-60000000D01*
D32*
X24000000Y-52300000D02*
X24800000Y-51500000D01*
X75200000Y-48250000D02*
X76000000Y-47450000D01*
X76000000Y-47450000D02*
X76000000Y-45750000D01*
X76000000Y-45750000D02*
X76000000Y-40000000D01*
X62200000Y-48250000D02*
X63000000Y-47450000D01*
X63000000Y-47450000D02*
X63000000Y-45750000D01*
X63000000Y-45750000D02*
X63000000Y-40000000D01*
X49200000Y-48250000D02*
X50000000Y-47450000D01*
X50000000Y-47450000D02*
X50000000Y-45750000D01*
X50000000Y-45750000D02*
X50000000Y-40000000D01*
X36200000Y-48250000D02*
X37000000Y-47450000D01*
X37000000Y-47450000D02*
X37000000Y-45750000D01*
X37000000Y-45750000D02*
X37000000Y-40000000D01*
D34*
X76000000Y-40000000D02*
X63000000Y-40000000D01*
X63000000Y-40000000D02*
X56750000Y-40000000D01*
X56750000Y-40000000D02*
X50000000Y-40000000D01*
X50000000Y-40000000D02*
X45750000Y-40000000D01*
X44100000Y-40000000D02*
X39500000Y-40000000D01*
X45750000Y-40000000D02*
X44100000Y-40000000D01*
X39500000Y-40000000D02*
X37000000Y-40000000D01*
D32*
X26500000Y-45600000D02*
X26350000Y-45750000D01*
D33*
X31500000Y-37000000D02*
X33365000Y-37000000D01*
X33365000Y-37000000D02*
X34115000Y-37000000D01*
D32*
X68900000Y-31250000D02*
X68900000Y-33050000D01*
X68900000Y-33050000D02*
X69150000Y-33300000D01*
X31500000Y-34460000D02*
X31500000Y-34600000D01*
X31500000Y-34600000D02*
X28350000Y-37750000D01*
X31500000Y-34460000D02*
X35535000Y-34460000D01*
D35*
X35535000Y-34460000D02*
X35595000Y-34400000D01*
D32*
X31290000Y-34250000D02*
X31500000Y-34460000D01*
X31500000Y-34460000D02*
X31500000Y-34250000D01*
X31500000Y-31920000D02*
X35920000Y-31920000D01*
X35920000Y-31920000D02*
X36865000Y-32865000D01*
X36865000Y-32865000D02*
X36865000Y-34400000D01*
X31500000Y-31920000D02*
X31580000Y-31920000D01*
X21750000Y-36650000D02*
X28100000Y-36650000D01*
X29750000Y-31130000D02*
X31500000Y-29380000D01*
X29750000Y-35000000D02*
X29750000Y-31130000D01*
X28100000Y-36650000D02*
X29750000Y-35000000D01*
X31500000Y-29380000D02*
X33120000Y-31000000D01*
X38135000Y-32635000D02*
X38135000Y-34400000D01*
X36500000Y-31000000D02*
X38135000Y-32635000D01*
X33120000Y-31000000D02*
X36500000Y-31000000D01*
X31380000Y-29500000D02*
X31500000Y-29380000D01*
X61000000Y-28850000D02*
X61900000Y-28850000D01*
X78400000Y-32400000D02*
X78400000Y-37500000D01*
X68250000Y-22250000D02*
X78400000Y-32400000D01*
X62500000Y-28250000D02*
X62500000Y-22250000D01*
X61900000Y-28850000D02*
X62500000Y-28250000D01*
X58001140Y-29200000D02*
X60650000Y-29200000D01*
X60650000Y-29200000D02*
X61000000Y-28850000D01*
X55400000Y-25250000D02*
X55400000Y-20400000D01*
X55400000Y-20400000D02*
X54000000Y-19000000D01*
X54998860Y-28250000D02*
X54998860Y-31998860D01*
X58200000Y-35200000D02*
X69150000Y-35200000D01*
X54998860Y-31998860D02*
X58200000Y-35200000D01*
X39100000Y-24750000D02*
X44500000Y-24750000D01*
X51100000Y-26150000D02*
X51100000Y-25250000D01*
X50000000Y-27250000D02*
X51100000Y-26150000D01*
X47000000Y-27250000D02*
X50000000Y-27250000D01*
X44500000Y-24750000D02*
X47000000Y-27250000D01*
X54250000Y-25250000D02*
X51100000Y-25250000D01*
X55400000Y-25250000D02*
X54500000Y-25250000D01*
X54500000Y-25250000D02*
X54250000Y-25250000D01*
X54250000Y-25250000D02*
X54500000Y-25250000D01*
X54500000Y-25250000D02*
X54500000Y-27751140D01*
X54500000Y-27751140D02*
X54998860Y-28250000D01*
X48900000Y-25250000D02*
X47250000Y-25250000D01*
X47250000Y-25250000D02*
X41000000Y-19000000D01*
X36865000Y-27100000D02*
X36865000Y-24785000D01*
X36865000Y-24785000D02*
X36900000Y-24750000D01*
X71350000Y-38250000D02*
X73850000Y-38250000D01*
X73850000Y-38250000D02*
X74000000Y-38100000D01*
X71350000Y-35200000D02*
X71350000Y-38250000D01*
X26150000Y-37750000D02*
X25000000Y-37750000D01*
X21500000Y-41250000D02*
X21500000Y-42400000D01*
X25000000Y-37750000D02*
X21500000Y-41250000D01*
X21750000Y-38850000D02*
X21750000Y-39750000D01*
X20250000Y-44000000D02*
X21500000Y-44000000D01*
X20000000Y-43750000D02*
X20250000Y-44000000D01*
X20000000Y-41500000D02*
X20000000Y-43750000D01*
X21750000Y-39750000D02*
X20000000Y-41500000D01*
X26500000Y-44000000D02*
X34500000Y-44000000D01*
X26500000Y-42400000D02*
X34500000Y-42400000D01*
X65500000Y-56000000D02*
X73500000Y-56000000D01*
X73500000Y-57600000D02*
X65500000Y-57600000D01*
X78500000Y-44000000D02*
X79500000Y-44000000D01*
X79500000Y-56000000D02*
X78500000Y-56000000D01*
X80250000Y-55250000D02*
X79500000Y-56000000D01*
X80250000Y-44750000D02*
X80250000Y-55250000D01*
X79500000Y-44000000D02*
X80250000Y-44750000D01*
X78500000Y-42400000D02*
X79400000Y-42400000D01*
X79400000Y-57600000D02*
X78500000Y-57600000D01*
X81250000Y-55750000D02*
X79400000Y-57600000D01*
X81250000Y-44250000D02*
X81250000Y-55750000D01*
X79400000Y-42400000D02*
X81250000Y-44250000D01*
X39500000Y-44000000D02*
X47500000Y-44000000D01*
X39500000Y-42400000D02*
X47500000Y-42400000D01*
X52500000Y-56000000D02*
X60500000Y-56000000D01*
X60500000Y-57600000D02*
X52500000Y-57600000D01*
X52500000Y-44000000D02*
X60500000Y-44000000D01*
X52500000Y-42400000D02*
X60500000Y-42400000D01*
X39500000Y-56000000D02*
X47500000Y-56000000D01*
X47500000Y-57600000D02*
X39500000Y-57600000D01*
X65500000Y-44000000D02*
X73500000Y-44000000D01*
X65500000Y-42400000D02*
X73500000Y-42400000D01*
X26500000Y-56000000D02*
X34500000Y-56000000D01*
X34500000Y-57600000D02*
X26500000Y-57600000D01*
X47600000Y-71250000D02*
X49999300Y-71250000D01*
X49999300Y-71250000D02*
X50000000Y-71250700D01*
X43100000Y-70700000D02*
X44850000Y-70700000D01*
X44850000Y-70700000D02*
X45400000Y-71250000D01*
X40400000Y-70700000D02*
X40400000Y-72500000D01*
X40400000Y-72500000D02*
X40650000Y-72750000D01*
D36*
G36*
X20652560Y-37250000D02*
X20696838Y-37485317D01*
X20835910Y-37701441D01*
X20905711Y-37749134D01*
X20848559Y-37785910D01*
X20703569Y-37998110D01*
X20652560Y-38250000D01*
X20652560Y-39450000D01*
X20675659Y-39572762D01*
X19374210Y-40874210D01*
X19182367Y-41161325D01*
X19182367Y-41161326D01*
X19114999Y-41500000D01*
X19115000Y-41500005D01*
X19115000Y-43749995D01*
X19114999Y-43750000D01*
X19151275Y-43932367D01*
X19182367Y-44088675D01*
X19310216Y-44280016D01*
X19374210Y-44375790D01*
X19624208Y-44625787D01*
X19624210Y-44625790D01*
X19911325Y-44817633D01*
X20113023Y-44857753D01*
X20065000Y-44973690D01*
X20065000Y-45314250D01*
X20223750Y-45473000D01*
X21373000Y-45473000D01*
X21373000Y-45453000D01*
X21627000Y-45453000D01*
X21627000Y-45473000D01*
X22776250Y-45473000D01*
X22935000Y-45314250D01*
X22935000Y-44973690D01*
X22863245Y-44800459D01*
X22896431Y-44751890D01*
X22947440Y-44500000D01*
X22947440Y-43500000D01*
X22903162Y-43264683D01*
X22862519Y-43201522D01*
X22896431Y-43151890D01*
X22947440Y-42900000D01*
X22947440Y-41900000D01*
X22903162Y-41664683D01*
X22764090Y-41448559D01*
X22638698Y-41362882D01*
X23470882Y-40530698D01*
X23770657Y-40979343D01*
X23865000Y-41042381D01*
X23865000Y-46333421D01*
X22970860Y-47227560D01*
X22600000Y-47227560D01*
X22364683Y-47271838D01*
X22261354Y-47338329D01*
X22259698Y-47336673D01*
X22026309Y-47240000D01*
X21585750Y-47240000D01*
X21427000Y-47398750D01*
X21427000Y-48123000D01*
X21447000Y-48123000D01*
X21447000Y-48377000D01*
X21427000Y-48377000D01*
X21427000Y-49101250D01*
X21585750Y-49260000D01*
X22026309Y-49260000D01*
X22259698Y-49163327D01*
X22261068Y-49161957D01*
X22348110Y-49221431D01*
X22600000Y-49272440D01*
X23800000Y-49272440D01*
X24035317Y-49228162D01*
X24251441Y-49089090D01*
X24396431Y-48876890D01*
X24447440Y-48625000D01*
X24447440Y-48535750D01*
X33065000Y-48535750D01*
X33065000Y-48751310D01*
X33161673Y-48984699D01*
X33340302Y-49163327D01*
X33573691Y-49260000D01*
X34014250Y-49260000D01*
X34173000Y-49101250D01*
X34173000Y-48377000D01*
X33223750Y-48377000D01*
X33065000Y-48535750D01*
X24447440Y-48535750D01*
X24447440Y-48254140D01*
X24952889Y-47748690D01*
X33065000Y-47748690D01*
X33065000Y-47964250D01*
X33223750Y-48123000D01*
X34173000Y-48123000D01*
X34173000Y-47398750D01*
X34014250Y-47240000D01*
X33573691Y-47240000D01*
X33340302Y-47336673D01*
X33161673Y-47515301D01*
X33065000Y-47748690D01*
X24952889Y-47748690D01*
X25375787Y-47325792D01*
X25375790Y-47325790D01*
X25567633Y-47038675D01*
X25578810Y-46982484D01*
X25628447Y-46732950D01*
X25700000Y-46747440D01*
X27300000Y-46747440D01*
X27535317Y-46703162D01*
X27751441Y-46564090D01*
X27896431Y-46351890D01*
X27947440Y-46100000D01*
X27947440Y-45885750D01*
X33065000Y-45885750D01*
X33065000Y-46226310D01*
X33161673Y-46459699D01*
X33340302Y-46638327D01*
X33573691Y-46735000D01*
X34214250Y-46735000D01*
X34373000Y-46576250D01*
X34373000Y-45727000D01*
X34627000Y-45727000D01*
X34627000Y-46576250D01*
X34785750Y-46735000D01*
X35426309Y-46735000D01*
X35659698Y-46638327D01*
X35838327Y-46459699D01*
X35935000Y-46226310D01*
X35935000Y-45885750D01*
X35776250Y-45727000D01*
X34627000Y-45727000D01*
X34373000Y-45727000D01*
X33223750Y-45727000D01*
X33065000Y-45885750D01*
X27947440Y-45885750D01*
X27947440Y-45100000D01*
X27906985Y-44885000D01*
X33101737Y-44885000D01*
X33065000Y-44973690D01*
X33065000Y-45314250D01*
X33223750Y-45473000D01*
X34373000Y-45473000D01*
X34373000Y-45453000D01*
X34627000Y-45453000D01*
X34627000Y-45473000D01*
X35776250Y-45473000D01*
X35935000Y-45314250D01*
X35935000Y-44973690D01*
X35863245Y-44800459D01*
X35896431Y-44751890D01*
X35947440Y-44500000D01*
X35947440Y-43500000D01*
X35903162Y-43264683D01*
X35862519Y-43201522D01*
X35896431Y-43151890D01*
X35947440Y-42900000D01*
X35947440Y-41900000D01*
X35903162Y-41664683D01*
X35764090Y-41448559D01*
X35671068Y-41385000D01*
X36115000Y-41385000D01*
X36115000Y-47083421D01*
X35970860Y-47227560D01*
X35600000Y-47227560D01*
X35364683Y-47271838D01*
X35261354Y-47338329D01*
X35259698Y-47336673D01*
X35026309Y-47240000D01*
X34585750Y-47240000D01*
X34427000Y-47398750D01*
X34427000Y-48123000D01*
X34447000Y-48123000D01*
X34447000Y-48377000D01*
X34427000Y-48377000D01*
X34427000Y-49101250D01*
X34585750Y-49260000D01*
X35026309Y-49260000D01*
X35259698Y-49163327D01*
X35261068Y-49161957D01*
X35348110Y-49221431D01*
X35600000Y-49272440D01*
X36800000Y-49272440D01*
X37035317Y-49228162D01*
X37251441Y-49089090D01*
X37396431Y-48876890D01*
X37447440Y-48625000D01*
X37447440Y-48535750D01*
X46065000Y-48535750D01*
X46065000Y-48751310D01*
X46161673Y-48984699D01*
X46340302Y-49163327D01*
X46573691Y-49260000D01*
X47014250Y-49260000D01*
X47173000Y-49101250D01*
X47173000Y-48377000D01*
X46223750Y-48377000D01*
X46065000Y-48535750D01*
X37447440Y-48535750D01*
X37447440Y-48254139D01*
X37625787Y-48075792D01*
X37625790Y-48075790D01*
X37817633Y-47788675D01*
X37825586Y-47748690D01*
X46065000Y-47748690D01*
X46065000Y-47964250D01*
X46223750Y-48123000D01*
X47173000Y-48123000D01*
X47173000Y-47398750D01*
X47014250Y-47240000D01*
X46573691Y-47240000D01*
X46340302Y-47336673D01*
X46161673Y-47515301D01*
X46065000Y-47748690D01*
X37825586Y-47748690D01*
X37847270Y-47639683D01*
X37885001Y-47450000D01*
X37885000Y-47449995D01*
X37885000Y-46635000D01*
X38358203Y-46635000D01*
X38448110Y-46696431D01*
X38700000Y-46747440D01*
X40300000Y-46747440D01*
X40535317Y-46703162D01*
X40751441Y-46564090D01*
X40896431Y-46351890D01*
X40947440Y-46100000D01*
X40947440Y-45885750D01*
X46065000Y-45885750D01*
X46065000Y-46226310D01*
X46161673Y-46459699D01*
X46340302Y-46638327D01*
X46573691Y-46735000D01*
X47214250Y-46735000D01*
X47373000Y-46576250D01*
X47373000Y-45727000D01*
X47627000Y-45727000D01*
X47627000Y-46576250D01*
X47785750Y-46735000D01*
X48426309Y-46735000D01*
X48659698Y-46638327D01*
X48838327Y-46459699D01*
X48935000Y-46226310D01*
X48935000Y-45885750D01*
X48776250Y-45727000D01*
X47627000Y-45727000D01*
X47373000Y-45727000D01*
X46223750Y-45727000D01*
X46065000Y-45885750D01*
X40947440Y-45885750D01*
X40947440Y-45100000D01*
X40906985Y-44885000D01*
X46101737Y-44885000D01*
X46065000Y-44973690D01*
X46065000Y-45314250D01*
X46223750Y-45473000D01*
X47373000Y-45473000D01*
X47373000Y-45453000D01*
X47627000Y-45453000D01*
X47627000Y-45473000D01*
X48776250Y-45473000D01*
X48935000Y-45314250D01*
X48935000Y-44973690D01*
X48863245Y-44800459D01*
X48896431Y-44751890D01*
X48947440Y-44500000D01*
X48947440Y-43500000D01*
X48903162Y-43264683D01*
X48862519Y-43201522D01*
X48896431Y-43151890D01*
X48947440Y-42900000D01*
X48947440Y-41900000D01*
X48903162Y-41664683D01*
X48764090Y-41448559D01*
X48671068Y-41385000D01*
X49115000Y-41385000D01*
X49115000Y-47083421D01*
X48970860Y-47227560D01*
X48600000Y-47227560D01*
X48364683Y-47271838D01*
X48261354Y-47338329D01*
X48259698Y-47336673D01*
X48026309Y-47240000D01*
X47585750Y-47240000D01*
X47427000Y-47398750D01*
X47427000Y-48123000D01*
X47447000Y-48123000D01*
X47447000Y-48377000D01*
X47427000Y-48377000D01*
X47427000Y-49101250D01*
X47585750Y-49260000D01*
X48026309Y-49260000D01*
X48259698Y-49163327D01*
X48261068Y-49161957D01*
X48348110Y-49221431D01*
X48600000Y-49272440D01*
X49800000Y-49272440D01*
X50035317Y-49228162D01*
X50251441Y-49089090D01*
X50396431Y-48876890D01*
X50447440Y-48625000D01*
X50447440Y-48535750D01*
X59065000Y-48535750D01*
X59065000Y-48751310D01*
X59161673Y-48984699D01*
X59340302Y-49163327D01*
X59573691Y-49260000D01*
X60014250Y-49260000D01*
X60173000Y-49101250D01*
X60173000Y-48377000D01*
X59223750Y-48377000D01*
X59065000Y-48535750D01*
X50447440Y-48535750D01*
X50447440Y-48254139D01*
X50625787Y-48075792D01*
X50625790Y-48075790D01*
X50817633Y-47788675D01*
X50825586Y-47748690D01*
X59065000Y-47748690D01*
X59065000Y-47964250D01*
X59223750Y-48123000D01*
X60173000Y-48123000D01*
X60173000Y-47398750D01*
X60014250Y-47240000D01*
X59573691Y-47240000D01*
X59340302Y-47336673D01*
X59161673Y-47515301D01*
X59065000Y-47748690D01*
X50825586Y-47748690D01*
X50847270Y-47639683D01*
X50885001Y-47450000D01*
X50885000Y-47449995D01*
X50885000Y-46635000D01*
X51358203Y-46635000D01*
X51448110Y-46696431D01*
X51700000Y-46747440D01*
X53300000Y-46747440D01*
X53535317Y-46703162D01*
X53751441Y-46564090D01*
X53896431Y-46351890D01*
X53947440Y-46100000D01*
X53947440Y-45885750D01*
X59065000Y-45885750D01*
X59065000Y-46226310D01*
X59161673Y-46459699D01*
X59340302Y-46638327D01*
X59573691Y-46735000D01*
X60214250Y-46735000D01*
X60373000Y-46576250D01*
X60373000Y-45727000D01*
X60627000Y-45727000D01*
X60627000Y-46576250D01*
X60785750Y-46735000D01*
X61426309Y-46735000D01*
X61659698Y-46638327D01*
X61838327Y-46459699D01*
X61935000Y-46226310D01*
X61935000Y-45885750D01*
X61776250Y-45727000D01*
X60627000Y-45727000D01*
X60373000Y-45727000D01*
X59223750Y-45727000D01*
X59065000Y-45885750D01*
X53947440Y-45885750D01*
X53947440Y-45100000D01*
X53906985Y-44885000D01*
X59101737Y-44885000D01*
X59065000Y-44973690D01*
X59065000Y-45314250D01*
X59223750Y-45473000D01*
X60373000Y-45473000D01*
X60373000Y-45453000D01*
X60627000Y-45453000D01*
X60627000Y-45473000D01*
X61776250Y-45473000D01*
X61935000Y-45314250D01*
X61935000Y-44973690D01*
X61863245Y-44800459D01*
X61896431Y-44751890D01*
X61947440Y-44500000D01*
X61947440Y-43500000D01*
X61903162Y-43264683D01*
X61862519Y-43201522D01*
X61896431Y-43151890D01*
X61947440Y-42900000D01*
X61947440Y-41900000D01*
X61903162Y-41664683D01*
X61764090Y-41448559D01*
X61671068Y-41385000D01*
X62115000Y-41385000D01*
X62115000Y-47083421D01*
X61970860Y-47227560D01*
X61600000Y-47227560D01*
X61364683Y-47271838D01*
X61261354Y-47338329D01*
X61259698Y-47336673D01*
X61026309Y-47240000D01*
X60585750Y-47240000D01*
X60427000Y-47398750D01*
X60427000Y-48123000D01*
X60447000Y-48123000D01*
X60447000Y-48377000D01*
X60427000Y-48377000D01*
X60427000Y-49101250D01*
X60585750Y-49260000D01*
X61026309Y-49260000D01*
X61259698Y-49163327D01*
X61261068Y-49161957D01*
X61348110Y-49221431D01*
X61600000Y-49272440D01*
X62800000Y-49272440D01*
X63035317Y-49228162D01*
X63251441Y-49089090D01*
X63396431Y-48876890D01*
X63447440Y-48625000D01*
X63447440Y-48535750D01*
X72065000Y-48535750D01*
X72065000Y-48751310D01*
X72161673Y-48984699D01*
X72340302Y-49163327D01*
X72573691Y-49260000D01*
X73014250Y-49260000D01*
X73173000Y-49101250D01*
X73173000Y-48377000D01*
X72223750Y-48377000D01*
X72065000Y-48535750D01*
X63447440Y-48535750D01*
X63447440Y-48254139D01*
X63625787Y-48075792D01*
X63625790Y-48075790D01*
X63817633Y-47788675D01*
X63825586Y-47748690D01*
X72065000Y-47748690D01*
X72065000Y-47964250D01*
X72223750Y-48123000D01*
X73173000Y-48123000D01*
X73173000Y-47398750D01*
X73014250Y-47240000D01*
X72573691Y-47240000D01*
X72340302Y-47336673D01*
X72161673Y-47515301D01*
X72065000Y-47748690D01*
X63825586Y-47748690D01*
X63847270Y-47639683D01*
X63885001Y-47450000D01*
X63885000Y-47449995D01*
X63885000Y-46635000D01*
X64358203Y-46635000D01*
X64448110Y-46696431D01*
X64700000Y-46747440D01*
X66300000Y-46747440D01*
X66535317Y-46703162D01*
X66751441Y-46564090D01*
X66896431Y-46351890D01*
X66947440Y-46100000D01*
X66947440Y-45885750D01*
X72065000Y-45885750D01*
X72065000Y-46226310D01*
X72161673Y-46459699D01*
X72340302Y-46638327D01*
X72573691Y-46735000D01*
X73214250Y-46735000D01*
X73373000Y-46576250D01*
X73373000Y-45727000D01*
X73627000Y-45727000D01*
X73627000Y-46576250D01*
X73785750Y-46735000D01*
X74426309Y-46735000D01*
X74659698Y-46638327D01*
X74838327Y-46459699D01*
X74935000Y-46226310D01*
X74935000Y-45885750D01*
X74776250Y-45727000D01*
X73627000Y-45727000D01*
X73373000Y-45727000D01*
X72223750Y-45727000D01*
X72065000Y-45885750D01*
X66947440Y-45885750D01*
X66947440Y-45100000D01*
X66906985Y-44885000D01*
X72101737Y-44885000D01*
X72065000Y-44973690D01*
X72065000Y-45314250D01*
X72223750Y-45473000D01*
X73373000Y-45473000D01*
X73373000Y-45453000D01*
X73627000Y-45453000D01*
X73627000Y-45473000D01*
X74776250Y-45473000D01*
X74935000Y-45314250D01*
X74935000Y-44973690D01*
X74863245Y-44800459D01*
X74896431Y-44751890D01*
X74947440Y-44500000D01*
X74947440Y-43500000D01*
X74903162Y-43264683D01*
X74862519Y-43201522D01*
X74896431Y-43151890D01*
X74947440Y-42900000D01*
X74947440Y-41900000D01*
X74903162Y-41664683D01*
X74764090Y-41448559D01*
X74671068Y-41385000D01*
X75115000Y-41385000D01*
X75115000Y-47083421D01*
X74970860Y-47227560D01*
X74600000Y-47227560D01*
X74364683Y-47271838D01*
X74261354Y-47338329D01*
X74259698Y-47336673D01*
X74026309Y-47240000D01*
X73585750Y-47240000D01*
X73427000Y-47398750D01*
X73427000Y-48123000D01*
X73447000Y-48123000D01*
X73447000Y-48377000D01*
X73427000Y-48377000D01*
X73427000Y-49101250D01*
X73585750Y-49260000D01*
X74026309Y-49260000D01*
X74259698Y-49163327D01*
X74261068Y-49161957D01*
X74348110Y-49221431D01*
X74600000Y-49272440D01*
X75800000Y-49272440D01*
X76035317Y-49228162D01*
X76251441Y-49089090D01*
X76396431Y-48876890D01*
X76447440Y-48625000D01*
X76447440Y-48254139D01*
X76625787Y-48075792D01*
X76625790Y-48075790D01*
X76817633Y-47788675D01*
X76847270Y-47639683D01*
X76885001Y-47450000D01*
X76885000Y-47449995D01*
X76885000Y-46635000D01*
X77358203Y-46635000D01*
X77448110Y-46696431D01*
X77700000Y-46747440D01*
X79300000Y-46747440D01*
X79365000Y-46735209D01*
X79365000Y-50740000D01*
X78985750Y-50740000D01*
X78827000Y-50898750D01*
X78827000Y-51623000D01*
X78847000Y-51623000D01*
X78847000Y-51877000D01*
X78827000Y-51877000D01*
X78827000Y-52601250D01*
X78985750Y-52760000D01*
X79365000Y-52760000D01*
X79365000Y-53265000D01*
X78785750Y-53265000D01*
X78627000Y-53423750D01*
X78627000Y-54273000D01*
X78647000Y-54273000D01*
X78647000Y-54527000D01*
X78627000Y-54527000D01*
X78627000Y-54547000D01*
X78373000Y-54547000D01*
X78373000Y-54527000D01*
X77223750Y-54527000D01*
X77065000Y-54685750D01*
X77065000Y-55026310D01*
X77136755Y-55199541D01*
X77103569Y-55248110D01*
X77052560Y-55500000D01*
X77052560Y-56500000D01*
X77096838Y-56735317D01*
X77137481Y-56798478D01*
X77103569Y-56848110D01*
X77052560Y-57100000D01*
X77052560Y-58100000D01*
X77096838Y-58335317D01*
X77235910Y-58551441D01*
X77328932Y-58615000D01*
X76885000Y-58615000D01*
X76885000Y-53773690D01*
X77065000Y-53773690D01*
X77065000Y-54114250D01*
X77223750Y-54273000D01*
X78373000Y-54273000D01*
X78373000Y-53423750D01*
X78214250Y-53265000D01*
X77573691Y-53265000D01*
X77340302Y-53361673D01*
X77161673Y-53540301D01*
X77065000Y-53773690D01*
X76885000Y-53773690D01*
X76885000Y-52916580D01*
X77029139Y-52772440D01*
X77400000Y-52772440D01*
X77635317Y-52728162D01*
X77738646Y-52661671D01*
X77740302Y-52663327D01*
X77973691Y-52760000D01*
X78414250Y-52760000D01*
X78573000Y-52601250D01*
X78573000Y-51877000D01*
X78553000Y-51877000D01*
X78553000Y-51623000D01*
X78573000Y-51623000D01*
X78573000Y-50898750D01*
X78414250Y-50740000D01*
X77973691Y-50740000D01*
X77740302Y-50836673D01*
X77738932Y-50838043D01*
X77651890Y-50778569D01*
X77400000Y-50727560D01*
X76200000Y-50727560D01*
X75964683Y-50771838D01*
X75748559Y-50910910D01*
X75603569Y-51123110D01*
X75552560Y-51375000D01*
X75552560Y-51745860D01*
X75374210Y-51924210D01*
X75182367Y-52211325D01*
X75171190Y-52267516D01*
X75114999Y-52550000D01*
X75115000Y-52550005D01*
X75115000Y-53365000D01*
X74641797Y-53365000D01*
X74551890Y-53303569D01*
X74300000Y-53252560D01*
X72700000Y-53252560D01*
X72464683Y-53296838D01*
X72248559Y-53435910D01*
X72103569Y-53648110D01*
X72052560Y-53900000D01*
X72052560Y-54900000D01*
X72093015Y-55115000D01*
X66898263Y-55115000D01*
X66935000Y-55026310D01*
X66935000Y-54685750D01*
X66776250Y-54527000D01*
X65627000Y-54527000D01*
X65627000Y-54547000D01*
X65373000Y-54547000D01*
X65373000Y-54527000D01*
X64223750Y-54527000D01*
X64065000Y-54685750D01*
X64065000Y-55026310D01*
X64136755Y-55199541D01*
X64103569Y-55248110D01*
X64052560Y-55500000D01*
X64052560Y-56500000D01*
X64096838Y-56735317D01*
X64137481Y-56798478D01*
X64103569Y-56848110D01*
X64052560Y-57100000D01*
X64052560Y-58100000D01*
X64096838Y-58335317D01*
X64235910Y-58551441D01*
X64328932Y-58615000D01*
X63885000Y-58615000D01*
X63885000Y-53773690D01*
X64065000Y-53773690D01*
X64065000Y-54114250D01*
X64223750Y-54273000D01*
X65373000Y-54273000D01*
X65373000Y-53423750D01*
X65627000Y-53423750D01*
X65627000Y-54273000D01*
X66776250Y-54273000D01*
X66935000Y-54114250D01*
X66935000Y-53773690D01*
X66838327Y-53540301D01*
X66659698Y-53361673D01*
X66426309Y-53265000D01*
X65785750Y-53265000D01*
X65627000Y-53423750D01*
X65373000Y-53423750D01*
X65214250Y-53265000D01*
X64573691Y-53265000D01*
X64340302Y-53361673D01*
X64161673Y-53540301D01*
X64065000Y-53773690D01*
X63885000Y-53773690D01*
X63885000Y-52916580D01*
X64029139Y-52772440D01*
X64400000Y-52772440D01*
X64635317Y-52728162D01*
X64738646Y-52661671D01*
X64740302Y-52663327D01*
X64973691Y-52760000D01*
X65414250Y-52760000D01*
X65573000Y-52601250D01*
X65573000Y-51877000D01*
X65827000Y-51877000D01*
X65827000Y-52601250D01*
X65985750Y-52760000D01*
X66426309Y-52760000D01*
X66659698Y-52663327D01*
X66838327Y-52484699D01*
X66935000Y-52251310D01*
X66935000Y-52035750D01*
X66776250Y-51877000D01*
X65827000Y-51877000D01*
X65573000Y-51877000D01*
X65553000Y-51877000D01*
X65553000Y-51623000D01*
X65573000Y-51623000D01*
X65573000Y-50898750D01*
X65827000Y-50898750D01*
X65827000Y-51623000D01*
X66776250Y-51623000D01*
X66935000Y-51464250D01*
X66935000Y-51248690D01*
X66838327Y-51015301D01*
X66659698Y-50836673D01*
X66426309Y-50740000D01*
X65985750Y-50740000D01*
X65827000Y-50898750D01*
X65573000Y-50898750D01*
X65414250Y-50740000D01*
X64973691Y-50740000D01*
X64740302Y-50836673D01*
X64738932Y-50838043D01*
X64651890Y-50778569D01*
X64400000Y-50727560D01*
X63200000Y-50727560D01*
X62964683Y-50771838D01*
X62748559Y-50910910D01*
X62603569Y-51123110D01*
X62552560Y-51375000D01*
X62552560Y-51745860D01*
X62374210Y-51924210D01*
X62182367Y-52211325D01*
X62171190Y-52267516D01*
X62114999Y-52550000D01*
X62115000Y-52550005D01*
X62115000Y-53365000D01*
X61641797Y-53365000D01*
X61551890Y-53303569D01*
X61300000Y-53252560D01*
X59700000Y-53252560D01*
X59464683Y-53296838D01*
X59248559Y-53435910D01*
X59103569Y-53648110D01*
X59052560Y-53900000D01*
X59052560Y-54900000D01*
X59093015Y-55115000D01*
X53898263Y-55115000D01*
X53935000Y-55026310D01*
X53935000Y-54685750D01*
X53776250Y-54527000D01*
X52627000Y-54527000D01*
X52627000Y-54547000D01*
X52373000Y-54547000D01*
X52373000Y-54527000D01*
X51223750Y-54527000D01*
X51065000Y-54685750D01*
X51065000Y-55026310D01*
X51136755Y-55199541D01*
X51103569Y-55248110D01*
X51052560Y-55500000D01*
X51052560Y-56500000D01*
X51096838Y-56735317D01*
X51137481Y-56798478D01*
X51103569Y-56848110D01*
X51052560Y-57100000D01*
X51052560Y-58100000D01*
X51096838Y-58335317D01*
X51235910Y-58551441D01*
X51328932Y-58615000D01*
X50885000Y-58615000D01*
X50885000Y-53773690D01*
X51065000Y-53773690D01*
X51065000Y-54114250D01*
X51223750Y-54273000D01*
X52373000Y-54273000D01*
X52373000Y-53423750D01*
X52627000Y-53423750D01*
X52627000Y-54273000D01*
X53776250Y-54273000D01*
X53935000Y-54114250D01*
X53935000Y-53773690D01*
X53838327Y-53540301D01*
X53659698Y-53361673D01*
X53426309Y-53265000D01*
X52785750Y-53265000D01*
X52627000Y-53423750D01*
X52373000Y-53423750D01*
X52214250Y-53265000D01*
X51573691Y-53265000D01*
X51340302Y-53361673D01*
X51161673Y-53540301D01*
X51065000Y-53773690D01*
X50885000Y-53773690D01*
X50885000Y-52916580D01*
X51029139Y-52772440D01*
X51400000Y-52772440D01*
X51635317Y-52728162D01*
X51738646Y-52661671D01*
X51740302Y-52663327D01*
X51973691Y-52760000D01*
X52414250Y-52760000D01*
X52573000Y-52601250D01*
X52573000Y-51877000D01*
X52827000Y-51877000D01*
X52827000Y-52601250D01*
X52985750Y-52760000D01*
X53426309Y-52760000D01*
X53659698Y-52663327D01*
X53838327Y-52484699D01*
X53935000Y-52251310D01*
X53935000Y-52035750D01*
X53776250Y-51877000D01*
X52827000Y-51877000D01*
X52573000Y-51877000D01*
X52553000Y-51877000D01*
X52553000Y-51623000D01*
X52573000Y-51623000D01*
X52573000Y-50898750D01*
X52827000Y-50898750D01*
X52827000Y-51623000D01*
X53776250Y-51623000D01*
X53935000Y-51464250D01*
X53935000Y-51248690D01*
X53838327Y-51015301D01*
X53659698Y-50836673D01*
X53426309Y-50740000D01*
X52985750Y-50740000D01*
X52827000Y-50898750D01*
X52573000Y-50898750D01*
X52414250Y-50740000D01*
X51973691Y-50740000D01*
X51740302Y-50836673D01*
X51738932Y-50838043D01*
X51651890Y-50778569D01*
X51400000Y-50727560D01*
X50200000Y-50727560D01*
X49964683Y-50771838D01*
X49748559Y-50910910D01*
X49603569Y-51123110D01*
X49552560Y-51375000D01*
X49552560Y-51745860D01*
X49374210Y-51924210D01*
X49182367Y-52211325D01*
X49171190Y-52267516D01*
X49114999Y-52550000D01*
X49115000Y-52550005D01*
X49115000Y-53365000D01*
X48641797Y-53365000D01*
X48551890Y-53303569D01*
X48300000Y-53252560D01*
X46700000Y-53252560D01*
X46464683Y-53296838D01*
X46248559Y-53435910D01*
X46103569Y-53648110D01*
X46052560Y-53900000D01*
X46052560Y-54900000D01*
X46093015Y-55115000D01*
X40898263Y-55115000D01*
X40935000Y-55026310D01*
X40935000Y-54685750D01*
X40776250Y-54527000D01*
X39627000Y-54527000D01*
X39627000Y-54547000D01*
X39373000Y-54547000D01*
X39373000Y-54527000D01*
X38223750Y-54527000D01*
X38065000Y-54685750D01*
X38065000Y-55026310D01*
X38136755Y-55199541D01*
X38103569Y-55248110D01*
X38052560Y-55500000D01*
X38052560Y-56500000D01*
X38096838Y-56735317D01*
X38137481Y-56798478D01*
X38103569Y-56848110D01*
X38052560Y-57100000D01*
X38052560Y-58100000D01*
X38096838Y-58335317D01*
X38235910Y-58551441D01*
X38328932Y-58615000D01*
X37885000Y-58615000D01*
X37885000Y-53773690D01*
X38065000Y-53773690D01*
X38065000Y-54114250D01*
X38223750Y-54273000D01*
X39373000Y-54273000D01*
X39373000Y-53423750D01*
X39627000Y-53423750D01*
X39627000Y-54273000D01*
X40776250Y-54273000D01*
X40935000Y-54114250D01*
X40935000Y-53773690D01*
X40838327Y-53540301D01*
X40659698Y-53361673D01*
X40426309Y-53265000D01*
X39785750Y-53265000D01*
X39627000Y-53423750D01*
X39373000Y-53423750D01*
X39214250Y-53265000D01*
X38573691Y-53265000D01*
X38340302Y-53361673D01*
X38161673Y-53540301D01*
X38065000Y-53773690D01*
X37885000Y-53773690D01*
X37885000Y-52916580D01*
X38029139Y-52772440D01*
X38400000Y-52772440D01*
X38635317Y-52728162D01*
X38738646Y-52661671D01*
X38740302Y-52663327D01*
X38973691Y-52760000D01*
X39414250Y-52760000D01*
X39573000Y-52601250D01*
X39573000Y-51877000D01*
X39827000Y-51877000D01*
X39827000Y-52601250D01*
X39985750Y-52760000D01*
X40426309Y-52760000D01*
X40659698Y-52663327D01*
X40838327Y-52484699D01*
X40935000Y-52251310D01*
X40935000Y-52035750D01*
X40776250Y-51877000D01*
X39827000Y-51877000D01*
X39573000Y-51877000D01*
X39553000Y-51877000D01*
X39553000Y-51623000D01*
X39573000Y-51623000D01*
X39573000Y-50898750D01*
X39827000Y-50898750D01*
X39827000Y-51623000D01*
X40776250Y-51623000D01*
X40935000Y-51464250D01*
X40935000Y-51248690D01*
X40838327Y-51015301D01*
X40659698Y-50836673D01*
X40426309Y-50740000D01*
X39985750Y-50740000D01*
X39827000Y-50898750D01*
X39573000Y-50898750D01*
X39414250Y-50740000D01*
X38973691Y-50740000D01*
X38740302Y-50836673D01*
X38738932Y-50838043D01*
X38651890Y-50778569D01*
X38400000Y-50727560D01*
X37200000Y-50727560D01*
X36964683Y-50771838D01*
X36748559Y-50910910D01*
X36603569Y-51123110D01*
X36552560Y-51375000D01*
X36552560Y-51745860D01*
X36374210Y-51924210D01*
X36182367Y-52211325D01*
X36171190Y-52267516D01*
X36114999Y-52550000D01*
X36115000Y-52550005D01*
X36115000Y-53365000D01*
X35641797Y-53365000D01*
X35551890Y-53303569D01*
X35300000Y-53252560D01*
X33700000Y-53252560D01*
X33464683Y-53296838D01*
X33248559Y-53435910D01*
X33103569Y-53648110D01*
X33052560Y-53900000D01*
X33052560Y-54900000D01*
X33093015Y-55115000D01*
X27898263Y-55115000D01*
X27935000Y-55026310D01*
X27935000Y-54685750D01*
X27776250Y-54527000D01*
X26627000Y-54527000D01*
X26627000Y-54547000D01*
X26373000Y-54547000D01*
X26373000Y-54527000D01*
X25223750Y-54527000D01*
X25065000Y-54685750D01*
X25065000Y-55026310D01*
X25136755Y-55199541D01*
X25103569Y-55248110D01*
X25052560Y-55500000D01*
X25052560Y-56500000D01*
X25096838Y-56735317D01*
X25137481Y-56798478D01*
X25103569Y-56848110D01*
X25052560Y-57100000D01*
X25052560Y-58100000D01*
X25096838Y-58335317D01*
X25235910Y-58551441D01*
X25328932Y-58615000D01*
X24885000Y-58615000D01*
X24885000Y-53773690D01*
X25065000Y-53773690D01*
X25065000Y-54114250D01*
X25223750Y-54273000D01*
X26373000Y-54273000D01*
X26373000Y-53423750D01*
X26627000Y-53423750D01*
X26627000Y-54273000D01*
X27776250Y-54273000D01*
X27935000Y-54114250D01*
X27935000Y-53773690D01*
X27838327Y-53540301D01*
X27659698Y-53361673D01*
X27426309Y-53265000D01*
X26785750Y-53265000D01*
X26627000Y-53423750D01*
X26373000Y-53423750D01*
X26214250Y-53265000D01*
X25573691Y-53265000D01*
X25340302Y-53361673D01*
X25161673Y-53540301D01*
X25065000Y-53773690D01*
X24885000Y-53773690D01*
X24885000Y-52666580D01*
X25029139Y-52522440D01*
X25400000Y-52522440D01*
X25635317Y-52478162D01*
X25738646Y-52411671D01*
X25740302Y-52413327D01*
X25973691Y-52510000D01*
X26414250Y-52510000D01*
X26573000Y-52351250D01*
X26573000Y-51627000D01*
X26827000Y-51627000D01*
X26827000Y-52351250D01*
X26985750Y-52510000D01*
X27426309Y-52510000D01*
X27659698Y-52413327D01*
X27838327Y-52234699D01*
X27935000Y-52001310D01*
X27935000Y-51785750D01*
X27776250Y-51627000D01*
X26827000Y-51627000D01*
X26573000Y-51627000D01*
X26553000Y-51627000D01*
X26553000Y-51373000D01*
X26573000Y-51373000D01*
X26573000Y-50648750D01*
X26827000Y-50648750D01*
X26827000Y-51373000D01*
X27776250Y-51373000D01*
X27935000Y-51214250D01*
X27935000Y-50998690D01*
X27838327Y-50765301D01*
X27659698Y-50586673D01*
X27426309Y-50490000D01*
X26985750Y-50490000D01*
X26827000Y-50648750D01*
X26573000Y-50648750D01*
X26414250Y-50490000D01*
X25973691Y-50490000D01*
X25740302Y-50586673D01*
X25738932Y-50588043D01*
X25651890Y-50528569D01*
X25400000Y-50477560D01*
X24200000Y-50477560D01*
X23964683Y-50521838D01*
X23748559Y-50660910D01*
X23603569Y-50873110D01*
X23552560Y-51125000D01*
X23552560Y-51495860D01*
X23374210Y-51674210D01*
X23182367Y-51961325D01*
X23171190Y-52017516D01*
X23114999Y-52300000D01*
X23115000Y-52300005D01*
X23115000Y-53365000D01*
X22641797Y-53365000D01*
X22551890Y-53303569D01*
X22300000Y-53252560D01*
X20700000Y-53252560D01*
X20464683Y-53296838D01*
X20248559Y-53435910D01*
X20103569Y-53648110D01*
X20052560Y-53900000D01*
X20052560Y-54900000D01*
X20096838Y-55135317D01*
X20137481Y-55198478D01*
X20103569Y-55248110D01*
X20052560Y-55500000D01*
X20052560Y-56500000D01*
X20096838Y-56735317D01*
X20137481Y-56798478D01*
X20103569Y-56848110D01*
X20052560Y-57100000D01*
X20052560Y-58100000D01*
X20096838Y-58335317D01*
X20235910Y-58551441D01*
X20448110Y-58696431D01*
X20700000Y-58747440D01*
X22300000Y-58747440D01*
X22535317Y-58703162D01*
X22751441Y-58564090D01*
X22896431Y-58351890D01*
X22947440Y-58100000D01*
X22947440Y-57100000D01*
X22903162Y-56864683D01*
X22862519Y-56801522D01*
X22896431Y-56751890D01*
X22947440Y-56500000D01*
X22947440Y-55500000D01*
X22903162Y-55264683D01*
X22862519Y-55201522D01*
X22896431Y-55151890D01*
X22899851Y-55135000D01*
X23115000Y-55135000D01*
X23115000Y-58957619D01*
X23085156Y-58977560D01*
X22850000Y-58977560D01*
X22614683Y-59021838D01*
X22511354Y-59088329D01*
X22509698Y-59086673D01*
X22276309Y-58990000D01*
X21835750Y-58990000D01*
X21677000Y-59148750D01*
X21677000Y-59873000D01*
X21697000Y-59873000D01*
X21697000Y-60127000D01*
X21677000Y-60127000D01*
X21677000Y-60851250D01*
X21835750Y-61010000D01*
X22276309Y-61010000D01*
X22509698Y-60913327D01*
X22511068Y-60911957D01*
X22598110Y-60971431D01*
X22850000Y-61022440D01*
X23085156Y-61022440D01*
X23469983Y-61279573D01*
X24000000Y-61385000D01*
X78363420Y-61385000D01*
X77624210Y-62124210D01*
X77432367Y-62411325D01*
X77432367Y-62411326D01*
X77364999Y-62750000D01*
X77365000Y-62750005D01*
X77365000Y-68383421D01*
X77134465Y-68613956D01*
X77135543Y-67379146D01*
X76659273Y-66226485D01*
X75778153Y-65343826D01*
X74626326Y-64865546D01*
X73379146Y-64864457D01*
X72226485Y-65340727D01*
X71343826Y-66221847D01*
X70865546Y-67373674D01*
X70864457Y-68620854D01*
X71340727Y-69773515D01*
X72221847Y-70656174D01*
X73373674Y-71134454D01*
X74612885Y-71135536D01*
X68133420Y-77615000D01*
X65500000Y-77615000D01*
X65161325Y-77682367D01*
X64874210Y-77874210D01*
X64874208Y-77874213D01*
X62383420Y-80365000D01*
X53284032Y-80365000D01*
X53284408Y-79934310D01*
X53119638Y-79535537D01*
X52814807Y-79230174D01*
X52416323Y-79064709D01*
X52385033Y-79064682D01*
X52388717Y-79060998D01*
X52485390Y-78827609D01*
X52485390Y-77836430D01*
X52326640Y-77677680D01*
X51725295Y-77677680D01*
X51725295Y-77697680D01*
X51697730Y-77697680D01*
X51697730Y-76400060D01*
X51653452Y-76164743D01*
X51514380Y-75948619D01*
X51478071Y-75923810D01*
X51725295Y-75923810D01*
X51725295Y-77423680D01*
X52326640Y-77423680D01*
X52485390Y-77264930D01*
X52485390Y-76400060D01*
X52803150Y-76400060D01*
X52803150Y-78899420D01*
X52847428Y-79134737D01*
X52986500Y-79350861D01*
X53198700Y-79495851D01*
X53450590Y-79546860D01*
X55449570Y-79546860D01*
X55684887Y-79502582D01*
X55901011Y-79363510D01*
X56046001Y-79151310D01*
X56097010Y-78899420D01*
X56097010Y-76400060D01*
X56052732Y-76164743D01*
X55913660Y-75948619D01*
X55701460Y-75803629D01*
X55449570Y-75752620D01*
X53450590Y-75752620D01*
X53215273Y-75796898D01*
X52999149Y-75935970D01*
X52854159Y-76148170D01*
X52803150Y-76400060D01*
X52485390Y-76400060D01*
X52485390Y-76273751D01*
X52388717Y-76040362D01*
X52210089Y-75861733D01*
X51976700Y-75765060D01*
X51884045Y-75765060D01*
X51725295Y-75923810D01*
X51478071Y-75923810D01*
X51468707Y-75917412D01*
X51316355Y-75765060D01*
X51223700Y-75765060D01*
X51186931Y-75780290D01*
X51086734Y-75760000D01*
X51176309Y-75760000D01*
X51409698Y-75663327D01*
X51588327Y-75484699D01*
X51685000Y-75251310D01*
X51685000Y-75035750D01*
X51526250Y-74877000D01*
X50577000Y-74877000D01*
X50577000Y-75601250D01*
X50728370Y-75752620D01*
X50549910Y-75752620D01*
X50394548Y-75781853D01*
X50250190Y-75752620D01*
X50171630Y-75752620D01*
X50323000Y-75601250D01*
X50323000Y-74877000D01*
X50303000Y-74877000D01*
X50303000Y-74623000D01*
X50323000Y-74623000D01*
X50323000Y-74603000D01*
X50577000Y-74603000D01*
X50577000Y-74623000D01*
X51526250Y-74623000D01*
X51685000Y-74464250D01*
X51685000Y-74248690D01*
X51588327Y-74015301D01*
X51409698Y-73836673D01*
X51176309Y-73740000D01*
X50735750Y-73740000D01*
X50577002Y-73898748D01*
X50577002Y-73761985D01*
X50634097Y-73751242D01*
X50850221Y-73612170D01*
X50995211Y-73399970D01*
X51046220Y-73148080D01*
X51046220Y-72350520D01*
X51001942Y-72115203D01*
X50927815Y-72000007D01*
X50995211Y-71901370D01*
X51046220Y-71649480D01*
X51046220Y-70851920D01*
X51001942Y-70616603D01*
X50862870Y-70400479D01*
X50650670Y-70255489D01*
X50398780Y-70204480D01*
X49601220Y-70204480D01*
X49365903Y-70248758D01*
X49185258Y-70365000D01*
X48674669Y-70365000D01*
X48664090Y-70348559D01*
X48451890Y-70203569D01*
X48200000Y-70152560D01*
X47000000Y-70152560D01*
X46764683Y-70196838D01*
X46548559Y-70335910D01*
X46500866Y-70405711D01*
X46464090Y-70348559D01*
X46251890Y-70203569D01*
X46000000Y-70152560D01*
X45554140Y-70152560D01*
X45475790Y-70074210D01*
X45267446Y-69935000D01*
X45188675Y-69882367D01*
X45132484Y-69871190D01*
X44850000Y-69814999D01*
X44849995Y-69815000D01*
X44185209Y-69815000D01*
X44131890Y-69778569D01*
X43994880Y-69750824D01*
X44115317Y-69728162D01*
X44278743Y-69623000D01*
X44356250Y-69623000D01*
X44515000Y-69464250D01*
X44515000Y-69298690D01*
X44499732Y-69261829D01*
X44527440Y-69125000D01*
X44527440Y-68475000D01*
X44483162Y-68239683D01*
X44385000Y-68087135D01*
X44385000Y-67500598D01*
X44298603Y-67066252D01*
X44052566Y-66698032D01*
X43052434Y-65697900D01*
X43051221Y-65696091D01*
X42702193Y-65463723D01*
X42683748Y-65451398D01*
X42683652Y-65451379D01*
X42682589Y-65450671D01*
X42681333Y-65450423D01*
X42681244Y-65450364D01*
X42624656Y-65439248D01*
X42397580Y-65394475D01*
X42249403Y-65365001D01*
X42248751Y-65365131D01*
X42248099Y-65365002D01*
X42247502Y-65365003D01*
X42247099Y-65365084D01*
X42246693Y-65365004D01*
X26675000Y-65402191D01*
X26675000Y-65221449D01*
X26707433Y-65199778D01*
X27065325Y-64664155D01*
X27191000Y-64032345D01*
X27191000Y-63967655D01*
X27065325Y-63335845D01*
X26707433Y-62800222D01*
X26171810Y-62442330D01*
X25540000Y-62316655D01*
X24908190Y-62442330D01*
X24571999Y-62666966D01*
X24554327Y-62624302D01*
X24375699Y-62445673D01*
X24142310Y-62349000D01*
X23285750Y-62349000D01*
X23127000Y-62507750D01*
X23127000Y-63873000D01*
X23147000Y-63873000D01*
X23147000Y-64127000D01*
X23127000Y-64127000D01*
X23127000Y-64147000D01*
X22873000Y-64147000D01*
X22873000Y-64127000D01*
X21507750Y-64127000D01*
X21349000Y-64285750D01*
X21349000Y-64993868D01*
X20385000Y-64029868D01*
X20385000Y-62857691D01*
X21349000Y-62857691D01*
X21349000Y-63714250D01*
X21507750Y-63873000D01*
X22873000Y-63873000D01*
X22873000Y-62507750D01*
X22714250Y-62349000D01*
X21857690Y-62349000D01*
X21624301Y-62445673D01*
X21445673Y-62624302D01*
X21349000Y-62857691D01*
X20385000Y-62857691D01*
X20385000Y-61000000D01*
X20298603Y-60565654D01*
X20111577Y-60285750D01*
X20315000Y-60285750D01*
X20315000Y-60501310D01*
X20411673Y-60734699D01*
X20590302Y-60913327D01*
X20823691Y-61010000D01*
X21264250Y-61010000D01*
X21423000Y-60851250D01*
X21423000Y-60127000D01*
X20473750Y-60127000D01*
X20315000Y-60285750D01*
X20111577Y-60285750D01*
X20052566Y-60197434D01*
X19353822Y-59498690D01*
X20315000Y-59498690D01*
X20315000Y-59714250D01*
X20473750Y-59873000D01*
X21423000Y-59873000D01*
X21423000Y-59148750D01*
X21264250Y-58990000D01*
X20823691Y-58990000D01*
X20590302Y-59086673D01*
X20411673Y-59265301D01*
X20315000Y-59498690D01*
X19353822Y-59498690D01*
X18385000Y-58529868D01*
X18385000Y-48535750D01*
X20065000Y-48535750D01*
X20065000Y-48751310D01*
X20161673Y-48984699D01*
X20340302Y-49163327D01*
X20573691Y-49260000D01*
X21014250Y-49260000D01*
X21173000Y-49101250D01*
X21173000Y-48377000D01*
X20223750Y-48377000D01*
X20065000Y-48535750D01*
X18385000Y-48535750D01*
X18385000Y-47748690D01*
X20065000Y-47748690D01*
X20065000Y-47964250D01*
X20223750Y-48123000D01*
X21173000Y-48123000D01*
X21173000Y-47398750D01*
X21014250Y-47240000D01*
X20573691Y-47240000D01*
X20340302Y-47336673D01*
X20161673Y-47515301D01*
X20065000Y-47748690D01*
X18385000Y-47748690D01*
X18385000Y-45885750D01*
X20065000Y-45885750D01*
X20065000Y-46226310D01*
X20161673Y-46459699D01*
X20340302Y-46638327D01*
X20573691Y-46735000D01*
X21214250Y-46735000D01*
X21373000Y-46576250D01*
X21373000Y-45727000D01*
X21627000Y-45727000D01*
X21627000Y-46576250D01*
X21785750Y-46735000D01*
X22426309Y-46735000D01*
X22659698Y-46638327D01*
X22838327Y-46459699D01*
X22935000Y-46226310D01*
X22935000Y-45885750D01*
X22776250Y-45727000D01*
X21627000Y-45727000D01*
X21373000Y-45727000D01*
X20223750Y-45727000D01*
X20065000Y-45885750D01*
X18385000Y-45885750D01*
X18385000Y-41028287D01*
X20652560Y-36682131D01*
X20652560Y-37250000D01*
X20652560Y-37250000D01*
G37*
X20652560Y-37250000D02*
X20696838Y-37485317D01*
X20835910Y-37701441D01*
X20905711Y-37749134D01*
X20848559Y-37785910D01*
X20703569Y-37998110D01*
X20652560Y-38250000D01*
X20652560Y-39450000D01*
X20675659Y-39572762D01*
X19374210Y-40874210D01*
X19182367Y-41161325D01*
X19182367Y-41161326D01*
X19114999Y-41500000D01*
X19115000Y-41500005D01*
X19115000Y-43749995D01*
X19114999Y-43750000D01*
X19151275Y-43932367D01*
X19182367Y-44088675D01*
X19310216Y-44280016D01*
X19374210Y-44375790D01*
X19624208Y-44625787D01*
X19624210Y-44625790D01*
X19911325Y-44817633D01*
X20113023Y-44857753D01*
X20065000Y-44973690D01*
X20065000Y-45314250D01*
X20223750Y-45473000D01*
X21373000Y-45473000D01*
X21373000Y-45453000D01*
X21627000Y-45453000D01*
X21627000Y-45473000D01*
X22776250Y-45473000D01*
X22935000Y-45314250D01*
X22935000Y-44973690D01*
X22863245Y-44800459D01*
X22896431Y-44751890D01*
X22947440Y-44500000D01*
X22947440Y-43500000D01*
X22903162Y-43264683D01*
X22862519Y-43201522D01*
X22896431Y-43151890D01*
X22947440Y-42900000D01*
X22947440Y-41900000D01*
X22903162Y-41664683D01*
X22764090Y-41448559D01*
X22638698Y-41362882D01*
X23470882Y-40530698D01*
X23770657Y-40979343D01*
X23865000Y-41042381D01*
X23865000Y-46333421D01*
X22970860Y-47227560D01*
X22600000Y-47227560D01*
X22364683Y-47271838D01*
X22261354Y-47338329D01*
X22259698Y-47336673D01*
X22026309Y-47240000D01*
X21585750Y-47240000D01*
X21427000Y-47398750D01*
X21427000Y-48123000D01*
X21447000Y-48123000D01*
X21447000Y-48377000D01*
X21427000Y-48377000D01*
X21427000Y-49101250D01*
X21585750Y-49260000D01*
X22026309Y-49260000D01*
X22259698Y-49163327D01*
X22261068Y-49161957D01*
X22348110Y-49221431D01*
X22600000Y-49272440D01*
X23800000Y-49272440D01*
X24035317Y-49228162D01*
X24251441Y-49089090D01*
X24396431Y-48876890D01*
X24447440Y-48625000D01*
X24447440Y-48535750D01*
X33065000Y-48535750D01*
X33065000Y-48751310D01*
X33161673Y-48984699D01*
X33340302Y-49163327D01*
X33573691Y-49260000D01*
X34014250Y-49260000D01*
X34173000Y-49101250D01*
X34173000Y-48377000D01*
X33223750Y-48377000D01*
X33065000Y-48535750D01*
X24447440Y-48535750D01*
X24447440Y-48254140D01*
X24952889Y-47748690D01*
X33065000Y-47748690D01*
X33065000Y-47964250D01*
X33223750Y-48123000D01*
X34173000Y-48123000D01*
X34173000Y-47398750D01*
X34014250Y-47240000D01*
X33573691Y-47240000D01*
X33340302Y-47336673D01*
X33161673Y-47515301D01*
X33065000Y-47748690D01*
X24952889Y-47748690D01*
X25375787Y-47325792D01*
X25375790Y-47325790D01*
X25567633Y-47038675D01*
X25578810Y-46982484D01*
X25628447Y-46732950D01*
X25700000Y-46747440D01*
X27300000Y-46747440D01*
X27535317Y-46703162D01*
X27751441Y-46564090D01*
X27896431Y-46351890D01*
X27947440Y-46100000D01*
X27947440Y-45885750D01*
X33065000Y-45885750D01*
X33065000Y-46226310D01*
X33161673Y-46459699D01*
X33340302Y-46638327D01*
X33573691Y-46735000D01*
X34214250Y-46735000D01*
X34373000Y-46576250D01*
X34373000Y-45727000D01*
X34627000Y-45727000D01*
X34627000Y-46576250D01*
X34785750Y-46735000D01*
X35426309Y-46735000D01*
X35659698Y-46638327D01*
X35838327Y-46459699D01*
X35935000Y-46226310D01*
X35935000Y-45885750D01*
X35776250Y-45727000D01*
X34627000Y-45727000D01*
X34373000Y-45727000D01*
X33223750Y-45727000D01*
X33065000Y-45885750D01*
X27947440Y-45885750D01*
X27947440Y-45100000D01*
X27906985Y-44885000D01*
X33101737Y-44885000D01*
X33065000Y-44973690D01*
X33065000Y-45314250D01*
X33223750Y-45473000D01*
X34373000Y-45473000D01*
X34373000Y-45453000D01*
X34627000Y-45453000D01*
X34627000Y-45473000D01*
X35776250Y-45473000D01*
X35935000Y-45314250D01*
X35935000Y-44973690D01*
X35863245Y-44800459D01*
X35896431Y-44751890D01*
X35947440Y-44500000D01*
X35947440Y-43500000D01*
X35903162Y-43264683D01*
X35862519Y-43201522D01*
X35896431Y-43151890D01*
X35947440Y-42900000D01*
X35947440Y-41900000D01*
X35903162Y-41664683D01*
X35764090Y-41448559D01*
X35671068Y-41385000D01*
X36115000Y-41385000D01*
X36115000Y-47083421D01*
X35970860Y-47227560D01*
X35600000Y-47227560D01*
X35364683Y-47271838D01*
X35261354Y-47338329D01*
X35259698Y-47336673D01*
X35026309Y-47240000D01*
X34585750Y-47240000D01*
X34427000Y-47398750D01*
X34427000Y-48123000D01*
X34447000Y-48123000D01*
X34447000Y-48377000D01*
X34427000Y-48377000D01*
X34427000Y-49101250D01*
X34585750Y-49260000D01*
X35026309Y-49260000D01*
X35259698Y-49163327D01*
X35261068Y-49161957D01*
X35348110Y-49221431D01*
X35600000Y-49272440D01*
X36800000Y-49272440D01*
X37035317Y-49228162D01*
X37251441Y-49089090D01*
X37396431Y-48876890D01*
X37447440Y-48625000D01*
X37447440Y-48535750D01*
X46065000Y-48535750D01*
X46065000Y-48751310D01*
X46161673Y-48984699D01*
X46340302Y-49163327D01*
X46573691Y-49260000D01*
X47014250Y-49260000D01*
X47173000Y-49101250D01*
X47173000Y-48377000D01*
X46223750Y-48377000D01*
X46065000Y-48535750D01*
X37447440Y-48535750D01*
X37447440Y-48254139D01*
X37625787Y-48075792D01*
X37625790Y-48075790D01*
X37817633Y-47788675D01*
X37825586Y-47748690D01*
X46065000Y-47748690D01*
X46065000Y-47964250D01*
X46223750Y-48123000D01*
X47173000Y-48123000D01*
X47173000Y-47398750D01*
X47014250Y-47240000D01*
X46573691Y-47240000D01*
X46340302Y-47336673D01*
X46161673Y-47515301D01*
X46065000Y-47748690D01*
X37825586Y-47748690D01*
X37847270Y-47639683D01*
X37885001Y-47450000D01*
X37885000Y-47449995D01*
X37885000Y-46635000D01*
X38358203Y-46635000D01*
X38448110Y-46696431D01*
X38700000Y-46747440D01*
X40300000Y-46747440D01*
X40535317Y-46703162D01*
X40751441Y-46564090D01*
X40896431Y-46351890D01*
X40947440Y-46100000D01*
X40947440Y-45885750D01*
X46065000Y-45885750D01*
X46065000Y-46226310D01*
X46161673Y-46459699D01*
X46340302Y-46638327D01*
X46573691Y-46735000D01*
X47214250Y-46735000D01*
X47373000Y-46576250D01*
X47373000Y-45727000D01*
X47627000Y-45727000D01*
X47627000Y-46576250D01*
X47785750Y-46735000D01*
X48426309Y-46735000D01*
X48659698Y-46638327D01*
X48838327Y-46459699D01*
X48935000Y-46226310D01*
X48935000Y-45885750D01*
X48776250Y-45727000D01*
X47627000Y-45727000D01*
X47373000Y-45727000D01*
X46223750Y-45727000D01*
X46065000Y-45885750D01*
X40947440Y-45885750D01*
X40947440Y-45100000D01*
X40906985Y-44885000D01*
X46101737Y-44885000D01*
X46065000Y-44973690D01*
X46065000Y-45314250D01*
X46223750Y-45473000D01*
X47373000Y-45473000D01*
X47373000Y-45453000D01*
X47627000Y-45453000D01*
X47627000Y-45473000D01*
X48776250Y-45473000D01*
X48935000Y-45314250D01*
X48935000Y-44973690D01*
X48863245Y-44800459D01*
X48896431Y-44751890D01*
X48947440Y-44500000D01*
X48947440Y-43500000D01*
X48903162Y-43264683D01*
X48862519Y-43201522D01*
X48896431Y-43151890D01*
X48947440Y-42900000D01*
X48947440Y-41900000D01*
X48903162Y-41664683D01*
X48764090Y-41448559D01*
X48671068Y-41385000D01*
X49115000Y-41385000D01*
X49115000Y-47083421D01*
X48970860Y-47227560D01*
X48600000Y-47227560D01*
X48364683Y-47271838D01*
X48261354Y-47338329D01*
X48259698Y-47336673D01*
X48026309Y-47240000D01*
X47585750Y-47240000D01*
X47427000Y-47398750D01*
X47427000Y-48123000D01*
X47447000Y-48123000D01*
X47447000Y-48377000D01*
X47427000Y-48377000D01*
X47427000Y-49101250D01*
X47585750Y-49260000D01*
X48026309Y-49260000D01*
X48259698Y-49163327D01*
X48261068Y-49161957D01*
X48348110Y-49221431D01*
X48600000Y-49272440D01*
X49800000Y-49272440D01*
X50035317Y-49228162D01*
X50251441Y-49089090D01*
X50396431Y-48876890D01*
X50447440Y-48625000D01*
X50447440Y-48535750D01*
X59065000Y-48535750D01*
X59065000Y-48751310D01*
X59161673Y-48984699D01*
X59340302Y-49163327D01*
X59573691Y-49260000D01*
X60014250Y-49260000D01*
X60173000Y-49101250D01*
X60173000Y-48377000D01*
X59223750Y-48377000D01*
X59065000Y-48535750D01*
X50447440Y-48535750D01*
X50447440Y-48254139D01*
X50625787Y-48075792D01*
X50625790Y-48075790D01*
X50817633Y-47788675D01*
X50825586Y-47748690D01*
X59065000Y-47748690D01*
X59065000Y-47964250D01*
X59223750Y-48123000D01*
X60173000Y-48123000D01*
X60173000Y-47398750D01*
X60014250Y-47240000D01*
X59573691Y-47240000D01*
X59340302Y-47336673D01*
X59161673Y-47515301D01*
X59065000Y-47748690D01*
X50825586Y-47748690D01*
X50847270Y-47639683D01*
X50885001Y-47450000D01*
X50885000Y-47449995D01*
X50885000Y-46635000D01*
X51358203Y-46635000D01*
X51448110Y-46696431D01*
X51700000Y-46747440D01*
X53300000Y-46747440D01*
X53535317Y-46703162D01*
X53751441Y-46564090D01*
X53896431Y-46351890D01*
X53947440Y-46100000D01*
X53947440Y-45885750D01*
X59065000Y-45885750D01*
X59065000Y-46226310D01*
X59161673Y-46459699D01*
X59340302Y-46638327D01*
X59573691Y-46735000D01*
X60214250Y-46735000D01*
X60373000Y-46576250D01*
X60373000Y-45727000D01*
X60627000Y-45727000D01*
X60627000Y-46576250D01*
X60785750Y-46735000D01*
X61426309Y-46735000D01*
X61659698Y-46638327D01*
X61838327Y-46459699D01*
X61935000Y-46226310D01*
X61935000Y-45885750D01*
X61776250Y-45727000D01*
X60627000Y-45727000D01*
X60373000Y-45727000D01*
X59223750Y-45727000D01*
X59065000Y-45885750D01*
X53947440Y-45885750D01*
X53947440Y-45100000D01*
X53906985Y-44885000D01*
X59101737Y-44885000D01*
X59065000Y-44973690D01*
X59065000Y-45314250D01*
X59223750Y-45473000D01*
X60373000Y-45473000D01*
X60373000Y-45453000D01*
X60627000Y-45453000D01*
X60627000Y-45473000D01*
X61776250Y-45473000D01*
X61935000Y-45314250D01*
X61935000Y-44973690D01*
X61863245Y-44800459D01*
X61896431Y-44751890D01*
X61947440Y-44500000D01*
X61947440Y-43500000D01*
X61903162Y-43264683D01*
X61862519Y-43201522D01*
X61896431Y-43151890D01*
X61947440Y-42900000D01*
X61947440Y-41900000D01*
X61903162Y-41664683D01*
X61764090Y-41448559D01*
X61671068Y-41385000D01*
X62115000Y-41385000D01*
X62115000Y-47083421D01*
X61970860Y-47227560D01*
X61600000Y-47227560D01*
X61364683Y-47271838D01*
X61261354Y-47338329D01*
X61259698Y-47336673D01*
X61026309Y-47240000D01*
X60585750Y-47240000D01*
X60427000Y-47398750D01*
X60427000Y-48123000D01*
X60447000Y-48123000D01*
X60447000Y-48377000D01*
X60427000Y-48377000D01*
X60427000Y-49101250D01*
X60585750Y-49260000D01*
X61026309Y-49260000D01*
X61259698Y-49163327D01*
X61261068Y-49161957D01*
X61348110Y-49221431D01*
X61600000Y-49272440D01*
X62800000Y-49272440D01*
X63035317Y-49228162D01*
X63251441Y-49089090D01*
X63396431Y-48876890D01*
X63447440Y-48625000D01*
X63447440Y-48535750D01*
X72065000Y-48535750D01*
X72065000Y-48751310D01*
X72161673Y-48984699D01*
X72340302Y-49163327D01*
X72573691Y-49260000D01*
X73014250Y-49260000D01*
X73173000Y-49101250D01*
X73173000Y-48377000D01*
X72223750Y-48377000D01*
X72065000Y-48535750D01*
X63447440Y-48535750D01*
X63447440Y-48254139D01*
X63625787Y-48075792D01*
X63625790Y-48075790D01*
X63817633Y-47788675D01*
X63825586Y-47748690D01*
X72065000Y-47748690D01*
X72065000Y-47964250D01*
X72223750Y-48123000D01*
X73173000Y-48123000D01*
X73173000Y-47398750D01*
X73014250Y-47240000D01*
X72573691Y-47240000D01*
X72340302Y-47336673D01*
X72161673Y-47515301D01*
X72065000Y-47748690D01*
X63825586Y-47748690D01*
X63847270Y-47639683D01*
X63885001Y-47450000D01*
X63885000Y-47449995D01*
X63885000Y-46635000D01*
X64358203Y-46635000D01*
X64448110Y-46696431D01*
X64700000Y-46747440D01*
X66300000Y-46747440D01*
X66535317Y-46703162D01*
X66751441Y-46564090D01*
X66896431Y-46351890D01*
X66947440Y-46100000D01*
X66947440Y-45885750D01*
X72065000Y-45885750D01*
X72065000Y-46226310D01*
X72161673Y-46459699D01*
X72340302Y-46638327D01*
X72573691Y-46735000D01*
X73214250Y-46735000D01*
X73373000Y-46576250D01*
X73373000Y-45727000D01*
X73627000Y-45727000D01*
X73627000Y-46576250D01*
X73785750Y-46735000D01*
X74426309Y-46735000D01*
X74659698Y-46638327D01*
X74838327Y-46459699D01*
X74935000Y-46226310D01*
X74935000Y-45885750D01*
X74776250Y-45727000D01*
X73627000Y-45727000D01*
X73373000Y-45727000D01*
X72223750Y-45727000D01*
X72065000Y-45885750D01*
X66947440Y-45885750D01*
X66947440Y-45100000D01*
X66906985Y-44885000D01*
X72101737Y-44885000D01*
X72065000Y-44973690D01*
X72065000Y-45314250D01*
X72223750Y-45473000D01*
X73373000Y-45473000D01*
X73373000Y-45453000D01*
X73627000Y-45453000D01*
X73627000Y-45473000D01*
X74776250Y-45473000D01*
X74935000Y-45314250D01*
X74935000Y-44973690D01*
X74863245Y-44800459D01*
X74896431Y-44751890D01*
X74947440Y-44500000D01*
X74947440Y-43500000D01*
X74903162Y-43264683D01*
X74862519Y-43201522D01*
X74896431Y-43151890D01*
X74947440Y-42900000D01*
X74947440Y-41900000D01*
X74903162Y-41664683D01*
X74764090Y-41448559D01*
X74671068Y-41385000D01*
X75115000Y-41385000D01*
X75115000Y-47083421D01*
X74970860Y-47227560D01*
X74600000Y-47227560D01*
X74364683Y-47271838D01*
X74261354Y-47338329D01*
X74259698Y-47336673D01*
X74026309Y-47240000D01*
X73585750Y-47240000D01*
X73427000Y-47398750D01*
X73427000Y-48123000D01*
X73447000Y-48123000D01*
X73447000Y-48377000D01*
X73427000Y-48377000D01*
X73427000Y-49101250D01*
X73585750Y-49260000D01*
X74026309Y-49260000D01*
X74259698Y-49163327D01*
X74261068Y-49161957D01*
X74348110Y-49221431D01*
X74600000Y-49272440D01*
X75800000Y-49272440D01*
X76035317Y-49228162D01*
X76251441Y-49089090D01*
X76396431Y-48876890D01*
X76447440Y-48625000D01*
X76447440Y-48254139D01*
X76625787Y-48075792D01*
X76625790Y-48075790D01*
X76817633Y-47788675D01*
X76847270Y-47639683D01*
X76885001Y-47450000D01*
X76885000Y-47449995D01*
X76885000Y-46635000D01*
X77358203Y-46635000D01*
X77448110Y-46696431D01*
X77700000Y-46747440D01*
X79300000Y-46747440D01*
X79365000Y-46735209D01*
X79365000Y-50740000D01*
X78985750Y-50740000D01*
X78827000Y-50898750D01*
X78827000Y-51623000D01*
X78847000Y-51623000D01*
X78847000Y-51877000D01*
X78827000Y-51877000D01*
X78827000Y-52601250D01*
X78985750Y-52760000D01*
X79365000Y-52760000D01*
X79365000Y-53265000D01*
X78785750Y-53265000D01*
X78627000Y-53423750D01*
X78627000Y-54273000D01*
X78647000Y-54273000D01*
X78647000Y-54527000D01*
X78627000Y-54527000D01*
X78627000Y-54547000D01*
X78373000Y-54547000D01*
X78373000Y-54527000D01*
X77223750Y-54527000D01*
X77065000Y-54685750D01*
X77065000Y-55026310D01*
X77136755Y-55199541D01*
X77103569Y-55248110D01*
X77052560Y-55500000D01*
X77052560Y-56500000D01*
X77096838Y-56735317D01*
X77137481Y-56798478D01*
X77103569Y-56848110D01*
X77052560Y-57100000D01*
X77052560Y-58100000D01*
X77096838Y-58335317D01*
X77235910Y-58551441D01*
X77328932Y-58615000D01*
X76885000Y-58615000D01*
X76885000Y-53773690D01*
X77065000Y-53773690D01*
X77065000Y-54114250D01*
X77223750Y-54273000D01*
X78373000Y-54273000D01*
X78373000Y-53423750D01*
X78214250Y-53265000D01*
X77573691Y-53265000D01*
X77340302Y-53361673D01*
X77161673Y-53540301D01*
X77065000Y-53773690D01*
X76885000Y-53773690D01*
X76885000Y-52916580D01*
X77029139Y-52772440D01*
X77400000Y-52772440D01*
X77635317Y-52728162D01*
X77738646Y-52661671D01*
X77740302Y-52663327D01*
X77973691Y-52760000D01*
X78414250Y-52760000D01*
X78573000Y-52601250D01*
X78573000Y-51877000D01*
X78553000Y-51877000D01*
X78553000Y-51623000D01*
X78573000Y-51623000D01*
X78573000Y-50898750D01*
X78414250Y-50740000D01*
X77973691Y-50740000D01*
X77740302Y-50836673D01*
X77738932Y-50838043D01*
X77651890Y-50778569D01*
X77400000Y-50727560D01*
X76200000Y-50727560D01*
X75964683Y-50771838D01*
X75748559Y-50910910D01*
X75603569Y-51123110D01*
X75552560Y-51375000D01*
X75552560Y-51745860D01*
X75374210Y-51924210D01*
X75182367Y-52211325D01*
X75171190Y-52267516D01*
X75114999Y-52550000D01*
X75115000Y-52550005D01*
X75115000Y-53365000D01*
X74641797Y-53365000D01*
X74551890Y-53303569D01*
X74300000Y-53252560D01*
X72700000Y-53252560D01*
X72464683Y-53296838D01*
X72248559Y-53435910D01*
X72103569Y-53648110D01*
X72052560Y-53900000D01*
X72052560Y-54900000D01*
X72093015Y-55115000D01*
X66898263Y-55115000D01*
X66935000Y-55026310D01*
X66935000Y-54685750D01*
X66776250Y-54527000D01*
X65627000Y-54527000D01*
X65627000Y-54547000D01*
X65373000Y-54547000D01*
X65373000Y-54527000D01*
X64223750Y-54527000D01*
X64065000Y-54685750D01*
X64065000Y-55026310D01*
X64136755Y-55199541D01*
X64103569Y-55248110D01*
X64052560Y-55500000D01*
X64052560Y-56500000D01*
X64096838Y-56735317D01*
X64137481Y-56798478D01*
X64103569Y-56848110D01*
X64052560Y-57100000D01*
X64052560Y-58100000D01*
X64096838Y-58335317D01*
X64235910Y-58551441D01*
X64328932Y-58615000D01*
X63885000Y-58615000D01*
X63885000Y-53773690D01*
X64065000Y-53773690D01*
X64065000Y-54114250D01*
X64223750Y-54273000D01*
X65373000Y-54273000D01*
X65373000Y-53423750D01*
X65627000Y-53423750D01*
X65627000Y-54273000D01*
X66776250Y-54273000D01*
X66935000Y-54114250D01*
X66935000Y-53773690D01*
X66838327Y-53540301D01*
X66659698Y-53361673D01*
X66426309Y-53265000D01*
X65785750Y-53265000D01*
X65627000Y-53423750D01*
X65373000Y-53423750D01*
X65214250Y-53265000D01*
X64573691Y-53265000D01*
X64340302Y-53361673D01*
X64161673Y-53540301D01*
X64065000Y-53773690D01*
X63885000Y-53773690D01*
X63885000Y-52916580D01*
X64029139Y-52772440D01*
X64400000Y-52772440D01*
X64635317Y-52728162D01*
X64738646Y-52661671D01*
X64740302Y-52663327D01*
X64973691Y-52760000D01*
X65414250Y-52760000D01*
X65573000Y-52601250D01*
X65573000Y-51877000D01*
X65827000Y-51877000D01*
X65827000Y-52601250D01*
X65985750Y-52760000D01*
X66426309Y-52760000D01*
X66659698Y-52663327D01*
X66838327Y-52484699D01*
X66935000Y-52251310D01*
X66935000Y-52035750D01*
X66776250Y-51877000D01*
X65827000Y-51877000D01*
X65573000Y-51877000D01*
X65553000Y-51877000D01*
X65553000Y-51623000D01*
X65573000Y-51623000D01*
X65573000Y-50898750D01*
X65827000Y-50898750D01*
X65827000Y-51623000D01*
X66776250Y-51623000D01*
X66935000Y-51464250D01*
X66935000Y-51248690D01*
X66838327Y-51015301D01*
X66659698Y-50836673D01*
X66426309Y-50740000D01*
X65985750Y-50740000D01*
X65827000Y-50898750D01*
X65573000Y-50898750D01*
X65414250Y-50740000D01*
X64973691Y-50740000D01*
X64740302Y-50836673D01*
X64738932Y-50838043D01*
X64651890Y-50778569D01*
X64400000Y-50727560D01*
X63200000Y-50727560D01*
X62964683Y-50771838D01*
X62748559Y-50910910D01*
X62603569Y-51123110D01*
X62552560Y-51375000D01*
X62552560Y-51745860D01*
X62374210Y-51924210D01*
X62182367Y-52211325D01*
X62171190Y-52267516D01*
X62114999Y-52550000D01*
X62115000Y-52550005D01*
X62115000Y-53365000D01*
X61641797Y-53365000D01*
X61551890Y-53303569D01*
X61300000Y-53252560D01*
X59700000Y-53252560D01*
X59464683Y-53296838D01*
X59248559Y-53435910D01*
X59103569Y-53648110D01*
X59052560Y-53900000D01*
X59052560Y-54900000D01*
X59093015Y-55115000D01*
X53898263Y-55115000D01*
X53935000Y-55026310D01*
X53935000Y-54685750D01*
X53776250Y-54527000D01*
X52627000Y-54527000D01*
X52627000Y-54547000D01*
X52373000Y-54547000D01*
X52373000Y-54527000D01*
X51223750Y-54527000D01*
X51065000Y-54685750D01*
X51065000Y-55026310D01*
X51136755Y-55199541D01*
X51103569Y-55248110D01*
X51052560Y-55500000D01*
X51052560Y-56500000D01*
X51096838Y-56735317D01*
X51137481Y-56798478D01*
X51103569Y-56848110D01*
X51052560Y-57100000D01*
X51052560Y-58100000D01*
X51096838Y-58335317D01*
X51235910Y-58551441D01*
X51328932Y-58615000D01*
X50885000Y-58615000D01*
X50885000Y-53773690D01*
X51065000Y-53773690D01*
X51065000Y-54114250D01*
X51223750Y-54273000D01*
X52373000Y-54273000D01*
X52373000Y-53423750D01*
X52627000Y-53423750D01*
X52627000Y-54273000D01*
X53776250Y-54273000D01*
X53935000Y-54114250D01*
X53935000Y-53773690D01*
X53838327Y-53540301D01*
X53659698Y-53361673D01*
X53426309Y-53265000D01*
X52785750Y-53265000D01*
X52627000Y-53423750D01*
X52373000Y-53423750D01*
X52214250Y-53265000D01*
X51573691Y-53265000D01*
X51340302Y-53361673D01*
X51161673Y-53540301D01*
X51065000Y-53773690D01*
X50885000Y-53773690D01*
X50885000Y-52916580D01*
X51029139Y-52772440D01*
X51400000Y-52772440D01*
X51635317Y-52728162D01*
X51738646Y-52661671D01*
X51740302Y-52663327D01*
X51973691Y-52760000D01*
X52414250Y-52760000D01*
X52573000Y-52601250D01*
X52573000Y-51877000D01*
X52827000Y-51877000D01*
X52827000Y-52601250D01*
X52985750Y-52760000D01*
X53426309Y-52760000D01*
X53659698Y-52663327D01*
X53838327Y-52484699D01*
X53935000Y-52251310D01*
X53935000Y-52035750D01*
X53776250Y-51877000D01*
X52827000Y-51877000D01*
X52573000Y-51877000D01*
X52553000Y-51877000D01*
X52553000Y-51623000D01*
X52573000Y-51623000D01*
X52573000Y-50898750D01*
X52827000Y-50898750D01*
X52827000Y-51623000D01*
X53776250Y-51623000D01*
X53935000Y-51464250D01*
X53935000Y-51248690D01*
X53838327Y-51015301D01*
X53659698Y-50836673D01*
X53426309Y-50740000D01*
X52985750Y-50740000D01*
X52827000Y-50898750D01*
X52573000Y-50898750D01*
X52414250Y-50740000D01*
X51973691Y-50740000D01*
X51740302Y-50836673D01*
X51738932Y-50838043D01*
X51651890Y-50778569D01*
X51400000Y-50727560D01*
X50200000Y-50727560D01*
X49964683Y-50771838D01*
X49748559Y-50910910D01*
X49603569Y-51123110D01*
X49552560Y-51375000D01*
X49552560Y-51745860D01*
X49374210Y-51924210D01*
X49182367Y-52211325D01*
X49171190Y-52267516D01*
X49114999Y-52550000D01*
X49115000Y-52550005D01*
X49115000Y-53365000D01*
X48641797Y-53365000D01*
X48551890Y-53303569D01*
X48300000Y-53252560D01*
X46700000Y-53252560D01*
X46464683Y-53296838D01*
X46248559Y-53435910D01*
X46103569Y-53648110D01*
X46052560Y-53900000D01*
X46052560Y-54900000D01*
X46093015Y-55115000D01*
X40898263Y-55115000D01*
X40935000Y-55026310D01*
X40935000Y-54685750D01*
X40776250Y-54527000D01*
X39627000Y-54527000D01*
X39627000Y-54547000D01*
X39373000Y-54547000D01*
X39373000Y-54527000D01*
X38223750Y-54527000D01*
X38065000Y-54685750D01*
X38065000Y-55026310D01*
X38136755Y-55199541D01*
X38103569Y-55248110D01*
X38052560Y-55500000D01*
X38052560Y-56500000D01*
X38096838Y-56735317D01*
X38137481Y-56798478D01*
X38103569Y-56848110D01*
X38052560Y-57100000D01*
X38052560Y-58100000D01*
X38096838Y-58335317D01*
X38235910Y-58551441D01*
X38328932Y-58615000D01*
X37885000Y-58615000D01*
X37885000Y-53773690D01*
X38065000Y-53773690D01*
X38065000Y-54114250D01*
X38223750Y-54273000D01*
X39373000Y-54273000D01*
X39373000Y-53423750D01*
X39627000Y-53423750D01*
X39627000Y-54273000D01*
X40776250Y-54273000D01*
X40935000Y-54114250D01*
X40935000Y-53773690D01*
X40838327Y-53540301D01*
X40659698Y-53361673D01*
X40426309Y-53265000D01*
X39785750Y-53265000D01*
X39627000Y-53423750D01*
X39373000Y-53423750D01*
X39214250Y-53265000D01*
X38573691Y-53265000D01*
X38340302Y-53361673D01*
X38161673Y-53540301D01*
X38065000Y-53773690D01*
X37885000Y-53773690D01*
X37885000Y-52916580D01*
X38029139Y-52772440D01*
X38400000Y-52772440D01*
X38635317Y-52728162D01*
X38738646Y-52661671D01*
X38740302Y-52663327D01*
X38973691Y-52760000D01*
X39414250Y-52760000D01*
X39573000Y-52601250D01*
X39573000Y-51877000D01*
X39827000Y-51877000D01*
X39827000Y-52601250D01*
X39985750Y-52760000D01*
X40426309Y-52760000D01*
X40659698Y-52663327D01*
X40838327Y-52484699D01*
X40935000Y-52251310D01*
X40935000Y-52035750D01*
X40776250Y-51877000D01*
X39827000Y-51877000D01*
X39573000Y-51877000D01*
X39553000Y-51877000D01*
X39553000Y-51623000D01*
X39573000Y-51623000D01*
X39573000Y-50898750D01*
X39827000Y-50898750D01*
X39827000Y-51623000D01*
X40776250Y-51623000D01*
X40935000Y-51464250D01*
X40935000Y-51248690D01*
X40838327Y-51015301D01*
X40659698Y-50836673D01*
X40426309Y-50740000D01*
X39985750Y-50740000D01*
X39827000Y-50898750D01*
X39573000Y-50898750D01*
X39414250Y-50740000D01*
X38973691Y-50740000D01*
X38740302Y-50836673D01*
X38738932Y-50838043D01*
X38651890Y-50778569D01*
X38400000Y-50727560D01*
X37200000Y-50727560D01*
X36964683Y-50771838D01*
X36748559Y-50910910D01*
X36603569Y-51123110D01*
X36552560Y-51375000D01*
X36552560Y-51745860D01*
X36374210Y-51924210D01*
X36182367Y-52211325D01*
X36171190Y-52267516D01*
X36114999Y-52550000D01*
X36115000Y-52550005D01*
X36115000Y-53365000D01*
X35641797Y-53365000D01*
X35551890Y-53303569D01*
X35300000Y-53252560D01*
X33700000Y-53252560D01*
X33464683Y-53296838D01*
X33248559Y-53435910D01*
X33103569Y-53648110D01*
X33052560Y-53900000D01*
X33052560Y-54900000D01*
X33093015Y-55115000D01*
X27898263Y-55115000D01*
X27935000Y-55026310D01*
X27935000Y-54685750D01*
X27776250Y-54527000D01*
X26627000Y-54527000D01*
X26627000Y-54547000D01*
X26373000Y-54547000D01*
X26373000Y-54527000D01*
X25223750Y-54527000D01*
X25065000Y-54685750D01*
X25065000Y-55026310D01*
X25136755Y-55199541D01*
X25103569Y-55248110D01*
X25052560Y-55500000D01*
X25052560Y-56500000D01*
X25096838Y-56735317D01*
X25137481Y-56798478D01*
X25103569Y-56848110D01*
X25052560Y-57100000D01*
X25052560Y-58100000D01*
X25096838Y-58335317D01*
X25235910Y-58551441D01*
X25328932Y-58615000D01*
X24885000Y-58615000D01*
X24885000Y-53773690D01*
X25065000Y-53773690D01*
X25065000Y-54114250D01*
X25223750Y-54273000D01*
X26373000Y-54273000D01*
X26373000Y-53423750D01*
X26627000Y-53423750D01*
X26627000Y-54273000D01*
X27776250Y-54273000D01*
X27935000Y-54114250D01*
X27935000Y-53773690D01*
X27838327Y-53540301D01*
X27659698Y-53361673D01*
X27426309Y-53265000D01*
X26785750Y-53265000D01*
X26627000Y-53423750D01*
X26373000Y-53423750D01*
X26214250Y-53265000D01*
X25573691Y-53265000D01*
X25340302Y-53361673D01*
X25161673Y-53540301D01*
X25065000Y-53773690D01*
X24885000Y-53773690D01*
X24885000Y-52666580D01*
X25029139Y-52522440D01*
X25400000Y-52522440D01*
X25635317Y-52478162D01*
X25738646Y-52411671D01*
X25740302Y-52413327D01*
X25973691Y-52510000D01*
X26414250Y-52510000D01*
X26573000Y-52351250D01*
X26573000Y-51627000D01*
X26827000Y-51627000D01*
X26827000Y-52351250D01*
X26985750Y-52510000D01*
X27426309Y-52510000D01*
X27659698Y-52413327D01*
X27838327Y-52234699D01*
X27935000Y-52001310D01*
X27935000Y-51785750D01*
X27776250Y-51627000D01*
X26827000Y-51627000D01*
X26573000Y-51627000D01*
X26553000Y-51627000D01*
X26553000Y-51373000D01*
X26573000Y-51373000D01*
X26573000Y-50648750D01*
X26827000Y-50648750D01*
X26827000Y-51373000D01*
X27776250Y-51373000D01*
X27935000Y-51214250D01*
X27935000Y-50998690D01*
X27838327Y-50765301D01*
X27659698Y-50586673D01*
X27426309Y-50490000D01*
X26985750Y-50490000D01*
X26827000Y-50648750D01*
X26573000Y-50648750D01*
X26414250Y-50490000D01*
X25973691Y-50490000D01*
X25740302Y-50586673D01*
X25738932Y-50588043D01*
X25651890Y-50528569D01*
X25400000Y-50477560D01*
X24200000Y-50477560D01*
X23964683Y-50521838D01*
X23748559Y-50660910D01*
X23603569Y-50873110D01*
X23552560Y-51125000D01*
X23552560Y-51495860D01*
X23374210Y-51674210D01*
X23182367Y-51961325D01*
X23171190Y-52017516D01*
X23114999Y-52300000D01*
X23115000Y-52300005D01*
X23115000Y-53365000D01*
X22641797Y-53365000D01*
X22551890Y-53303569D01*
X22300000Y-53252560D01*
X20700000Y-53252560D01*
X20464683Y-53296838D01*
X20248559Y-53435910D01*
X20103569Y-53648110D01*
X20052560Y-53900000D01*
X20052560Y-54900000D01*
X20096838Y-55135317D01*
X20137481Y-55198478D01*
X20103569Y-55248110D01*
X20052560Y-55500000D01*
X20052560Y-56500000D01*
X20096838Y-56735317D01*
X20137481Y-56798478D01*
X20103569Y-56848110D01*
X20052560Y-57100000D01*
X20052560Y-58100000D01*
X20096838Y-58335317D01*
X20235910Y-58551441D01*
X20448110Y-58696431D01*
X20700000Y-58747440D01*
X22300000Y-58747440D01*
X22535317Y-58703162D01*
X22751441Y-58564090D01*
X22896431Y-58351890D01*
X22947440Y-58100000D01*
X22947440Y-57100000D01*
X22903162Y-56864683D01*
X22862519Y-56801522D01*
X22896431Y-56751890D01*
X22947440Y-56500000D01*
X22947440Y-55500000D01*
X22903162Y-55264683D01*
X22862519Y-55201522D01*
X22896431Y-55151890D01*
X22899851Y-55135000D01*
X23115000Y-55135000D01*
X23115000Y-58957619D01*
X23085156Y-58977560D01*
X22850000Y-58977560D01*
X22614683Y-59021838D01*
X22511354Y-59088329D01*
X22509698Y-59086673D01*
X22276309Y-58990000D01*
X21835750Y-58990000D01*
X21677000Y-59148750D01*
X21677000Y-59873000D01*
X21697000Y-59873000D01*
X21697000Y-60127000D01*
X21677000Y-60127000D01*
X21677000Y-60851250D01*
X21835750Y-61010000D01*
X22276309Y-61010000D01*
X22509698Y-60913327D01*
X22511068Y-60911957D01*
X22598110Y-60971431D01*
X22850000Y-61022440D01*
X23085156Y-61022440D01*
X23469983Y-61279573D01*
X24000000Y-61385000D01*
X78363420Y-61385000D01*
X77624210Y-62124210D01*
X77432367Y-62411325D01*
X77432367Y-62411326D01*
X77364999Y-62750000D01*
X77365000Y-62750005D01*
X77365000Y-68383421D01*
X77134465Y-68613956D01*
X77135543Y-67379146D01*
X76659273Y-66226485D01*
X75778153Y-65343826D01*
X74626326Y-64865546D01*
X73379146Y-64864457D01*
X72226485Y-65340727D01*
X71343826Y-66221847D01*
X70865546Y-67373674D01*
X70864457Y-68620854D01*
X71340727Y-69773515D01*
X72221847Y-70656174D01*
X73373674Y-71134454D01*
X74612885Y-71135536D01*
X68133420Y-77615000D01*
X65500000Y-77615000D01*
X65161325Y-77682367D01*
X64874210Y-77874210D01*
X64874208Y-77874213D01*
X62383420Y-80365000D01*
X53284032Y-80365000D01*
X53284408Y-79934310D01*
X53119638Y-79535537D01*
X52814807Y-79230174D01*
X52416323Y-79064709D01*
X52385033Y-79064682D01*
X52388717Y-79060998D01*
X52485390Y-78827609D01*
X52485390Y-77836430D01*
X52326640Y-77677680D01*
X51725295Y-77677680D01*
X51725295Y-77697680D01*
X51697730Y-77697680D01*
X51697730Y-76400060D01*
X51653452Y-76164743D01*
X51514380Y-75948619D01*
X51478071Y-75923810D01*
X51725295Y-75923810D01*
X51725295Y-77423680D01*
X52326640Y-77423680D01*
X52485390Y-77264930D01*
X52485390Y-76400060D01*
X52803150Y-76400060D01*
X52803150Y-78899420D01*
X52847428Y-79134737D01*
X52986500Y-79350861D01*
X53198700Y-79495851D01*
X53450590Y-79546860D01*
X55449570Y-79546860D01*
X55684887Y-79502582D01*
X55901011Y-79363510D01*
X56046001Y-79151310D01*
X56097010Y-78899420D01*
X56097010Y-76400060D01*
X56052732Y-76164743D01*
X55913660Y-75948619D01*
X55701460Y-75803629D01*
X55449570Y-75752620D01*
X53450590Y-75752620D01*
X53215273Y-75796898D01*
X52999149Y-75935970D01*
X52854159Y-76148170D01*
X52803150Y-76400060D01*
X52485390Y-76400060D01*
X52485390Y-76273751D01*
X52388717Y-76040362D01*
X52210089Y-75861733D01*
X51976700Y-75765060D01*
X51884045Y-75765060D01*
X51725295Y-75923810D01*
X51478071Y-75923810D01*
X51468707Y-75917412D01*
X51316355Y-75765060D01*
X51223700Y-75765060D01*
X51186931Y-75780290D01*
X51086734Y-75760000D01*
X51176309Y-75760000D01*
X51409698Y-75663327D01*
X51588327Y-75484699D01*
X51685000Y-75251310D01*
X51685000Y-75035750D01*
X51526250Y-74877000D01*
X50577000Y-74877000D01*
X50577000Y-75601250D01*
X50728370Y-75752620D01*
X50549910Y-75752620D01*
X50394548Y-75781853D01*
X50250190Y-75752620D01*
X50171630Y-75752620D01*
X50323000Y-75601250D01*
X50323000Y-74877000D01*
X50303000Y-74877000D01*
X50303000Y-74623000D01*
X50323000Y-74623000D01*
X50323000Y-74603000D01*
X50577000Y-74603000D01*
X50577000Y-74623000D01*
X51526250Y-74623000D01*
X51685000Y-74464250D01*
X51685000Y-74248690D01*
X51588327Y-74015301D01*
X51409698Y-73836673D01*
X51176309Y-73740000D01*
X50735750Y-73740000D01*
X50577002Y-73898748D01*
X50577002Y-73761985D01*
X50634097Y-73751242D01*
X50850221Y-73612170D01*
X50995211Y-73399970D01*
X51046220Y-73148080D01*
X51046220Y-72350520D01*
X51001942Y-72115203D01*
X50927815Y-72000007D01*
X50995211Y-71901370D01*
X51046220Y-71649480D01*
X51046220Y-70851920D01*
X51001942Y-70616603D01*
X50862870Y-70400479D01*
X50650670Y-70255489D01*
X50398780Y-70204480D01*
X49601220Y-70204480D01*
X49365903Y-70248758D01*
X49185258Y-70365000D01*
X48674669Y-70365000D01*
X48664090Y-70348559D01*
X48451890Y-70203569D01*
X48200000Y-70152560D01*
X47000000Y-70152560D01*
X46764683Y-70196838D01*
X46548559Y-70335910D01*
X46500866Y-70405711D01*
X46464090Y-70348559D01*
X46251890Y-70203569D01*
X46000000Y-70152560D01*
X45554140Y-70152560D01*
X45475790Y-70074210D01*
X45267446Y-69935000D01*
X45188675Y-69882367D01*
X45132484Y-69871190D01*
X44850000Y-69814999D01*
X44849995Y-69815000D01*
X44185209Y-69815000D01*
X44131890Y-69778569D01*
X43994880Y-69750824D01*
X44115317Y-69728162D01*
X44278743Y-69623000D01*
X44356250Y-69623000D01*
X44515000Y-69464250D01*
X44515000Y-69298690D01*
X44499732Y-69261829D01*
X44527440Y-69125000D01*
X44527440Y-68475000D01*
X44483162Y-68239683D01*
X44385000Y-68087135D01*
X44385000Y-67500598D01*
X44298603Y-67066252D01*
X44052566Y-66698032D01*
X43052434Y-65697900D01*
X43051221Y-65696091D01*
X42702193Y-65463723D01*
X42683748Y-65451398D01*
X42683652Y-65451379D01*
X42682589Y-65450671D01*
X42681333Y-65450423D01*
X42681244Y-65450364D01*
X42624656Y-65439248D01*
X42397580Y-65394475D01*
X42249403Y-65365001D01*
X42248751Y-65365131D01*
X42248099Y-65365002D01*
X42247502Y-65365003D01*
X42247099Y-65365084D01*
X42246693Y-65365004D01*
X26675000Y-65402191D01*
X26675000Y-65221449D01*
X26707433Y-65199778D01*
X27065325Y-64664155D01*
X27191000Y-64032345D01*
X27191000Y-63967655D01*
X27065325Y-63335845D01*
X26707433Y-62800222D01*
X26171810Y-62442330D01*
X25540000Y-62316655D01*
X24908190Y-62442330D01*
X24571999Y-62666966D01*
X24554327Y-62624302D01*
X24375699Y-62445673D01*
X24142310Y-62349000D01*
X23285750Y-62349000D01*
X23127000Y-62507750D01*
X23127000Y-63873000D01*
X23147000Y-63873000D01*
X23147000Y-64127000D01*
X23127000Y-64127000D01*
X23127000Y-64147000D01*
X22873000Y-64147000D01*
X22873000Y-64127000D01*
X21507750Y-64127000D01*
X21349000Y-64285750D01*
X21349000Y-64993868D01*
X20385000Y-64029868D01*
X20385000Y-62857691D01*
X21349000Y-62857691D01*
X21349000Y-63714250D01*
X21507750Y-63873000D01*
X22873000Y-63873000D01*
X22873000Y-62507750D01*
X22714250Y-62349000D01*
X21857690Y-62349000D01*
X21624301Y-62445673D01*
X21445673Y-62624302D01*
X21349000Y-62857691D01*
X20385000Y-62857691D01*
X20385000Y-61000000D01*
X20298603Y-60565654D01*
X20111577Y-60285750D01*
X20315000Y-60285750D01*
X20315000Y-60501310D01*
X20411673Y-60734699D01*
X20590302Y-60913327D01*
X20823691Y-61010000D01*
X21264250Y-61010000D01*
X21423000Y-60851250D01*
X21423000Y-60127000D01*
X20473750Y-60127000D01*
X20315000Y-60285750D01*
X20111577Y-60285750D01*
X20052566Y-60197434D01*
X19353822Y-59498690D01*
X20315000Y-59498690D01*
X20315000Y-59714250D01*
X20473750Y-59873000D01*
X21423000Y-59873000D01*
X21423000Y-59148750D01*
X21264250Y-58990000D01*
X20823691Y-58990000D01*
X20590302Y-59086673D01*
X20411673Y-59265301D01*
X20315000Y-59498690D01*
X19353822Y-59498690D01*
X18385000Y-58529868D01*
X18385000Y-48535750D01*
X20065000Y-48535750D01*
X20065000Y-48751310D01*
X20161673Y-48984699D01*
X20340302Y-49163327D01*
X20573691Y-49260000D01*
X21014250Y-49260000D01*
X21173000Y-49101250D01*
X21173000Y-48377000D01*
X20223750Y-48377000D01*
X20065000Y-48535750D01*
X18385000Y-48535750D01*
X18385000Y-47748690D01*
X20065000Y-47748690D01*
X20065000Y-47964250D01*
X20223750Y-48123000D01*
X21173000Y-48123000D01*
X21173000Y-47398750D01*
X21014250Y-47240000D01*
X20573691Y-47240000D01*
X20340302Y-47336673D01*
X20161673Y-47515301D01*
X20065000Y-47748690D01*
X18385000Y-47748690D01*
X18385000Y-45885750D01*
X20065000Y-45885750D01*
X20065000Y-46226310D01*
X20161673Y-46459699D01*
X20340302Y-46638327D01*
X20573691Y-46735000D01*
X21214250Y-46735000D01*
X21373000Y-46576250D01*
X21373000Y-45727000D01*
X21627000Y-45727000D01*
X21627000Y-46576250D01*
X21785750Y-46735000D01*
X22426309Y-46735000D01*
X22659698Y-46638327D01*
X22838327Y-46459699D01*
X22935000Y-46226310D01*
X22935000Y-45885750D01*
X22776250Y-45727000D01*
X21627000Y-45727000D01*
X21373000Y-45727000D01*
X20223750Y-45727000D01*
X20065000Y-45885750D01*
X18385000Y-45885750D01*
X18385000Y-41028287D01*
X20652560Y-36682131D01*
X20652560Y-37250000D01*
G36*
X44152560Y-71700000D02*
X44196838Y-71935317D01*
X44335910Y-72151441D01*
X44548110Y-72296431D01*
X44800000Y-72347440D01*
X46000000Y-72347440D01*
X46235317Y-72303162D01*
X46451441Y-72164090D01*
X46499134Y-72094289D01*
X46535910Y-72151441D01*
X46748110Y-72296431D01*
X47000000Y-72347440D01*
X48200000Y-72347440D01*
X48435317Y-72303162D01*
X48651441Y-72164090D01*
X48671317Y-72135000D01*
X48997424Y-72135000D01*
X48953780Y-72350520D01*
X48953780Y-72543941D01*
X47924210Y-73573510D01*
X47896487Y-73615000D01*
X43933026Y-73615000D01*
X43988327Y-73559699D01*
X44085000Y-73326310D01*
X44085000Y-73035750D01*
X43926250Y-72877000D01*
X42977000Y-72877000D01*
X42977000Y-72897000D01*
X42723000Y-72897000D01*
X42723000Y-72877000D01*
X42703000Y-72877000D01*
X42703000Y-72623000D01*
X42723000Y-72623000D01*
X42723000Y-72603000D01*
X42977000Y-72603000D01*
X42977000Y-72623000D01*
X43926250Y-72623000D01*
X44085000Y-72464250D01*
X44085000Y-72173690D01*
X43988327Y-71940301D01*
X43809698Y-71761673D01*
X43594271Y-71672440D01*
X43880000Y-71672440D01*
X44115317Y-71628162D01*
X44152560Y-71604197D01*
X44152560Y-71700000D01*
X44152560Y-71700000D01*
G37*
X44152560Y-71700000D02*
X44196838Y-71935317D01*
X44335910Y-72151441D01*
X44548110Y-72296431D01*
X44800000Y-72347440D01*
X46000000Y-72347440D01*
X46235317Y-72303162D01*
X46451441Y-72164090D01*
X46499134Y-72094289D01*
X46535910Y-72151441D01*
X46748110Y-72296431D01*
X47000000Y-72347440D01*
X48200000Y-72347440D01*
X48435317Y-72303162D01*
X48651441Y-72164090D01*
X48671317Y-72135000D01*
X48997424Y-72135000D01*
X48953780Y-72350520D01*
X48953780Y-72543941D01*
X47924210Y-73573510D01*
X47896487Y-73615000D01*
X43933026Y-73615000D01*
X43988327Y-73559699D01*
X44085000Y-73326310D01*
X44085000Y-73035750D01*
X43926250Y-72877000D01*
X42977000Y-72877000D01*
X42977000Y-72897000D01*
X42723000Y-72897000D01*
X42723000Y-72877000D01*
X42703000Y-72877000D01*
X42703000Y-72623000D01*
X42723000Y-72623000D01*
X42723000Y-72603000D01*
X42977000Y-72603000D01*
X42977000Y-72623000D01*
X43926250Y-72623000D01*
X44085000Y-72464250D01*
X44085000Y-72173690D01*
X43988327Y-71940301D01*
X43809698Y-71761673D01*
X43594271Y-71672440D01*
X43880000Y-71672440D01*
X44115317Y-71628162D01*
X44152560Y-71604197D01*
X44152560Y-71700000D01*
G36*
X41855910Y-71476441D02*
X42068110Y-71621431D01*
X42283260Y-71665000D01*
X42123691Y-71665000D01*
X41890302Y-71761673D01*
X41749064Y-71902910D01*
X41714090Y-71848559D01*
X41501890Y-71703569D01*
X41285000Y-71659648D01*
X41285000Y-71652683D01*
X41415317Y-71628162D01*
X41631441Y-71489090D01*
X41751233Y-71313768D01*
X41855910Y-71476441D01*
X41855910Y-71476441D01*
G37*
X41855910Y-71476441D02*
X42068110Y-71621431D01*
X42283260Y-71665000D01*
X42123691Y-71665000D01*
X41890302Y-71761673D01*
X41749064Y-71902910D01*
X41714090Y-71848559D01*
X41501890Y-71703569D01*
X41285000Y-71659648D01*
X41285000Y-71652683D01*
X41415317Y-71628162D01*
X41631441Y-71489090D01*
X41751233Y-71313768D01*
X41855910Y-71476441D01*
G36*
X41843750Y-69623000D02*
X41924051Y-69623000D01*
X42068110Y-69721431D01*
X42205120Y-69749176D01*
X42084683Y-69771838D01*
X41921257Y-69877000D01*
X41843750Y-69877000D01*
X41704035Y-70016715D01*
X41644090Y-69923559D01*
X41431890Y-69778569D01*
X41294880Y-69750824D01*
X41415317Y-69728162D01*
X41631441Y-69589090D01*
X41703856Y-69483106D01*
X41843750Y-69623000D01*
X41843750Y-69623000D01*
G37*
X41843750Y-69623000D02*
X41924051Y-69623000D01*
X42068110Y-69721431D01*
X42205120Y-69749176D01*
X42084683Y-69771838D01*
X41921257Y-69877000D01*
X41843750Y-69877000D01*
X41704035Y-70016715D01*
X41644090Y-69923559D01*
X41431890Y-69778569D01*
X41294880Y-69750824D01*
X41415317Y-69728162D01*
X41631441Y-69589090D01*
X41703856Y-69483106D01*
X41843750Y-69623000D01*
G36*
X46374208Y-27875787D02*
X46374210Y-27875790D01*
X46661325Y-28067633D01*
X46694390Y-28074210D01*
X47000000Y-28135001D01*
X47000005Y-28135000D01*
X49999995Y-28135000D01*
X50000000Y-28135001D01*
X50305610Y-28074210D01*
X50338675Y-28067633D01*
X50625790Y-27875790D01*
X51725787Y-26775792D01*
X51725790Y-26775790D01*
X51917633Y-26488675D01*
X51942383Y-26364250D01*
X51957355Y-26288981D01*
X52151441Y-26164090D01*
X52171317Y-26135000D01*
X53615000Y-26135000D01*
X53615000Y-27432677D01*
X53501999Y-27598060D01*
X53450990Y-27849950D01*
X53450990Y-28650050D01*
X53495268Y-28885367D01*
X53634340Y-29101491D01*
X53846540Y-29246481D01*
X54098430Y-29297490D01*
X54113860Y-29297490D01*
X54113860Y-31998855D01*
X54113859Y-31998860D01*
X54146907Y-32164999D01*
X54181227Y-32337535D01*
X54320378Y-32545790D01*
X54373070Y-32624650D01*
X57574208Y-35825787D01*
X57574210Y-35825790D01*
X57685274Y-35900000D01*
X57861326Y-36017634D01*
X58200000Y-36085001D01*
X58200005Y-36085000D01*
X68314791Y-36085000D01*
X68368110Y-36121431D01*
X68620000Y-36172440D01*
X69680000Y-36172440D01*
X69915317Y-36128162D01*
X70131441Y-35989090D01*
X70251233Y-35813768D01*
X70355910Y-35976441D01*
X70465000Y-36050979D01*
X70465000Y-37228808D01*
X70298559Y-37335910D01*
X70252031Y-37404006D01*
X70109698Y-37261673D01*
X69876309Y-37165000D01*
X69435750Y-37165000D01*
X69277000Y-37323750D01*
X69277000Y-38123000D01*
X69297000Y-38123000D01*
X69297000Y-38377000D01*
X69277000Y-38377000D01*
X69277000Y-38397000D01*
X69023000Y-38397000D01*
X69023000Y-38377000D01*
X68073750Y-38377000D01*
X67915000Y-38535750D01*
X67915000Y-38615000D01*
X40285000Y-38615000D01*
X40285000Y-38021192D01*
X40451441Y-37914090D01*
X40499134Y-37844289D01*
X40535910Y-37901441D01*
X40748110Y-38046431D01*
X41000000Y-38097440D01*
X42200000Y-38097440D01*
X42435317Y-38053162D01*
X42651441Y-37914090D01*
X42796431Y-37701890D01*
X42802141Y-37673690D01*
X67915000Y-37673690D01*
X67915000Y-37964250D01*
X68073750Y-38123000D01*
X69023000Y-38123000D01*
X69023000Y-37323750D01*
X68864250Y-37165000D01*
X68423691Y-37165000D01*
X68190302Y-37261673D01*
X68011673Y-37440301D01*
X67915000Y-37673690D01*
X42802141Y-37673690D01*
X42847440Y-37450000D01*
X42847440Y-36788826D01*
X42885000Y-36600000D01*
X42885000Y-35678386D01*
X42971431Y-35551890D01*
X43022440Y-35300000D01*
X43022440Y-34100000D01*
X42978162Y-33864683D01*
X42911671Y-33761354D01*
X42913327Y-33759698D01*
X43010000Y-33526309D01*
X43010000Y-33085750D01*
X42851250Y-32927000D01*
X42127000Y-32927000D01*
X42127000Y-32947000D01*
X41873000Y-32947000D01*
X41873000Y-32927000D01*
X41853000Y-32927000D01*
X41853000Y-32673000D01*
X41873000Y-32673000D01*
X41873000Y-31723750D01*
X42127000Y-31723750D01*
X42127000Y-32673000D01*
X42851250Y-32673000D01*
X43010000Y-32514250D01*
X43010000Y-32073691D01*
X42913327Y-31840302D01*
X42734699Y-31661673D01*
X42501310Y-31565000D01*
X42285750Y-31565000D01*
X42127000Y-31723750D01*
X41873000Y-31723750D01*
X41714250Y-31565000D01*
X41498690Y-31565000D01*
X41265301Y-31661673D01*
X41086673Y-31840302D01*
X40990000Y-32073691D01*
X40990000Y-32438420D01*
X40285000Y-31733420D01*
X40285000Y-28725137D01*
X40290000Y-28700000D01*
X40290000Y-28255209D01*
X40326431Y-28201890D01*
X40377440Y-27950000D01*
X40377440Y-26250000D01*
X40333162Y-26014683D01*
X40194090Y-25798559D01*
X40072053Y-25715175D01*
X40151441Y-25664090D01*
X40171317Y-25635000D01*
X44133420Y-25635000D01*
X46374208Y-27875787D01*
X46374208Y-27875787D01*
G37*
X46374208Y-27875787D02*
X46374210Y-27875790D01*
X46661325Y-28067633D01*
X46694390Y-28074210D01*
X47000000Y-28135001D01*
X47000005Y-28135000D01*
X49999995Y-28135000D01*
X50000000Y-28135001D01*
X50305610Y-28074210D01*
X50338675Y-28067633D01*
X50625790Y-27875790D01*
X51725787Y-26775792D01*
X51725790Y-26775790D01*
X51917633Y-26488675D01*
X51942383Y-26364250D01*
X51957355Y-26288981D01*
X52151441Y-26164090D01*
X52171317Y-26135000D01*
X53615000Y-26135000D01*
X53615000Y-27432677D01*
X53501999Y-27598060D01*
X53450990Y-27849950D01*
X53450990Y-28650050D01*
X53495268Y-28885367D01*
X53634340Y-29101491D01*
X53846540Y-29246481D01*
X54098430Y-29297490D01*
X54113860Y-29297490D01*
X54113860Y-31998855D01*
X54113859Y-31998860D01*
X54146907Y-32164999D01*
X54181227Y-32337535D01*
X54320378Y-32545790D01*
X54373070Y-32624650D01*
X57574208Y-35825787D01*
X57574210Y-35825790D01*
X57685274Y-35900000D01*
X57861326Y-36017634D01*
X58200000Y-36085001D01*
X58200005Y-36085000D01*
X68314791Y-36085000D01*
X68368110Y-36121431D01*
X68620000Y-36172440D01*
X69680000Y-36172440D01*
X69915317Y-36128162D01*
X70131441Y-35989090D01*
X70251233Y-35813768D01*
X70355910Y-35976441D01*
X70465000Y-36050979D01*
X70465000Y-37228808D01*
X70298559Y-37335910D01*
X70252031Y-37404006D01*
X70109698Y-37261673D01*
X69876309Y-37165000D01*
X69435750Y-37165000D01*
X69277000Y-37323750D01*
X69277000Y-38123000D01*
X69297000Y-38123000D01*
X69297000Y-38377000D01*
X69277000Y-38377000D01*
X69277000Y-38397000D01*
X69023000Y-38397000D01*
X69023000Y-38377000D01*
X68073750Y-38377000D01*
X67915000Y-38535750D01*
X67915000Y-38615000D01*
X40285000Y-38615000D01*
X40285000Y-38021192D01*
X40451441Y-37914090D01*
X40499134Y-37844289D01*
X40535910Y-37901441D01*
X40748110Y-38046431D01*
X41000000Y-38097440D01*
X42200000Y-38097440D01*
X42435317Y-38053162D01*
X42651441Y-37914090D01*
X42796431Y-37701890D01*
X42802141Y-37673690D01*
X67915000Y-37673690D01*
X67915000Y-37964250D01*
X68073750Y-38123000D01*
X69023000Y-38123000D01*
X69023000Y-37323750D01*
X68864250Y-37165000D01*
X68423691Y-37165000D01*
X68190302Y-37261673D01*
X68011673Y-37440301D01*
X67915000Y-37673690D01*
X42802141Y-37673690D01*
X42847440Y-37450000D01*
X42847440Y-36788826D01*
X42885000Y-36600000D01*
X42885000Y-35678386D01*
X42971431Y-35551890D01*
X43022440Y-35300000D01*
X43022440Y-34100000D01*
X42978162Y-33864683D01*
X42911671Y-33761354D01*
X42913327Y-33759698D01*
X43010000Y-33526309D01*
X43010000Y-33085750D01*
X42851250Y-32927000D01*
X42127000Y-32927000D01*
X42127000Y-32947000D01*
X41873000Y-32947000D01*
X41873000Y-32927000D01*
X41853000Y-32927000D01*
X41853000Y-32673000D01*
X41873000Y-32673000D01*
X41873000Y-31723750D01*
X42127000Y-31723750D01*
X42127000Y-32673000D01*
X42851250Y-32673000D01*
X43010000Y-32514250D01*
X43010000Y-32073691D01*
X42913327Y-31840302D01*
X42734699Y-31661673D01*
X42501310Y-31565000D01*
X42285750Y-31565000D01*
X42127000Y-31723750D01*
X41873000Y-31723750D01*
X41714250Y-31565000D01*
X41498690Y-31565000D01*
X41265301Y-31661673D01*
X41086673Y-31840302D01*
X40990000Y-32073691D01*
X40990000Y-32438420D01*
X40285000Y-31733420D01*
X40285000Y-28725137D01*
X40290000Y-28700000D01*
X40290000Y-28255209D01*
X40326431Y-28201890D01*
X40377440Y-27950000D01*
X40377440Y-26250000D01*
X40333162Y-26014683D01*
X40194090Y-25798559D01*
X40072053Y-25715175D01*
X40151441Y-25664090D01*
X40171317Y-25635000D01*
X44133420Y-25635000D01*
X46374208Y-27875787D01*
G36*
X68519868Y-26875000D02*
X65697434Y-29697434D01*
X65451397Y-30065654D01*
X65365000Y-30500000D01*
X65365000Y-31300000D01*
X65451397Y-31734346D01*
X65477560Y-31773502D01*
X65477560Y-31900000D01*
X65521838Y-32135317D01*
X65588329Y-32238646D01*
X65586673Y-32240302D01*
X65490000Y-32473691D01*
X65490000Y-32914250D01*
X65648750Y-33073000D01*
X66373000Y-33073000D01*
X66373000Y-33053000D01*
X66627000Y-33053000D01*
X66627000Y-33073000D01*
X67351250Y-33073000D01*
X67510000Y-32914250D01*
X67510000Y-32473691D01*
X67413327Y-32240302D01*
X67411957Y-32238932D01*
X67471431Y-32151890D01*
X67512135Y-31950887D01*
X67546838Y-32135317D01*
X67685910Y-32351441D01*
X67898110Y-32496431D01*
X68015000Y-32520102D01*
X68015000Y-32765425D01*
X67972560Y-32975000D01*
X67972560Y-33625000D01*
X67998919Y-33765086D01*
X67985000Y-33798690D01*
X67985000Y-33964250D01*
X68143750Y-34123000D01*
X68224051Y-34123000D01*
X68368110Y-34221431D01*
X68505120Y-34249176D01*
X68384683Y-34271838D01*
X68317607Y-34315000D01*
X67258026Y-34315000D01*
X67413327Y-34159698D01*
X67510000Y-33926309D01*
X67510000Y-33485750D01*
X67351250Y-33327000D01*
X66627000Y-33327000D01*
X66627000Y-33347000D01*
X66373000Y-33347000D01*
X66373000Y-33327000D01*
X65648750Y-33327000D01*
X65490000Y-33485750D01*
X65490000Y-33926309D01*
X65586673Y-34159698D01*
X65741974Y-34315000D01*
X58566579Y-34315000D01*
X55883860Y-31632280D01*
X55883860Y-29297490D01*
X55899290Y-29297490D01*
X56134607Y-29253212D01*
X56350731Y-29114140D01*
X56453270Y-28964069D01*
X56453270Y-29600050D01*
X56497548Y-29835367D01*
X56636620Y-30051491D01*
X56848820Y-30196481D01*
X57100710Y-30247490D01*
X58901570Y-30247490D01*
X59136887Y-30203212D01*
X59320594Y-30085000D01*
X60488569Y-30085000D01*
X60550000Y-30097440D01*
X61450000Y-30097440D01*
X61685317Y-30053162D01*
X61901441Y-29914090D01*
X62043281Y-29706500D01*
X62182484Y-29678810D01*
X62238675Y-29667633D01*
X62525790Y-29475790D01*
X62525791Y-29475789D01*
X63125787Y-28875792D01*
X63125790Y-28875790D01*
X63317633Y-28588675D01*
X63333019Y-28511325D01*
X63385001Y-28250000D01*
X63385000Y-28249995D01*
X63385000Y-23323523D01*
X63673461Y-23035564D01*
X63884759Y-22526702D01*
X63885009Y-22240141D01*
X68519868Y-26875000D01*
X68519868Y-26875000D01*
G37*
X68519868Y-26875000D02*
X65697434Y-29697434D01*
X65451397Y-30065654D01*
X65365000Y-30500000D01*
X65365000Y-31300000D01*
X65451397Y-31734346D01*
X65477560Y-31773502D01*
X65477560Y-31900000D01*
X65521838Y-32135317D01*
X65588329Y-32238646D01*
X65586673Y-32240302D01*
X65490000Y-32473691D01*
X65490000Y-32914250D01*
X65648750Y-33073000D01*
X66373000Y-33073000D01*
X66373000Y-33053000D01*
X66627000Y-33053000D01*
X66627000Y-33073000D01*
X67351250Y-33073000D01*
X67510000Y-32914250D01*
X67510000Y-32473691D01*
X67413327Y-32240302D01*
X67411957Y-32238932D01*
X67471431Y-32151890D01*
X67512135Y-31950887D01*
X67546838Y-32135317D01*
X67685910Y-32351441D01*
X67898110Y-32496431D01*
X68015000Y-32520102D01*
X68015000Y-32765425D01*
X67972560Y-32975000D01*
X67972560Y-33625000D01*
X67998919Y-33765086D01*
X67985000Y-33798690D01*
X67985000Y-33964250D01*
X68143750Y-34123000D01*
X68224051Y-34123000D01*
X68368110Y-34221431D01*
X68505120Y-34249176D01*
X68384683Y-34271838D01*
X68317607Y-34315000D01*
X67258026Y-34315000D01*
X67413327Y-34159698D01*
X67510000Y-33926309D01*
X67510000Y-33485750D01*
X67351250Y-33327000D01*
X66627000Y-33327000D01*
X66627000Y-33347000D01*
X66373000Y-33347000D01*
X66373000Y-33327000D01*
X65648750Y-33327000D01*
X65490000Y-33485750D01*
X65490000Y-33926309D01*
X65586673Y-34159698D01*
X65741974Y-34315000D01*
X58566579Y-34315000D01*
X55883860Y-31632280D01*
X55883860Y-29297490D01*
X55899290Y-29297490D01*
X56134607Y-29253212D01*
X56350731Y-29114140D01*
X56453270Y-28964069D01*
X56453270Y-29600050D01*
X56497548Y-29835367D01*
X56636620Y-30051491D01*
X56848820Y-30196481D01*
X57100710Y-30247490D01*
X58901570Y-30247490D01*
X59136887Y-30203212D01*
X59320594Y-30085000D01*
X60488569Y-30085000D01*
X60550000Y-30097440D01*
X61450000Y-30097440D01*
X61685317Y-30053162D01*
X61901441Y-29914090D01*
X62043281Y-29706500D01*
X62182484Y-29678810D01*
X62238675Y-29667633D01*
X62525790Y-29475790D01*
X62525791Y-29475789D01*
X63125787Y-28875792D01*
X63125790Y-28875790D01*
X63317633Y-28588675D01*
X63333019Y-28511325D01*
X63385001Y-28250000D01*
X63385000Y-28249995D01*
X63385000Y-23323523D01*
X63673461Y-23035564D01*
X63884759Y-22526702D01*
X63885009Y-22240141D01*
X68519868Y-26875000D01*
G36*
X39489738Y-19299040D02*
X39616110Y-19604883D01*
X39376695Y-19604674D01*
X38683628Y-19891043D01*
X38152907Y-20420839D01*
X37865328Y-21113405D01*
X37864674Y-21863305D01*
X38151043Y-22556372D01*
X38680839Y-23087093D01*
X39373405Y-23374672D01*
X40123305Y-23375326D01*
X40816372Y-23088957D01*
X41347093Y-22559161D01*
X41634672Y-21866595D01*
X41635326Y-21116695D01*
X41473524Y-20725104D01*
X44641583Y-23893162D01*
X44500000Y-23864999D01*
X44499995Y-23865000D01*
X40174669Y-23865000D01*
X40164090Y-23848559D01*
X39951890Y-23703569D01*
X39700000Y-23652560D01*
X38500000Y-23652560D01*
X38264683Y-23696838D01*
X38048559Y-23835910D01*
X38000866Y-23905711D01*
X37964090Y-23848559D01*
X37751890Y-23703569D01*
X37500000Y-23652560D01*
X36300000Y-23652560D01*
X36064683Y-23696838D01*
X35848559Y-23835910D01*
X35703569Y-24048110D01*
X35652560Y-24300000D01*
X35652560Y-25200000D01*
X35696838Y-25435317D01*
X35835910Y-25651441D01*
X35840900Y-25654850D01*
X35722000Y-25773750D01*
X35722000Y-26973000D01*
X35742000Y-26973000D01*
X35742000Y-27227000D01*
X35722000Y-27227000D01*
X35722000Y-28426250D01*
X35880750Y-28585000D01*
X36046310Y-28585000D01*
X36231993Y-28508088D01*
X36288110Y-28546431D01*
X36540000Y-28597440D01*
X37190000Y-28597440D01*
X37425317Y-28553162D01*
X37498778Y-28505891D01*
X37558110Y-28546431D01*
X37810000Y-28597440D01*
X38460000Y-28597440D01*
X38520000Y-28586150D01*
X38520000Y-28674863D01*
X38515000Y-28700000D01*
X38515000Y-29115000D01*
X35116579Y-29115000D01*
X33387330Y-27385750D01*
X34635000Y-27385750D01*
X34635000Y-28076309D01*
X34731673Y-28309698D01*
X34910301Y-28488327D01*
X35143690Y-28585000D01*
X35309250Y-28585000D01*
X35468000Y-28426250D01*
X35468000Y-27227000D01*
X34793750Y-27227000D01*
X34635000Y-27385750D01*
X33387330Y-27385750D01*
X33113036Y-27111456D01*
X33167032Y-26840000D01*
X33061605Y-26309983D01*
X32937129Y-26123691D01*
X34635000Y-26123691D01*
X34635000Y-26814250D01*
X34793750Y-26973000D01*
X35468000Y-26973000D01*
X35468000Y-25773750D01*
X35309250Y-25615000D01*
X35143690Y-25615000D01*
X34910301Y-25711673D01*
X34731673Y-25890302D01*
X34635000Y-26123691D01*
X32937129Y-26123691D01*
X32761375Y-25860657D01*
X32318161Y-25564511D01*
X32371721Y-25549964D01*
X32802736Y-25216894D01*
X33073481Y-24744235D01*
X33092318Y-24641185D01*
X32969656Y-24427000D01*
X31627000Y-24427000D01*
X31627000Y-24447000D01*
X31373000Y-24447000D01*
X31373000Y-24427000D01*
X30030344Y-24427000D01*
X29907682Y-24641185D01*
X29926519Y-24744235D01*
X30197264Y-25216894D01*
X30628279Y-25549964D01*
X30681839Y-25564511D01*
X30238625Y-25860657D01*
X29938395Y-26309983D01*
X29832968Y-26840000D01*
X29938395Y-27370017D01*
X30238625Y-27819343D01*
X30673624Y-28110000D01*
X30238625Y-28400657D01*
X29938395Y-28849983D01*
X29832968Y-29380000D01*
X29901896Y-29726524D01*
X29124210Y-30504210D01*
X28932367Y-30791325D01*
X28932367Y-30791326D01*
X28919464Y-30856194D01*
X28659273Y-30226485D01*
X27778153Y-29343826D01*
X26626326Y-28865546D01*
X25379146Y-28864457D01*
X25143173Y-28961959D01*
X29994580Y-24110552D01*
X30030344Y-24173000D01*
X31373000Y-24173000D01*
X31373000Y-23068132D01*
X31627000Y-23068132D01*
X31627000Y-24173000D01*
X32969656Y-24173000D01*
X33092318Y-23958815D01*
X33073481Y-23855765D01*
X32802736Y-23383106D01*
X32371721Y-23050036D01*
X31846055Y-22907261D01*
X31627000Y-23068132D01*
X31373000Y-23068132D01*
X31179272Y-22925860D01*
X31407033Y-22698099D01*
X39489978Y-19024033D01*
X39489738Y-19299040D01*
X39489738Y-19299040D01*
G37*
X39489738Y-19299040D02*
X39616110Y-19604883D01*
X39376695Y-19604674D01*
X38683628Y-19891043D01*
X38152907Y-20420839D01*
X37865328Y-21113405D01*
X37864674Y-21863305D01*
X38151043Y-22556372D01*
X38680839Y-23087093D01*
X39373405Y-23374672D01*
X40123305Y-23375326D01*
X40816372Y-23088957D01*
X41347093Y-22559161D01*
X41634672Y-21866595D01*
X41635326Y-21116695D01*
X41473524Y-20725104D01*
X44641583Y-23893162D01*
X44500000Y-23864999D01*
X44499995Y-23865000D01*
X40174669Y-23865000D01*
X40164090Y-23848559D01*
X39951890Y-23703569D01*
X39700000Y-23652560D01*
X38500000Y-23652560D01*
X38264683Y-23696838D01*
X38048559Y-23835910D01*
X38000866Y-23905711D01*
X37964090Y-23848559D01*
X37751890Y-23703569D01*
X37500000Y-23652560D01*
X36300000Y-23652560D01*
X36064683Y-23696838D01*
X35848559Y-23835910D01*
X35703569Y-24048110D01*
X35652560Y-24300000D01*
X35652560Y-25200000D01*
X35696838Y-25435317D01*
X35835910Y-25651441D01*
X35840900Y-25654850D01*
X35722000Y-25773750D01*
X35722000Y-26973000D01*
X35742000Y-26973000D01*
X35742000Y-27227000D01*
X35722000Y-27227000D01*
X35722000Y-28426250D01*
X35880750Y-28585000D01*
X36046310Y-28585000D01*
X36231993Y-28508088D01*
X36288110Y-28546431D01*
X36540000Y-28597440D01*
X37190000Y-28597440D01*
X37425317Y-28553162D01*
X37498778Y-28505891D01*
X37558110Y-28546431D01*
X37810000Y-28597440D01*
X38460000Y-28597440D01*
X38520000Y-28586150D01*
X38520000Y-28674863D01*
X38515000Y-28700000D01*
X38515000Y-29115000D01*
X35116579Y-29115000D01*
X33387330Y-27385750D01*
X34635000Y-27385750D01*
X34635000Y-28076309D01*
X34731673Y-28309698D01*
X34910301Y-28488327D01*
X35143690Y-28585000D01*
X35309250Y-28585000D01*
X35468000Y-28426250D01*
X35468000Y-27227000D01*
X34793750Y-27227000D01*
X34635000Y-27385750D01*
X33387330Y-27385750D01*
X33113036Y-27111456D01*
X33167032Y-26840000D01*
X33061605Y-26309983D01*
X32937129Y-26123691D01*
X34635000Y-26123691D01*
X34635000Y-26814250D01*
X34793750Y-26973000D01*
X35468000Y-26973000D01*
X35468000Y-25773750D01*
X35309250Y-25615000D01*
X35143690Y-25615000D01*
X34910301Y-25711673D01*
X34731673Y-25890302D01*
X34635000Y-26123691D01*
X32937129Y-26123691D01*
X32761375Y-25860657D01*
X32318161Y-25564511D01*
X32371721Y-25549964D01*
X32802736Y-25216894D01*
X33073481Y-24744235D01*
X33092318Y-24641185D01*
X32969656Y-24427000D01*
X31627000Y-24427000D01*
X31627000Y-24447000D01*
X31373000Y-24447000D01*
X31373000Y-24427000D01*
X30030344Y-24427000D01*
X29907682Y-24641185D01*
X29926519Y-24744235D01*
X30197264Y-25216894D01*
X30628279Y-25549964D01*
X30681839Y-25564511D01*
X30238625Y-25860657D01*
X29938395Y-26309983D01*
X29832968Y-26840000D01*
X29938395Y-27370017D01*
X30238625Y-27819343D01*
X30673624Y-28110000D01*
X30238625Y-28400657D01*
X29938395Y-28849983D01*
X29832968Y-29380000D01*
X29901896Y-29726524D01*
X29124210Y-30504210D01*
X28932367Y-30791325D01*
X28932367Y-30791326D01*
X28919464Y-30856194D01*
X28659273Y-30226485D01*
X27778153Y-29343826D01*
X26626326Y-28865546D01*
X25379146Y-28864457D01*
X25143173Y-28961959D01*
X29994580Y-24110552D01*
X30030344Y-24173000D01*
X31373000Y-24173000D01*
X31373000Y-23068132D01*
X31627000Y-23068132D01*
X31627000Y-24173000D01*
X32969656Y-24173000D01*
X33092318Y-23958815D01*
X33073481Y-23855765D01*
X32802736Y-23383106D01*
X32371721Y-23050036D01*
X31846055Y-22907261D01*
X31627000Y-23068132D01*
X31373000Y-23068132D01*
X31179272Y-22925860D01*
X31407033Y-22698099D01*
X39489978Y-19024033D01*
X39489738Y-19299040D01*
G36*
X57405438Y-17920782D02*
X57323306Y-18002914D01*
X57437938Y-18117546D01*
X57184047Y-18200884D01*
X56978410Y-18765306D01*
X57004421Y-19365458D01*
X57184047Y-19799116D01*
X57437940Y-19882455D01*
X58320395Y-19000000D01*
X58306253Y-18985858D01*
X58485858Y-18806253D01*
X58500000Y-18820395D01*
X58514143Y-18806253D01*
X58693748Y-18985858D01*
X58679605Y-19000000D01*
X58693748Y-19014143D01*
X58514143Y-19193748D01*
X58500000Y-19179605D01*
X57617545Y-20062060D01*
X57700884Y-20315953D01*
X58140025Y-20475946D01*
X57875328Y-21113405D01*
X57874674Y-21863305D01*
X58161043Y-22556372D01*
X58690839Y-23087093D01*
X59383405Y-23374672D01*
X60133305Y-23375326D01*
X60826372Y-23088957D01*
X61195729Y-22720244D01*
X61325169Y-23033515D01*
X61615000Y-23323852D01*
X61615000Y-25431026D01*
X61576310Y-25415000D01*
X61285750Y-25415000D01*
X61127000Y-25573750D01*
X61127000Y-26523000D01*
X61147000Y-26523000D01*
X61147000Y-26777000D01*
X61127000Y-26777000D01*
X61127000Y-26797000D01*
X60873000Y-26797000D01*
X60873000Y-26777000D01*
X60073750Y-26777000D01*
X59915000Y-26935750D01*
X59915000Y-27376309D01*
X60011673Y-27609698D01*
X60152910Y-27750936D01*
X60098559Y-27785910D01*
X59953569Y-27998110D01*
X59902560Y-28250000D01*
X59902560Y-28315000D01*
X59316618Y-28315000D01*
X59225911Y-28253023D01*
X59261269Y-28238377D01*
X59439897Y-28059748D01*
X59536570Y-27826359D01*
X59536570Y-27585750D01*
X59377820Y-27427000D01*
X58128140Y-27427000D01*
X58128140Y-27447000D01*
X57874140Y-27447000D01*
X57874140Y-27427000D01*
X56624460Y-27427000D01*
X56476757Y-27574703D01*
X56363380Y-27398509D01*
X56151180Y-27253519D01*
X55899290Y-27202510D01*
X55385000Y-27202510D01*
X55385000Y-26347440D01*
X56000000Y-26347440D01*
X56235317Y-26303162D01*
X56451441Y-26164090D01*
X56497969Y-26095994D01*
X56640302Y-26238327D01*
X56839488Y-26320833D01*
X56741011Y-26361623D01*
X56562383Y-26540252D01*
X56465710Y-26773641D01*
X56465710Y-27014250D01*
X56624460Y-27173000D01*
X57874140Y-27173000D01*
X57874140Y-27153000D01*
X58128140Y-27153000D01*
X58128140Y-27173000D01*
X59377820Y-27173000D01*
X59536570Y-27014250D01*
X59536570Y-26773641D01*
X59439897Y-26540252D01*
X59261269Y-26361623D01*
X59027880Y-26264950D01*
X58495424Y-26264950D01*
X58559698Y-26238327D01*
X58738327Y-26059699D01*
X58794663Y-25923691D01*
X59915000Y-25923691D01*
X59915000Y-26364250D01*
X60073750Y-26523000D01*
X60873000Y-26523000D01*
X60873000Y-25573750D01*
X60714250Y-25415000D01*
X60423690Y-25415000D01*
X60190301Y-25511673D01*
X60011673Y-25690302D01*
X59915000Y-25923691D01*
X58794663Y-25923691D01*
X58835000Y-25826310D01*
X58835000Y-25535750D01*
X58676250Y-25377000D01*
X57727000Y-25377000D01*
X57727000Y-25397000D01*
X57473000Y-25397000D01*
X57473000Y-25377000D01*
X57453000Y-25377000D01*
X57453000Y-25123000D01*
X57473000Y-25123000D01*
X57473000Y-24323750D01*
X57727000Y-24323750D01*
X57727000Y-25123000D01*
X58676250Y-25123000D01*
X58835000Y-24964250D01*
X58835000Y-24673690D01*
X58738327Y-24440301D01*
X58559698Y-24261673D01*
X58326309Y-24165000D01*
X57885750Y-24165000D01*
X57727000Y-24323750D01*
X57473000Y-24323750D01*
X57314250Y-24165000D01*
X56873691Y-24165000D01*
X56640302Y-24261673D01*
X56499064Y-24402910D01*
X56464090Y-24348559D01*
X56285000Y-24226192D01*
X56285000Y-20400005D01*
X56285001Y-20400000D01*
X56217633Y-20061326D01*
X56217633Y-20061325D01*
X56025790Y-19774210D01*
X56025787Y-19774208D01*
X55509776Y-19258197D01*
X55510262Y-18700960D01*
X55280862Y-18145771D01*
X55020546Y-17885000D01*
X57304599Y-17885000D01*
X57405438Y-17920782D01*
X57405438Y-17920782D01*
G37*
X57405438Y-17920782D02*
X57323306Y-18002914D01*
X57437938Y-18117546D01*
X57184047Y-18200884D01*
X56978410Y-18765306D01*
X57004421Y-19365458D01*
X57184047Y-19799116D01*
X57437940Y-19882455D01*
X58320395Y-19000000D01*
X58306253Y-18985858D01*
X58485858Y-18806253D01*
X58500000Y-18820395D01*
X58514143Y-18806253D01*
X58693748Y-18985858D01*
X58679605Y-19000000D01*
X58693748Y-19014143D01*
X58514143Y-19193748D01*
X58500000Y-19179605D01*
X57617545Y-20062060D01*
X57700884Y-20315953D01*
X58140025Y-20475946D01*
X57875328Y-21113405D01*
X57874674Y-21863305D01*
X58161043Y-22556372D01*
X58690839Y-23087093D01*
X59383405Y-23374672D01*
X60133305Y-23375326D01*
X60826372Y-23088957D01*
X61195729Y-22720244D01*
X61325169Y-23033515D01*
X61615000Y-23323852D01*
X61615000Y-25431026D01*
X61576310Y-25415000D01*
X61285750Y-25415000D01*
X61127000Y-25573750D01*
X61127000Y-26523000D01*
X61147000Y-26523000D01*
X61147000Y-26777000D01*
X61127000Y-26777000D01*
X61127000Y-26797000D01*
X60873000Y-26797000D01*
X60873000Y-26777000D01*
X60073750Y-26777000D01*
X59915000Y-26935750D01*
X59915000Y-27376309D01*
X60011673Y-27609698D01*
X60152910Y-27750936D01*
X60098559Y-27785910D01*
X59953569Y-27998110D01*
X59902560Y-28250000D01*
X59902560Y-28315000D01*
X59316618Y-28315000D01*
X59225911Y-28253023D01*
X59261269Y-28238377D01*
X59439897Y-28059748D01*
X59536570Y-27826359D01*
X59536570Y-27585750D01*
X59377820Y-27427000D01*
X58128140Y-27427000D01*
X58128140Y-27447000D01*
X57874140Y-27447000D01*
X57874140Y-27427000D01*
X56624460Y-27427000D01*
X56476757Y-27574703D01*
X56363380Y-27398509D01*
X56151180Y-27253519D01*
X55899290Y-27202510D01*
X55385000Y-27202510D01*
X55385000Y-26347440D01*
X56000000Y-26347440D01*
X56235317Y-26303162D01*
X56451441Y-26164090D01*
X56497969Y-26095994D01*
X56640302Y-26238327D01*
X56839488Y-26320833D01*
X56741011Y-26361623D01*
X56562383Y-26540252D01*
X56465710Y-26773641D01*
X56465710Y-27014250D01*
X56624460Y-27173000D01*
X57874140Y-27173000D01*
X57874140Y-27153000D01*
X58128140Y-27153000D01*
X58128140Y-27173000D01*
X59377820Y-27173000D01*
X59536570Y-27014250D01*
X59536570Y-26773641D01*
X59439897Y-26540252D01*
X59261269Y-26361623D01*
X59027880Y-26264950D01*
X58495424Y-26264950D01*
X58559698Y-26238327D01*
X58738327Y-26059699D01*
X58794663Y-25923691D01*
X59915000Y-25923691D01*
X59915000Y-26364250D01*
X60073750Y-26523000D01*
X60873000Y-26523000D01*
X60873000Y-25573750D01*
X60714250Y-25415000D01*
X60423690Y-25415000D01*
X60190301Y-25511673D01*
X60011673Y-25690302D01*
X59915000Y-25923691D01*
X58794663Y-25923691D01*
X58835000Y-25826310D01*
X58835000Y-25535750D01*
X58676250Y-25377000D01*
X57727000Y-25377000D01*
X57727000Y-25397000D01*
X57473000Y-25397000D01*
X57473000Y-25377000D01*
X57453000Y-25377000D01*
X57453000Y-25123000D01*
X57473000Y-25123000D01*
X57473000Y-24323750D01*
X57727000Y-24323750D01*
X57727000Y-25123000D01*
X58676250Y-25123000D01*
X58835000Y-24964250D01*
X58835000Y-24673690D01*
X58738327Y-24440301D01*
X58559698Y-24261673D01*
X58326309Y-24165000D01*
X57885750Y-24165000D01*
X57727000Y-24323750D01*
X57473000Y-24323750D01*
X57314250Y-24165000D01*
X56873691Y-24165000D01*
X56640302Y-24261673D01*
X56499064Y-24402910D01*
X56464090Y-24348559D01*
X56285000Y-24226192D01*
X56285000Y-20400005D01*
X56285001Y-20400000D01*
X56217633Y-20061326D01*
X56217633Y-20061325D01*
X56025790Y-19774210D01*
X56025787Y-19774208D01*
X55509776Y-19258197D01*
X55510262Y-18700960D01*
X55280862Y-18145771D01*
X55020546Y-17885000D01*
X57304599Y-17885000D01*
X57405438Y-17920782D01*
M02*
