G04 #@! TF.FileFunction,Copper,L2,Bot,Signal*
%FSLAX46Y46*%
G04 Gerber Fmt 4.6, Leading zero omitted, Abs format (unit mm)*
G04 Created by KiCad (PCBNEW 4.0.2-stable) date 2016. 09. 14. 22:41:56*
%MOMM*%
G01*
G04 APERTURE LIST*
%ADD10C,0.100000*%
%ADD11R,2.032000X2.032000*%
%ADD12O,2.032000X2.032000*%
%ADD13O,2.000000X1.500000*%
%ADD14C,2.500000*%
%ADD15C,1.750000*%
%ADD16C,5.000000*%
%ADD17C,1.500000*%
%ADD18C,0.500000*%
%ADD19C,0.254000*%
G04 APERTURE END LIST*
D10*
D11*
X23000000Y-64000000D03*
D12*
X25540000Y-64000000D03*
D13*
X31500000Y-37000000D03*
X31500000Y-34460000D03*
X31500000Y-31920000D03*
X31500000Y-29380000D03*
X31500000Y-26840000D03*
X31500000Y-24300000D03*
D14*
X46760000Y-21490000D03*
D15*
X45500000Y-19000000D03*
X41000000Y-19000000D03*
D14*
X39750000Y-21490000D03*
X59760000Y-21490000D03*
D15*
X58500000Y-19000000D03*
X54000000Y-19000000D03*
D14*
X52750000Y-21490000D03*
D16*
X74000000Y-68000000D03*
X26000000Y-32000000D03*
D17*
X44500000Y-37000000D03*
X21250000Y-50000000D03*
X68250000Y-22250000D03*
X62500000Y-22250000D03*
D18*
X44500000Y-37000000D02*
X31800000Y-24300000D01*
X31800000Y-24300000D02*
X31500000Y-24300000D01*
X58500000Y-19000000D02*
X58500000Y-19250000D01*
X58500000Y-19250000D02*
X57500000Y-20250000D01*
X44500000Y-37000000D02*
X54000000Y-37000000D01*
X57500000Y-33500000D02*
X57500000Y-20250000D01*
X54000000Y-37000000D02*
X57500000Y-33500000D01*
X21250000Y-50000000D02*
X31500000Y-50000000D01*
X31500000Y-50000000D02*
X44500000Y-37000000D01*
X62500000Y-22250000D02*
X68250000Y-22250000D01*
D19*
G36*
X63122215Y-18320171D02*
X67377823Y-21163677D01*
X67176148Y-21365000D01*
X63573523Y-21365000D01*
X63285564Y-21076539D01*
X62776702Y-20865241D01*
X62225715Y-20864760D01*
X61716485Y-21075169D01*
X61645300Y-21146230D01*
X61645326Y-21116695D01*
X61358957Y-20423628D01*
X60829161Y-19892907D01*
X60136595Y-19605328D01*
X59886636Y-19605110D01*
X60021590Y-19234694D01*
X59995579Y-18634542D01*
X59815953Y-18200884D01*
X59562060Y-18117545D01*
X58679605Y-19000000D01*
X58693748Y-19014143D01*
X58514143Y-19193748D01*
X58500000Y-19179605D01*
X57617545Y-20062060D01*
X57700884Y-20315953D01*
X58140025Y-20475946D01*
X57875328Y-21113405D01*
X57874674Y-21863305D01*
X58161043Y-22556372D01*
X58690839Y-23087093D01*
X59383405Y-23374672D01*
X60133305Y-23375326D01*
X60826372Y-23088957D01*
X61195729Y-22720244D01*
X61325169Y-23033515D01*
X61714436Y-23423461D01*
X62223298Y-23634759D01*
X62774285Y-23635240D01*
X63283515Y-23424831D01*
X63573852Y-23135000D01*
X67176477Y-23135000D01*
X67464436Y-23423461D01*
X67973298Y-23634759D01*
X68524285Y-23635240D01*
X69033515Y-23424831D01*
X69423461Y-23035564D01*
X69587623Y-22640218D01*
X74246692Y-25753308D01*
X81679829Y-36877785D01*
X84290000Y-50000000D01*
X81679829Y-63122215D01*
X74246692Y-74246692D01*
X63122215Y-81679829D01*
X50000000Y-84290000D01*
X36877785Y-81679829D01*
X34908343Y-80363890D01*
X46715592Y-80363890D01*
X46880362Y-80762663D01*
X47185193Y-81068026D01*
X47583677Y-81233491D01*
X48015150Y-81233868D01*
X48413923Y-81069098D01*
X48719286Y-80764267D01*
X48884751Y-80365783D01*
X48884752Y-80363890D01*
X51114872Y-80363890D01*
X51279642Y-80762663D01*
X51584473Y-81068026D01*
X51982957Y-81233491D01*
X52414430Y-81233868D01*
X52813203Y-81069098D01*
X53118566Y-80764267D01*
X53284031Y-80365783D01*
X53284408Y-79934310D01*
X53119638Y-79535537D01*
X52814807Y-79230174D01*
X52416323Y-79064709D01*
X51984850Y-79064332D01*
X51586077Y-79229102D01*
X51280714Y-79533933D01*
X51115249Y-79932417D01*
X51114872Y-80363890D01*
X48884752Y-80363890D01*
X48885128Y-79934310D01*
X48720358Y-79535537D01*
X48415527Y-79230174D01*
X48017043Y-79064709D01*
X47585570Y-79064332D01*
X47186797Y-79229102D01*
X46881434Y-79533933D01*
X46715969Y-79932417D01*
X46715592Y-80363890D01*
X34908343Y-80363890D01*
X25753308Y-74246692D01*
X21994245Y-68620854D01*
X70864457Y-68620854D01*
X71340727Y-69773515D01*
X72221847Y-70656174D01*
X73373674Y-71134454D01*
X74620854Y-71135543D01*
X75773515Y-70659273D01*
X76656174Y-69778153D01*
X77134454Y-68626326D01*
X77135543Y-67379146D01*
X76659273Y-66226485D01*
X75778153Y-65343826D01*
X74626326Y-64865546D01*
X73379146Y-64864457D01*
X72226485Y-65340727D01*
X71343826Y-66221847D01*
X70865546Y-67373674D01*
X70864457Y-68620854D01*
X21994245Y-68620854D01*
X19097621Y-64285750D01*
X21349000Y-64285750D01*
X21349000Y-65142309D01*
X21445673Y-65375698D01*
X21624301Y-65554327D01*
X21857690Y-65651000D01*
X22714250Y-65651000D01*
X22873000Y-65492250D01*
X22873000Y-64127000D01*
X21507750Y-64127000D01*
X21349000Y-64285750D01*
X19097621Y-64285750D01*
X18320171Y-63122215D01*
X18267554Y-62857691D01*
X21349000Y-62857691D01*
X21349000Y-63714250D01*
X21507750Y-63873000D01*
X22873000Y-63873000D01*
X22873000Y-62507750D01*
X23127000Y-62507750D01*
X23127000Y-63873000D01*
X23147000Y-63873000D01*
X23147000Y-64127000D01*
X23127000Y-64127000D01*
X23127000Y-65492250D01*
X23285750Y-65651000D01*
X24142310Y-65651000D01*
X24375699Y-65554327D01*
X24554327Y-65375698D01*
X24571999Y-65333034D01*
X24908190Y-65557670D01*
X25540000Y-65683345D01*
X26171810Y-65557670D01*
X26707433Y-65199778D01*
X27065325Y-64664155D01*
X27191000Y-64032345D01*
X27191000Y-63967655D01*
X27065325Y-63335845D01*
X26707433Y-62800222D01*
X26171810Y-62442330D01*
X25540000Y-62316655D01*
X24908190Y-62442330D01*
X24571999Y-62666966D01*
X24554327Y-62624302D01*
X24375699Y-62445673D01*
X24142310Y-62349000D01*
X23285750Y-62349000D01*
X23127000Y-62507750D01*
X22873000Y-62507750D01*
X22714250Y-62349000D01*
X21857690Y-62349000D01*
X21624301Y-62445673D01*
X21445673Y-62624302D01*
X21349000Y-62857691D01*
X18267554Y-62857691D01*
X15710000Y-50000000D01*
X18320171Y-36877785D01*
X21164561Y-32620854D01*
X22864457Y-32620854D01*
X23340727Y-33773515D01*
X24221847Y-34656174D01*
X25373674Y-35134454D01*
X26620854Y-35135543D01*
X27773515Y-34659273D01*
X28656174Y-33778153D01*
X29134454Y-32626326D01*
X29135543Y-31379146D01*
X28659273Y-30226485D01*
X27778153Y-29343826D01*
X26626326Y-28865546D01*
X25379146Y-28864457D01*
X24226485Y-29340727D01*
X23343826Y-30221847D01*
X22865546Y-31373674D01*
X22864457Y-32620854D01*
X21164561Y-32620854D01*
X25027203Y-26840000D01*
X29832968Y-26840000D01*
X29938395Y-27370017D01*
X30238625Y-27819343D01*
X30673624Y-28110000D01*
X30238625Y-28400657D01*
X29938395Y-28849983D01*
X29832968Y-29380000D01*
X29938395Y-29910017D01*
X30238625Y-30359343D01*
X30673624Y-30650000D01*
X30238625Y-30940657D01*
X29938395Y-31389983D01*
X29832968Y-31920000D01*
X29938395Y-32450017D01*
X30238625Y-32899343D01*
X30673624Y-33190000D01*
X30238625Y-33480657D01*
X29938395Y-33929983D01*
X29832968Y-34460000D01*
X29938395Y-34990017D01*
X30238625Y-35439343D01*
X30673624Y-35730000D01*
X30238625Y-36020657D01*
X29938395Y-36469983D01*
X29832968Y-37000000D01*
X29938395Y-37530017D01*
X30238625Y-37979343D01*
X30687951Y-38279573D01*
X31217968Y-38385000D01*
X31782032Y-38385000D01*
X32312049Y-38279573D01*
X32761375Y-37979343D01*
X33061605Y-37530017D01*
X33167032Y-37000000D01*
X33061605Y-36469983D01*
X32761375Y-36020657D01*
X32326376Y-35730000D01*
X32761375Y-35439343D01*
X33061605Y-34990017D01*
X33167032Y-34460000D01*
X33061605Y-33929983D01*
X32761375Y-33480657D01*
X32326376Y-33190000D01*
X32761375Y-32899343D01*
X33061605Y-32450017D01*
X33167032Y-31920000D01*
X33061605Y-31389983D01*
X32761375Y-30940657D01*
X32326376Y-30650000D01*
X32761375Y-30359343D01*
X33061605Y-29910017D01*
X33167032Y-29380000D01*
X33061605Y-28849983D01*
X32761375Y-28400657D01*
X32326376Y-28110000D01*
X32761375Y-27819343D01*
X33061605Y-27370017D01*
X33167032Y-26840000D01*
X33061605Y-26309983D01*
X32761375Y-25860657D01*
X32318161Y-25564511D01*
X32371721Y-25549964D01*
X32802736Y-25216894D01*
X33073481Y-24744235D01*
X33092318Y-24641185D01*
X32969656Y-24427000D01*
X31627000Y-24427000D01*
X31627000Y-24447000D01*
X31373000Y-24447000D01*
X31373000Y-24427000D01*
X30030344Y-24427000D01*
X29907682Y-24641185D01*
X29926519Y-24744235D01*
X30197264Y-25216894D01*
X30628279Y-25549964D01*
X30681839Y-25564511D01*
X30238625Y-25860657D01*
X29938395Y-26309983D01*
X29832968Y-26840000D01*
X25027203Y-26840000D01*
X25753308Y-25753308D01*
X28438956Y-23958815D01*
X29907682Y-23958815D01*
X30030344Y-24173000D01*
X31373000Y-24173000D01*
X31373000Y-23068132D01*
X31627000Y-23068132D01*
X31627000Y-24173000D01*
X32969656Y-24173000D01*
X33092318Y-23958815D01*
X33073481Y-23855765D01*
X32802736Y-23383106D01*
X32371721Y-23050036D01*
X31846055Y-22907261D01*
X31627000Y-23068132D01*
X31373000Y-23068132D01*
X31153945Y-22907261D01*
X30628279Y-23050036D01*
X30197264Y-23383106D01*
X29926519Y-23855765D01*
X29907682Y-23958815D01*
X28438956Y-23958815D01*
X36877785Y-18320171D01*
X40374490Y-17624633D01*
X40145771Y-17719138D01*
X39720630Y-18143537D01*
X39490262Y-18698325D01*
X39489738Y-19299040D01*
X39616110Y-19604883D01*
X39376695Y-19604674D01*
X38683628Y-19891043D01*
X38152907Y-20420839D01*
X37865328Y-21113405D01*
X37864674Y-21863305D01*
X38151043Y-22556372D01*
X38680839Y-23087093D01*
X39373405Y-23374672D01*
X40123305Y-23375326D01*
X40816372Y-23088957D01*
X41347093Y-22559161D01*
X41634672Y-21866595D01*
X41635326Y-21116695D01*
X41372254Y-20480011D01*
X41854229Y-20280862D01*
X42279370Y-19856463D01*
X42509738Y-19301675D01*
X42509740Y-19299040D01*
X43989738Y-19299040D01*
X44219138Y-19854229D01*
X44643537Y-20279370D01*
X45136630Y-20484120D01*
X44875328Y-21113405D01*
X44874674Y-21863305D01*
X45161043Y-22556372D01*
X45690839Y-23087093D01*
X46383405Y-23374672D01*
X47133305Y-23375326D01*
X47826372Y-23088957D01*
X48357093Y-22559161D01*
X48644672Y-21866595D01*
X48644674Y-21863305D01*
X50864674Y-21863305D01*
X51151043Y-22556372D01*
X51680839Y-23087093D01*
X52373405Y-23374672D01*
X53123305Y-23375326D01*
X53816372Y-23088957D01*
X54347093Y-22559161D01*
X54634672Y-21866595D01*
X54635326Y-21116695D01*
X54372254Y-20480011D01*
X54854229Y-20280862D01*
X55279370Y-19856463D01*
X55509738Y-19301675D01*
X55510205Y-18765306D01*
X56978410Y-18765306D01*
X57004421Y-19365458D01*
X57184047Y-19799116D01*
X57437940Y-19882455D01*
X58320395Y-19000000D01*
X57437940Y-18117545D01*
X57184047Y-18200884D01*
X56978410Y-18765306D01*
X55510205Y-18765306D01*
X55510262Y-18700960D01*
X55280862Y-18145771D01*
X55073394Y-17937940D01*
X57617545Y-17937940D01*
X58500000Y-18820395D01*
X59382455Y-17937940D01*
X59299116Y-17684047D01*
X58734694Y-17478410D01*
X58134542Y-17504421D01*
X57700884Y-17684047D01*
X57617545Y-17937940D01*
X55073394Y-17937940D01*
X54856463Y-17720630D01*
X54301675Y-17490262D01*
X53700960Y-17489738D01*
X53145771Y-17719138D01*
X52720630Y-18143537D01*
X52490262Y-18698325D01*
X52489738Y-19299040D01*
X52616110Y-19604883D01*
X52376695Y-19604674D01*
X51683628Y-19891043D01*
X51152907Y-20420839D01*
X50865328Y-21113405D01*
X50864674Y-21863305D01*
X48644674Y-21863305D01*
X48645326Y-21116695D01*
X48358957Y-20423628D01*
X47829161Y-19892907D01*
X47136595Y-19605328D01*
X46883742Y-19605107D01*
X47009738Y-19301675D01*
X47010262Y-18700960D01*
X46780862Y-18145771D01*
X46356463Y-17720630D01*
X45801675Y-17490262D01*
X45200960Y-17489738D01*
X44645771Y-17719138D01*
X44220630Y-18143537D01*
X43990262Y-18698325D01*
X43989738Y-19299040D01*
X42509740Y-19299040D01*
X42510262Y-18700960D01*
X42280862Y-18145771D01*
X41856463Y-17720630D01*
X41301675Y-17490262D01*
X41051118Y-17490043D01*
X50000000Y-15710000D01*
X63122215Y-18320171D01*
X63122215Y-18320171D01*
G37*
X63122215Y-18320171D02*
X67377823Y-21163677D01*
X67176148Y-21365000D01*
X63573523Y-21365000D01*
X63285564Y-21076539D01*
X62776702Y-20865241D01*
X62225715Y-20864760D01*
X61716485Y-21075169D01*
X61645300Y-21146230D01*
X61645326Y-21116695D01*
X61358957Y-20423628D01*
X60829161Y-19892907D01*
X60136595Y-19605328D01*
X59886636Y-19605110D01*
X60021590Y-19234694D01*
X59995579Y-18634542D01*
X59815953Y-18200884D01*
X59562060Y-18117545D01*
X58679605Y-19000000D01*
X58693748Y-19014143D01*
X58514143Y-19193748D01*
X58500000Y-19179605D01*
X57617545Y-20062060D01*
X57700884Y-20315953D01*
X58140025Y-20475946D01*
X57875328Y-21113405D01*
X57874674Y-21863305D01*
X58161043Y-22556372D01*
X58690839Y-23087093D01*
X59383405Y-23374672D01*
X60133305Y-23375326D01*
X60826372Y-23088957D01*
X61195729Y-22720244D01*
X61325169Y-23033515D01*
X61714436Y-23423461D01*
X62223298Y-23634759D01*
X62774285Y-23635240D01*
X63283515Y-23424831D01*
X63573852Y-23135000D01*
X67176477Y-23135000D01*
X67464436Y-23423461D01*
X67973298Y-23634759D01*
X68524285Y-23635240D01*
X69033515Y-23424831D01*
X69423461Y-23035564D01*
X69587623Y-22640218D01*
X74246692Y-25753308D01*
X81679829Y-36877785D01*
X84290000Y-50000000D01*
X81679829Y-63122215D01*
X74246692Y-74246692D01*
X63122215Y-81679829D01*
X50000000Y-84290000D01*
X36877785Y-81679829D01*
X34908343Y-80363890D01*
X46715592Y-80363890D01*
X46880362Y-80762663D01*
X47185193Y-81068026D01*
X47583677Y-81233491D01*
X48015150Y-81233868D01*
X48413923Y-81069098D01*
X48719286Y-80764267D01*
X48884751Y-80365783D01*
X48884752Y-80363890D01*
X51114872Y-80363890D01*
X51279642Y-80762663D01*
X51584473Y-81068026D01*
X51982957Y-81233491D01*
X52414430Y-81233868D01*
X52813203Y-81069098D01*
X53118566Y-80764267D01*
X53284031Y-80365783D01*
X53284408Y-79934310D01*
X53119638Y-79535537D01*
X52814807Y-79230174D01*
X52416323Y-79064709D01*
X51984850Y-79064332D01*
X51586077Y-79229102D01*
X51280714Y-79533933D01*
X51115249Y-79932417D01*
X51114872Y-80363890D01*
X48884752Y-80363890D01*
X48885128Y-79934310D01*
X48720358Y-79535537D01*
X48415527Y-79230174D01*
X48017043Y-79064709D01*
X47585570Y-79064332D01*
X47186797Y-79229102D01*
X46881434Y-79533933D01*
X46715969Y-79932417D01*
X46715592Y-80363890D01*
X34908343Y-80363890D01*
X25753308Y-74246692D01*
X21994245Y-68620854D01*
X70864457Y-68620854D01*
X71340727Y-69773515D01*
X72221847Y-70656174D01*
X73373674Y-71134454D01*
X74620854Y-71135543D01*
X75773515Y-70659273D01*
X76656174Y-69778153D01*
X77134454Y-68626326D01*
X77135543Y-67379146D01*
X76659273Y-66226485D01*
X75778153Y-65343826D01*
X74626326Y-64865546D01*
X73379146Y-64864457D01*
X72226485Y-65340727D01*
X71343826Y-66221847D01*
X70865546Y-67373674D01*
X70864457Y-68620854D01*
X21994245Y-68620854D01*
X19097621Y-64285750D01*
X21349000Y-64285750D01*
X21349000Y-65142309D01*
X21445673Y-65375698D01*
X21624301Y-65554327D01*
X21857690Y-65651000D01*
X22714250Y-65651000D01*
X22873000Y-65492250D01*
X22873000Y-64127000D01*
X21507750Y-64127000D01*
X21349000Y-64285750D01*
X19097621Y-64285750D01*
X18320171Y-63122215D01*
X18267554Y-62857691D01*
X21349000Y-62857691D01*
X21349000Y-63714250D01*
X21507750Y-63873000D01*
X22873000Y-63873000D01*
X22873000Y-62507750D01*
X23127000Y-62507750D01*
X23127000Y-63873000D01*
X23147000Y-63873000D01*
X23147000Y-64127000D01*
X23127000Y-64127000D01*
X23127000Y-65492250D01*
X23285750Y-65651000D01*
X24142310Y-65651000D01*
X24375699Y-65554327D01*
X24554327Y-65375698D01*
X24571999Y-65333034D01*
X24908190Y-65557670D01*
X25540000Y-65683345D01*
X26171810Y-65557670D01*
X26707433Y-65199778D01*
X27065325Y-64664155D01*
X27191000Y-64032345D01*
X27191000Y-63967655D01*
X27065325Y-63335845D01*
X26707433Y-62800222D01*
X26171810Y-62442330D01*
X25540000Y-62316655D01*
X24908190Y-62442330D01*
X24571999Y-62666966D01*
X24554327Y-62624302D01*
X24375699Y-62445673D01*
X24142310Y-62349000D01*
X23285750Y-62349000D01*
X23127000Y-62507750D01*
X22873000Y-62507750D01*
X22714250Y-62349000D01*
X21857690Y-62349000D01*
X21624301Y-62445673D01*
X21445673Y-62624302D01*
X21349000Y-62857691D01*
X18267554Y-62857691D01*
X15710000Y-50000000D01*
X18320171Y-36877785D01*
X21164561Y-32620854D01*
X22864457Y-32620854D01*
X23340727Y-33773515D01*
X24221847Y-34656174D01*
X25373674Y-35134454D01*
X26620854Y-35135543D01*
X27773515Y-34659273D01*
X28656174Y-33778153D01*
X29134454Y-32626326D01*
X29135543Y-31379146D01*
X28659273Y-30226485D01*
X27778153Y-29343826D01*
X26626326Y-28865546D01*
X25379146Y-28864457D01*
X24226485Y-29340727D01*
X23343826Y-30221847D01*
X22865546Y-31373674D01*
X22864457Y-32620854D01*
X21164561Y-32620854D01*
X25027203Y-26840000D01*
X29832968Y-26840000D01*
X29938395Y-27370017D01*
X30238625Y-27819343D01*
X30673624Y-28110000D01*
X30238625Y-28400657D01*
X29938395Y-28849983D01*
X29832968Y-29380000D01*
X29938395Y-29910017D01*
X30238625Y-30359343D01*
X30673624Y-30650000D01*
X30238625Y-30940657D01*
X29938395Y-31389983D01*
X29832968Y-31920000D01*
X29938395Y-32450017D01*
X30238625Y-32899343D01*
X30673624Y-33190000D01*
X30238625Y-33480657D01*
X29938395Y-33929983D01*
X29832968Y-34460000D01*
X29938395Y-34990017D01*
X30238625Y-35439343D01*
X30673624Y-35730000D01*
X30238625Y-36020657D01*
X29938395Y-36469983D01*
X29832968Y-37000000D01*
X29938395Y-37530017D01*
X30238625Y-37979343D01*
X30687951Y-38279573D01*
X31217968Y-38385000D01*
X31782032Y-38385000D01*
X32312049Y-38279573D01*
X32761375Y-37979343D01*
X33061605Y-37530017D01*
X33167032Y-37000000D01*
X33061605Y-36469983D01*
X32761375Y-36020657D01*
X32326376Y-35730000D01*
X32761375Y-35439343D01*
X33061605Y-34990017D01*
X33167032Y-34460000D01*
X33061605Y-33929983D01*
X32761375Y-33480657D01*
X32326376Y-33190000D01*
X32761375Y-32899343D01*
X33061605Y-32450017D01*
X33167032Y-31920000D01*
X33061605Y-31389983D01*
X32761375Y-30940657D01*
X32326376Y-30650000D01*
X32761375Y-30359343D01*
X33061605Y-29910017D01*
X33167032Y-29380000D01*
X33061605Y-28849983D01*
X32761375Y-28400657D01*
X32326376Y-28110000D01*
X32761375Y-27819343D01*
X33061605Y-27370017D01*
X33167032Y-26840000D01*
X33061605Y-26309983D01*
X32761375Y-25860657D01*
X32318161Y-25564511D01*
X32371721Y-25549964D01*
X32802736Y-25216894D01*
X33073481Y-24744235D01*
X33092318Y-24641185D01*
X32969656Y-24427000D01*
X31627000Y-24427000D01*
X31627000Y-24447000D01*
X31373000Y-24447000D01*
X31373000Y-24427000D01*
X30030344Y-24427000D01*
X29907682Y-24641185D01*
X29926519Y-24744235D01*
X30197264Y-25216894D01*
X30628279Y-25549964D01*
X30681839Y-25564511D01*
X30238625Y-25860657D01*
X29938395Y-26309983D01*
X29832968Y-26840000D01*
X25027203Y-26840000D01*
X25753308Y-25753308D01*
X28438956Y-23958815D01*
X29907682Y-23958815D01*
X30030344Y-24173000D01*
X31373000Y-24173000D01*
X31373000Y-23068132D01*
X31627000Y-23068132D01*
X31627000Y-24173000D01*
X32969656Y-24173000D01*
X33092318Y-23958815D01*
X33073481Y-23855765D01*
X32802736Y-23383106D01*
X32371721Y-23050036D01*
X31846055Y-22907261D01*
X31627000Y-23068132D01*
X31373000Y-23068132D01*
X31153945Y-22907261D01*
X30628279Y-23050036D01*
X30197264Y-23383106D01*
X29926519Y-23855765D01*
X29907682Y-23958815D01*
X28438956Y-23958815D01*
X36877785Y-18320171D01*
X40374490Y-17624633D01*
X40145771Y-17719138D01*
X39720630Y-18143537D01*
X39490262Y-18698325D01*
X39489738Y-19299040D01*
X39616110Y-19604883D01*
X39376695Y-19604674D01*
X38683628Y-19891043D01*
X38152907Y-20420839D01*
X37865328Y-21113405D01*
X37864674Y-21863305D01*
X38151043Y-22556372D01*
X38680839Y-23087093D01*
X39373405Y-23374672D01*
X40123305Y-23375326D01*
X40816372Y-23088957D01*
X41347093Y-22559161D01*
X41634672Y-21866595D01*
X41635326Y-21116695D01*
X41372254Y-20480011D01*
X41854229Y-20280862D01*
X42279370Y-19856463D01*
X42509738Y-19301675D01*
X42509740Y-19299040D01*
X43989738Y-19299040D01*
X44219138Y-19854229D01*
X44643537Y-20279370D01*
X45136630Y-20484120D01*
X44875328Y-21113405D01*
X44874674Y-21863305D01*
X45161043Y-22556372D01*
X45690839Y-23087093D01*
X46383405Y-23374672D01*
X47133305Y-23375326D01*
X47826372Y-23088957D01*
X48357093Y-22559161D01*
X48644672Y-21866595D01*
X48644674Y-21863305D01*
X50864674Y-21863305D01*
X51151043Y-22556372D01*
X51680839Y-23087093D01*
X52373405Y-23374672D01*
X53123305Y-23375326D01*
X53816372Y-23088957D01*
X54347093Y-22559161D01*
X54634672Y-21866595D01*
X54635326Y-21116695D01*
X54372254Y-20480011D01*
X54854229Y-20280862D01*
X55279370Y-19856463D01*
X55509738Y-19301675D01*
X55510205Y-18765306D01*
X56978410Y-18765306D01*
X57004421Y-19365458D01*
X57184047Y-19799116D01*
X57437940Y-19882455D01*
X58320395Y-19000000D01*
X57437940Y-18117545D01*
X57184047Y-18200884D01*
X56978410Y-18765306D01*
X55510205Y-18765306D01*
X55510262Y-18700960D01*
X55280862Y-18145771D01*
X55073394Y-17937940D01*
X57617545Y-17937940D01*
X58500000Y-18820395D01*
X59382455Y-17937940D01*
X59299116Y-17684047D01*
X58734694Y-17478410D01*
X58134542Y-17504421D01*
X57700884Y-17684047D01*
X57617545Y-17937940D01*
X55073394Y-17937940D01*
X54856463Y-17720630D01*
X54301675Y-17490262D01*
X53700960Y-17489738D01*
X53145771Y-17719138D01*
X52720630Y-18143537D01*
X52490262Y-18698325D01*
X52489738Y-19299040D01*
X52616110Y-19604883D01*
X52376695Y-19604674D01*
X51683628Y-19891043D01*
X51152907Y-20420839D01*
X50865328Y-21113405D01*
X50864674Y-21863305D01*
X48644674Y-21863305D01*
X48645326Y-21116695D01*
X48358957Y-20423628D01*
X47829161Y-19892907D01*
X47136595Y-19605328D01*
X46883742Y-19605107D01*
X47009738Y-19301675D01*
X47010262Y-18700960D01*
X46780862Y-18145771D01*
X46356463Y-17720630D01*
X45801675Y-17490262D01*
X45200960Y-17489738D01*
X44645771Y-17719138D01*
X44220630Y-18143537D01*
X43990262Y-18698325D01*
X43989738Y-19299040D01*
X42509740Y-19299040D01*
X42510262Y-18700960D01*
X42280862Y-18145771D01*
X41856463Y-17720630D01*
X41301675Y-17490262D01*
X41051118Y-17490043D01*
X50000000Y-15710000D01*
X63122215Y-18320171D01*
M02*
