M48
;DRILL file {KiCad 4.0.2-stable} date 2016. 09. 14. 22:42:18
;FORMAT={-:-/ absolute / inch / decimal}
FMAT,2
INCH,TZ
T1C0.031
T2C0.039
T3C0.039
T4C0.040
T5C0.059
T6C0.138
%
G90
G05
M72
T1
X0.8366Y-1.9685
X1.752Y-1.4567
X2.4606Y-0.876
X2.687Y-0.876
T2
X1.6142Y-0.748
X1.7913Y-0.748
X2.126Y-0.748
X2.3031Y-0.748
T3
X1.2402Y-0.9567
X1.2402Y-1.0567
X1.2402Y-1.1567
X1.2402Y-1.2567
X1.2402Y-1.3567
X1.2402Y-1.4567
T4
X0.9055Y-2.5197
X1.0055Y-2.5197
T5
X1.565Y-0.8461
X1.8409Y-0.8461
X2.0768Y-0.8461
X2.3528Y-0.8461
T6
X1.0236Y-1.2598
X2.9134Y-2.6772
T0
M30
